<svg width="20" height="20" viewBox="0 0 20 20" fill="none" xmlns="http://www.w3.org/2000/svg">
<path d="M10 3.33333V2.5H17.5V3.33333H10ZM10 6.15375V5.32042H17.5V6.15375H10ZM10 8.97438V8.14104H17.5V8.97438H10ZM14.9423 17.5C13.5374 17.5 12.0973 17.1483 10.6219 16.4448C9.14646 15.7412 7.77569 14.7537 6.50958 13.4823C5.24361 12.211 4.25882 10.8403 3.55521 9.37021C2.85174 7.90007 2.5 6.46257 2.5 5.05771C2.5 4.80313 2.58333 4.59097 2.75 4.42125C2.91667 4.25153 3.125 4.16667 3.375 4.16667H5.43583C5.66236 4.16667 5.86 4.23799 6.02875 4.38063C6.19764 4.52326 6.31201 4.70625 6.37188 4.92958L6.78521 6.91667C6.82368 7.14958 6.81674 7.35313 6.76438 7.52729C6.71201 7.70146 6.61958 7.8441 6.48708 7.95521L4.65875 9.66021C5.00056 10.2809 5.37847 10.8576 5.7925 11.3902C6.20653 11.9228 6.64806 12.4274 7.11708 12.9038C7.60097 13.3878 8.12181 13.8378 8.67958 14.254C9.23722 14.6701 9.84937 15.063 10.516 15.4327L12.2981 13.6185C12.4338 13.4722 12.5863 13.3758 12.7556 13.3294C12.9249 13.2828 13.1122 13.2735 13.3173 13.3012L15.0704 13.6602C15.2969 13.7158 15.4808 13.8299 15.6219 14.0025C15.7628 14.175 15.8333 14.3729 15.8333 14.5963V16.625C15.8333 16.875 15.7485 17.0833 15.5788 17.25C15.409 17.4167 15.1969 17.5 14.9423 17.5ZM4.26771 8.87813L5.86708 7.40708C5.92042 7.36431 5.95514 7.30556 5.97125 7.23083C5.98722 7.15597 5.98451 7.08653 5.96313 7.0225L5.59292 5.25646C5.57153 5.1709 5.53417 5.10681 5.48083 5.06417C5.42736 5.02139 5.35792 5 5.2725 5H3.5625C3.49833 5 3.44493 5.02139 3.40229 5.06417C3.35951 5.10681 3.33812 5.16021 3.33812 5.22438C3.3541 5.79382 3.44333 6.38833 3.60583 7.00792C3.76819 7.62764 3.98882 8.25104 4.26771 8.87813ZM11.3094 15.8237C11.8723 16.1026 12.4724 16.3088 13.1098 16.4423C13.747 16.5759 14.3023 16.6475 14.7756 16.6571C14.8398 16.6571 14.8932 16.6357 14.9358 16.5929C14.9786 16.5501 15 16.4967 15 16.4327V14.7596C15 14.6742 14.9786 14.6047 14.9358 14.5512C14.8932 14.4979 14.8291 14.4606 14.7435 14.4392L13.2019 14.1233C13.1378 14.1019 13.0818 14.0993 13.0338 14.1154C12.9856 14.1314 12.9348 14.1661 12.8815 14.2196L11.3094 15.8237Z" fill="#ECE5D6"/>
</svg>
