<svg width="80" height="80" viewBox="0 0 80 80" fill="none" xmlns="http://www.w3.org/2000/svg">
<path d="M37.0833 47.8333H42.9167L41.0833 37.6666C42.0278 37.3888 42.8194 36.8471 43.4583 36.0416C44.0972 35.236 44.4167 34.3333 44.4167 33.3333C44.4167 32.111 43.9861 31.0694 43.125 30.2083C42.2639 29.3471 41.2222 28.9166 40 28.9166C38.7778 28.9166 37.7361 29.3471 36.875 30.2083C36.0139 31.0694 35.5833 32.111 35.5833 33.3333C35.5833 34.3333 35.9028 35.236 36.5417 36.0416C37.1805 36.8471 37.9722 37.3888 38.9167 37.6666L37.0833 47.8333ZM40 68.8333C33.6111 66.8333 28.2917 62.8888 24.0417 56.9999C19.7917 51.111 17.6667 44.4444 17.6667 36.9999V19.6666L40 11.3333L62.3333 19.6666V36.9999C62.3333 44.4444 60.2083 51.111 55.9583 56.9999C51.7083 62.8888 46.3889 66.8333 40 68.8333ZM40 66.3333C45.7778 64.4999 50.5555 60.8333 54.3333 55.3333C58.1111 49.8333 60 43.7221 60 36.9999V21.2499L40 13.8333L20 21.2499V36.9999C20 43.7221 21.8889 49.8333 25.6667 55.3333C29.4444 60.8333 34.2222 64.4999 40 66.3333Z" fill="#7B2F2D"/>
</svg>
