<svg width="80" height="80" viewBox="0 0 80 80" fill="none" xmlns="http://www.w3.org/2000/svg">
<path d="M15.6667 58.9999H14.3333L13.3333 52.3333H11V42.6666C11 41.2777 11.4861 40.0971 12.4583 39.1249C13.4306 38.1527 14.6111 37.6666 16 37.6666H17.6667V30.3333C17.6667 28.9444 18.1528 27.7638 19.125 26.7916C20.0972 25.8194 21.2778 25.3333 22.6667 25.3333H57.3333C58.7222 25.3333 59.9028 25.8194 60.875 26.7916C61.8472 27.7638 62.3333 28.9444 62.3333 30.3333V37.6666H64C65.3889 37.6666 66.5694 38.1527 67.5417 39.1249C68.5139 40.0971 69 41.2777 69 42.6666V52.3333H66.6667L65.6667 58.9999H64.3333L63.3333 52.3333H16.6667L15.6667 58.9999ZM41.1667 37.6666H60V30.3333C60 29.5555 59.75 28.9166 59.25 28.4166C58.75 27.9166 58.1111 27.6666 57.3333 27.6666H41.1667V37.6666ZM20 37.6666H38.8333V27.6666H22.6667C21.8889 27.6666 21.25 27.9166 20.75 28.4166C20.25 28.9166 20 29.5555 20 30.3333V37.6666ZM13.3333 49.9999H66.6667V42.6666C66.6667 41.8888 66.4167 41.2499 65.9167 40.7499C65.4167 40.2499 64.7778 39.9999 64 39.9999H16C15.2222 39.9999 14.5833 40.2499 14.0833 40.7499C13.5833 41.2499 13.3333 41.8888 13.3333 42.6666V49.9999Z" fill="#7B2F2D"/>
</svg>
