<svg width="20" height="20" viewBox="0 0 20 20" fill="none" xmlns="http://www.w3.org/2000/svg">
<path d="M12.2083 13.6251H15.2917V10.5417H14.7083V13.0417H12.2083V13.6251ZM4.70833 9.45842H5.29167V6.95841H7.79167V6.37508H4.70833V9.45842ZM4 15.5834C3.63889 15.5834 3.34028 15.4654 3.10417 15.2292C2.86806 14.9931 2.75 14.6945 2.75 14.3334V5.66675C2.75 5.30564 2.86806 5.00703 3.10417 4.77091C3.34028 4.5348 3.63889 4.41675 4 4.41675H16C16.3611 4.41675 16.6597 4.5348 16.8958 4.77091C17.1319 5.00703 17.25 5.30564 17.25 5.66675V14.3334C17.25 14.6945 17.1319 14.9931 16.8958 15.2292C16.6597 15.4654 16.3611 15.5834 16 15.5834H4ZM4 15.0001H16C16.1667 15.0001 16.3194 14.9306 16.4583 14.7917C16.5972 14.6529 16.6667 14.5001 16.6667 14.3334V5.66675C16.6667 5.50008 16.5972 5.3473 16.4583 5.20841C16.3194 5.06953 16.1667 5.00008 16 5.00008H4C3.83333 5.00008 3.68056 5.06953 3.54167 5.20841C3.40278 5.3473 3.33333 5.50008 3.33333 5.66675V14.3334C3.33333 14.5001 3.40278 14.6529 3.54167 14.7917C3.68056 14.9306 3.83333 15.0001 4 15.0001Z" fill="white"/>
</svg>
