<svg width="52" height="34" viewBox="0 0 52 34" fill="none" xmlns="http://www.w3.org/2000/svg">
<g clip-path="url(#clip0_51_177)">
<path d="M17.5335 19.6323C17.5335 22.1767 15.4779 24.2397 12.9429 24.2397C10.4079 24.2397 8.3523 22.1767 8.3523 19.6323C8.3523 17.0882 10.4079 15.0249 12.9429 15.0249C15.4779 15.0249 17.5335 17.0878 17.5335 19.6323ZM38.8172 15.0249C36.2822 15.0249 34.2266 17.0878 34.2266 19.6323C34.2266 22.1767 36.2818 24.2397 38.8172 24.2397C41.3526 24.2397 43.4078 22.1767 43.4078 19.6323C43.407 17.0894 41.3534 15.0276 38.8196 15.0265L38.8172 15.0249ZM51.7601 19.6323C51.7601 26.8023 45.9633 32.6155 38.8172 32.6155C35.5575 32.6212 32.4169 31.3864 30.0284 29.1602L25.8858 33.6826L21.7415 29.155C19.3532 31.384 16.2114 32.6208 12.95 32.6159C5.80903 32.6155 0.0141818 26.8019 0.0141818 19.6319C0.011654 17.8257 0.385719 16.0389 1.11233 14.3864C1.83895 12.7339 2.90204 11.2523 4.23327 10.0368L0 5.41395H9.4057C19.3578 -1.38408 32.4382 -1.38408 42.3902 5.41395H51.7715L47.5386 10.0364C48.8704 11.2517 49.9339 12.7333 50.6609 14.3859C51.388 16.0385 51.7624 17.8254 51.7601 19.6319M21.7005 19.6319C21.7005 14.7794 17.7808 10.8452 12.946 10.8452C8.11121 10.8452 4.19152 14.7798 4.19152 19.6323C4.19152 24.4848 8.11121 28.4189 12.946 28.4189C17.7808 28.4189 21.7002 24.486 21.7005 19.6335V19.6319ZM35.6003 6.5142C32.5217 5.22702 29.2197 4.56431 25.8846 4.56431C22.5495 4.56431 19.2474 5.22702 16.1688 6.5142C21.6958 8.63723 25.8862 13.5969 25.8862 19.3789C25.8862 13.5973 30.0757 8.63723 35.6007 6.51499L35.6003 6.5142ZM47.5741 19.6319C47.5741 14.7794 43.6544 10.8452 38.8196 10.8452C33.9848 10.8452 30.0651 14.779 30.0651 19.6315C30.0651 24.484 33.9844 28.4181 38.8188 28.4181C43.6532 28.4181 47.5733 24.4844 47.5733 19.6315" fill="#7B2F2D"/>
</g>
<defs>
<clipPath id="clip0_51_177">
<rect width="52" height="34" fill="white"/>
</clipPath>
</defs>
</svg>
