<svg width="60" height="60" viewBox="0 0 60 60" fill="none" xmlns="http://www.w3.org/2000/svg">
<path d="M33.375 30.625C32.1667 30.625 31.1562 30.2188 30.3438 29.4062C29.5312 28.5938 29.125 27.5833 29.125 26.375C29.125 25.1667 29.5312 24.1562 30.3438 23.3438C31.1562 22.5312 32.1667 22.125 33.375 22.125C34.5833 22.125 35.5938 22.5312 36.4062 23.3438C37.2188 24.1562 37.625 25.1667 37.625 26.375C37.625 27.5833 37.2188 28.5938 36.4062 29.4062C35.5938 30.2188 34.5833 30.625 33.375 30.625ZM18.5 38.75C17.4688 38.75 16.586 38.3827 15.8519 37.6481C15.1173 36.914 14.75 36.0312 14.75 35V17.75C14.75 16.7188 15.1173 15.8358 15.8519 15.1012C16.586 14.3671 17.4688 14 18.5 14H48.25C49.2812 14 50.1642 14.3671 50.8988 15.1012C51.6329 15.8358 52 16.7188 52 17.75V35C52 36.0312 51.6329 36.914 50.8988 37.6481C50.1642 38.3827 49.2812 38.75 48.25 38.75H18.5ZM20.25 37H46.5C46.5 35.9583 46.8673 35.0729 47.6019 34.3438C48.336 33.6146 49.2188 33.25 50.25 33.25V19.5C49.2083 19.5 48.3229 19.1327 47.5938 18.3981C46.8646 17.664 46.5 16.7812 46.5 15.75H20.25C20.25 16.7917 19.8829 17.6771 19.1488 18.4062C18.4142 19.1354 17.5312 19.5 16.5 19.5V33.25C17.5417 33.25 18.4271 33.6171 19.1562 34.3512C19.8854 35.0858 20.25 35.9688 20.25 37ZM44.625 45.5H11.75C10.7188 45.5 9.83604 45.1327 9.10188 44.3981C8.36729 43.664 8 42.7812 8 41.75V21.375H9.75V41.75C9.75 42.25 9.95833 42.7083 10.375 43.125C10.7917 43.5417 11.25 43.75 11.75 43.75H44.625V45.5ZM18.5 37H16.5V15.75H18.5C17.9583 15.75 17.4896 15.9479 17.0938 16.3438C16.6979 16.7396 16.5 17.2083 16.5 17.75V35C16.5 35.5417 16.6979 36.0104 17.0938 36.4062C17.4896 36.8021 17.9583 37 18.5 37Z" fill="#7B2F2D"/>
</svg>
