<svg width="60" height="60" viewBox="0 0 60 60" fill="none" xmlns="http://www.w3.org/2000/svg">
<path d="M14.5 51.75C13.4167 51.75 12.5208 51.3958 11.8125 50.6875C11.1042 49.9792 10.75 49.0833 10.75 48V17C10.75 15.9167 11.1042 15.0208 11.8125 14.3125C12.5208 13.6042 13.4167 13.25 14.5 13.25H19.5V7.5H21.5V13.25H38.75V7.5H40.5V13.25H45.5C46.5833 13.25 47.4792 13.6042 48.1875 14.3125C48.8958 15.0208 49.25 15.9167 49.25 17V33.625L47.5 35.375V27H12.5V48C12.5 48.5 12.7083 48.9583 13.125 49.375C13.5417 49.7917 14 50 14.5 50H29.1875L31 51.75H14.5ZM12.5 25.25H47.5V17C47.5 16.5 47.2917 16.0417 46.875 15.625C46.4583 15.2083 46 15 45.5 15H14.5C14 15 13.5417 15.2083 13.125 15.625C12.7083 16.0417 12.5 16.5 12.5 17V25.25ZM41.125 53L34.875 46.8125L36.125 45.5625L41.125 50.5625L51.125 40.5625L52.375 41.8125L41.125 53Z" fill="#7B2F2D"/>
</svg>
