<svg width="20" height="20" viewBox="0 0 20 20" fill="none" xmlns="http://www.w3.org/2000/svg">
<path d="M10 17.5C8.96472 17.5 7.9909 17.3026 7.07854 16.9079C6.16618 16.5131 5.37236 15.9781 4.69708 15.3029C4.02194 14.6276 3.48694 13.8338 3.09208 12.9215C2.69736 12.0091 2.5 11.0353 2.5 10C2.5 8.96472 2.69736 7.9909 3.09208 7.07854C3.48694 6.16618 4.02194 5.37236 4.69708 4.69708C5.37236 4.02194 6.16618 3.48694 7.07854 3.09208C7.9909 2.69736 8.96472 2.5 10 2.5C11.0353 2.5 12.0091 2.69736 12.9215 3.09208C13.8338 3.48694 14.6276 4.02194 15.3029 4.69708C15.9781 5.37236 16.5131 6.16618 16.9079 7.07854C17.3026 7.9909 17.5 8.96472 17.5 10V10.8238C17.5 11.5257 17.2588 12.1194 16.7765 12.605C16.2941 13.0906 15.7019 13.3333 15 13.3333C14.5032 13.3333 14.0502 13.1971 13.641 12.9246C13.2319 12.6522 12.9295 12.2895 12.734 11.8365C12.4166 12.2927 12.0205 12.6562 11.5456 12.9271C11.0708 13.1979 10.5556 13.3333 10 13.3333C9.07153 13.3333 8.28389 13.0099 7.63708 12.3629C6.99014 11.7161 6.66667 10.9285 6.66667 10C6.66667 9.07153 6.99014 8.28389 7.63708 7.63708C8.28389 6.99014 9.07153 6.66667 10 6.66667C10.9285 6.66667 11.7161 6.99014 12.3629 7.63708C13.0099 8.28389 13.3333 9.07153 13.3333 10V10.8238C13.3333 11.281 13.4968 11.6747 13.8237 12.0048C14.1507 12.3349 14.5428 12.5 15 12.5C15.4572 12.5 15.8493 12.3349 16.1763 12.0048C16.5032 11.6747 16.6667 11.281 16.6667 10.8238V10C16.6667 8.13889 16.0208 6.5625 14.7292 5.27083C13.4375 3.97917 11.8611 3.33333 10 3.33333C8.13889 3.33333 6.5625 3.97917 5.27083 5.27083C3.97917 6.5625 3.33333 8.13889 3.33333 10C3.33333 11.8611 3.97917 13.4375 5.27083 14.7292C6.5625 16.0208 8.13889 16.6667 10 16.6667H14.1667V17.5H10ZM11.7708 11.7708C12.2569 11.2847 12.5 10.6944 12.5 10C12.5 9.30556 12.2569 8.71528 11.7708 8.22917C11.2847 7.74306 10.6944 7.5 10 7.5C9.30556 7.5 8.71528 7.74306 8.22917 8.22917C7.74306 8.71528 7.5 9.30556 7.5 10C7.5 10.6944 7.74306 11.2847 8.22917 11.7708C8.71528 12.2569 9.30556 12.5 10 12.5C10.6944 12.5 11.2847 12.2569 11.7708 11.7708Z" fill="#ECE5D6"/>
</svg>
