<svg width="60" height="60" viewBox="0 0 60 60" fill="none" xmlns="http://www.w3.org/2000/svg">
<path d="M33.25 49.375V44.25H28.75C23.75 44.25 19.5 42.5 16 39C12.5 35.5 10.75 31.25 10.75 26.25C10.75 21.25 12.5 17 16 13.5C19.5 10 23.75 8.25 28.75 8.25C31.25 8.25 33.5938 8.71875 35.7812 9.65625C37.9688 10.5938 39.875 11.875 41.5 13.5C43.125 15.125 44.4062 17.0312 45.3438 19.2188C46.2812 21.4062 46.75 23.75 46.75 26.25C46.75 28.625 46.4167 30.9062 45.75 33.0938C45.0833 35.2812 44.1562 37.3646 42.9688 39.3438C41.7812 41.3229 40.3542 43.1562 38.6875 44.8438C37.0208 46.5312 35.2083 48.0417 33.25 49.375ZM35 45.875C37.9583 43.375 40.3646 40.4479 42.2188 37.0938C44.0729 33.7396 45 30.125 45 26.25C45 21.7083 43.4271 17.8646 40.2812 14.7188C37.1354 11.5729 33.2917 10 28.75 10C24.2083 10 20.3646 11.5729 17.2188 14.7188C14.0729 17.8646 12.5 21.7083 12.5 26.25C12.5 30.7917 14.0729 34.6354 17.2188 37.7812C20.3646 40.9271 24.2083 42.5 28.75 42.5H35V45.875ZM30.0312 38.1562C30.3438 37.8438 30.5 37.4583 30.5 37C30.5 36.5417 30.3438 36.1562 30.0312 35.8438C29.7188 35.5312 29.3333 35.375 28.875 35.375C28.4167 35.375 28.0312 35.5312 27.7188 35.8438C27.4062 36.1562 27.25 36.5417 27.25 37C27.25 37.4583 27.4062 37.8438 27.7188 38.1562C28.0312 38.4688 28.4167 38.625 28.875 38.625C29.3333 38.625 29.7188 38.4688 30.0312 38.1562ZM28 31.5H29.75C29.8333 30.5417 30.0521 29.75 30.4062 29.125C30.7604 28.5 31.5417 27.5833 32.75 26.375C33.4583 25.6667 34.0104 24.9583 34.4062 24.25C34.8021 23.5417 35 22.7083 35 21.75C35 20.0417 34.4062 18.6771 33.2188 17.6562C32.0312 16.6354 30.5833 16.125 28.875 16.125C27.4167 16.125 26.1771 16.5208 25.1562 17.3125C24.1354 18.1042 23.375 19.0417 22.875 20.125L24.5 20.75C24.875 20 25.3958 19.3333 26.0625 18.75C26.7292 18.1667 27.6667 17.875 28.875 17.875C30.375 17.875 31.4792 18.2812 32.1875 19.0938C32.8958 19.9062 33.25 20.7917 33.25 21.75C33.25 22.625 33.0312 23.3542 32.5938 23.9375C32.1562 24.5208 31.5833 25.1667 30.875 25.875C29.75 26.875 28.9896 27.8125 28.5938 28.6875C28.1979 29.5625 28 30.5 28 31.5Z" fill="#7B2F2D"/>
</svg>
