<svg width="60" height="60" viewBox="0 0 60 60" fill="none" xmlns="http://www.w3.org/2000/svg">
<path d="M24.125 33.75L30 30.1875L35.875 33.75L34.3125 27.0625L39.5 22.625L32.6875 22L30 15.75L27.3125 22L20.5 22.625L25.6875 27.0625L24.125 33.75ZM8.25 48.75V12C8.25 10.9167 8.60417 10.0208 9.3125 9.3125C10.0208 8.60417 10.9167 8.25 12 8.25H48C49.0833 8.25 49.9792 8.60417 50.6875 9.3125C51.3958 10.0208 51.75 10.9167 51.75 12V38C51.75 39.0833 51.3958 39.9792 50.6875 40.6875C49.9792 41.3958 49.0833 41.75 48 41.75H15.25L8.25 48.75ZM14.5 40H48C48.5 40 48.9583 39.7917 49.375 39.375C49.7917 38.9583 50 38.5 50 38V12C50 11.5 49.7917 11.0417 49.375 10.625C48.9583 10.2083 48.5 10 48 10H12C11.5 10 11.0417 10.2083 10.625 10.625C10.2083 11.0417 10 11.5 10 12V44.5L14.5 40Z" fill="#7B2F2D"/>
</svg>
