<svg width="60" height="60" viewBox="0 0 60 60" fill="none" xmlns="http://www.w3.org/2000/svg">
<path d="M30.0025 40.25C30.2508 40.25 30.4583 40.1658 30.625 39.9975C30.7917 39.8296 30.875 39.6213 30.875 39.3725C30.875 39.1242 30.7908 38.9167 30.6225 38.75C30.4546 38.5833 30.2463 38.5 29.9975 38.5C29.7492 38.5 29.5417 38.5842 29.375 38.7525C29.2083 38.9204 29.125 39.1287 29.125 39.3775C29.125 39.6258 29.2092 39.8333 29.3775 40C29.5454 40.1667 29.7537 40.25 30.0025 40.25ZM30.0025 30.875C30.2508 30.875 30.4583 30.7908 30.625 30.6225C30.7917 30.4546 30.875 30.2463 30.875 29.9975C30.875 29.7492 30.7908 29.5417 30.6225 29.375C30.4546 29.2083 30.2463 29.125 29.9975 29.125C29.7492 29.125 29.5417 29.2092 29.375 29.3775C29.2083 29.5454 29.125 29.7537 29.125 30.0025C29.125 30.2508 29.2092 30.4583 29.3775 30.625C29.5454 30.7917 29.7537 30.875 30.0025 30.875ZM30.0025 21.5C30.2508 21.5 30.4583 21.4158 30.625 21.2475C30.7917 21.0796 30.875 20.8713 30.875 20.6225C30.875 20.3742 30.7908 20.1667 30.6225 20C30.4546 19.8333 30.2463 19.75 29.9975 19.75C29.7492 19.75 29.5417 19.8342 29.375 20.0025C29.2083 20.1704 29.125 20.3787 29.125 20.6275C29.125 20.8758 29.2092 21.0833 29.3775 21.25C29.5454 21.4167 29.7537 21.5 30.0025 21.5ZM48 46.75H12C10.9688 46.75 10.086 46.3827 9.35188 45.6481C8.61729 44.914 8.25 44.0312 8.25 43V37.625C9.75 36.9167 10.9583 35.8854 11.875 34.5312C12.7917 33.1771 13.25 31.6667 13.25 30C13.25 28.3333 12.7917 26.8229 11.875 25.4688C10.9583 24.1146 9.75 23.0833 8.25 22.375V17C8.25 15.9688 8.61729 15.0858 9.35188 14.3512C10.086 13.6171 10.9688 13.25 12 13.25H48C49.0312 13.25 49.9142 13.6171 50.6488 14.3512C51.3829 15.0858 51.75 15.9688 51.75 17V22.375C50.25 23.0833 49.0417 24.1146 48.125 25.4688C47.2083 26.8229 46.75 28.3333 46.75 30C46.75 31.6667 47.2083 33.1771 48.125 34.5312C49.0417 35.8854 50.25 36.9167 51.75 37.625V43C51.75 44.0312 51.3829 44.914 50.6488 45.6481C49.9142 46.3827 49.0312 46.75 48 46.75ZM48 45C48.5833 45 49.0625 44.8125 49.4375 44.4375C49.8125 44.0625 50 43.5833 50 43V38.625C48.4583 37.7083 47.2396 36.4896 46.3438 34.9688C45.4479 33.4479 45 31.7917 45 30C45 28.2083 45.4479 26.5521 46.3438 25.0312C47.2396 23.5104 48.4583 22.2917 50 21.375V17C50 16.4167 49.8125 15.9375 49.4375 15.5625C49.0625 15.1875 48.5833 15 48 15H12C11.4167 15 10.9375 15.1875 10.5625 15.5625C10.1875 15.9375 10 16.4167 10 17V21.375C11.5417 22.2917 12.7604 23.5104 13.6562 25.0312C14.5521 26.5521 15 28.2083 15 30C15 31.7917 14.5521 33.4479 13.6562 34.9688C12.7604 36.4896 11.5417 37.7083 10 38.625V43C10 43.5833 10.1875 44.0625 10.5625 44.4375C10.9375 44.8125 11.4167 45 12 45H48Z" fill="#7B2F2D"/>
</svg>
