<svg width="166" height="166" viewBox="0 0 166 166" fill="none" xmlns="http://www.w3.org/2000/svg">
<path d="M66.1899 19.2439L66.0216 18.4291L71.4587 17.3057L71.6271 18.1205L66.1899 19.2439ZM64.092 9.09035L63.9237 8.27556L69.3608 7.15217L69.5292 7.96696L64.092 9.09035ZM65.0309 13.6344L64.8625 12.8196L69.9863 11.7609L70.1547 12.5757L65.0309 13.6344ZM63.4693 8.36944L64.3311 8.19138L66.5973 19.1597L65.7355 19.3378L63.4693 8.36944ZM75.2778 14.3178C75.4846 14.7765 75.7264 15.1905 76.0032 15.5598C76.2905 15.9286 76.6324 16.2196 77.0287 16.4328C77.4245 16.6353 77.8886 16.7219 78.4211 16.6926C79.1454 16.6527 79.699 16.4246 80.082 16.0082C80.4751 15.5806 80.6546 15.058 80.6206 14.4402C80.5907 13.8971 80.4441 13.4671 80.181 13.1505C79.9179 12.8338 79.5837 12.5851 79.1785 12.4045C78.7833 12.2126 78.3683 12.0485 77.9335 11.9122C77.6075 11.8126 77.2644 11.6926 76.9042 11.5522C76.554 11.4006 76.2233 11.2158 75.9122 10.9979C75.6005 10.7694 75.3394 10.49 75.1289 10.1597C74.9291 9.8289 74.816 9.42384 74.7896 8.94456C74.7602 8.41204 74.8622 7.93638 75.0956 7.51758C75.3283 7.08813 75.6675 6.74896 76.1131 6.50008C76.5582 6.24055 77.0683 6.09494 77.6434 6.06327C78.2399 6.03042 78.7573 6.1141 79.1956 6.3143C79.6446 6.51391 80.0222 6.77621 80.3286 7.10119C80.6349 7.42617 80.8726 7.76561 81.0417 8.11952L80.2986 8.59309C80.1656 8.31198 79.9796 8.03913 79.7407 7.77453C79.5125 7.50935 79.2283 7.29532 78.8881 7.13244C78.5474 6.95892 78.1321 6.88565 77.6421 6.91263C76.9925 6.94841 76.5013 7.14638 76.1686 7.50656C75.8353 7.85608 75.6824 8.28113 75.71 8.7817C75.7329 9.19707 75.8537 9.54829 76.0725 9.83536C76.2913 10.1224 76.6098 10.3773 77.028 10.6C77.4456 10.812 77.9585 11.0081 78.5667 11.1883C78.882 11.2884 79.2094 11.4146 79.549 11.5668C79.8885 11.719 80.1985 11.9156 80.4788 12.1566C80.7698 12.3969 81.0105 12.6935 81.2008 13.0462C81.3906 13.3883 81.499 13.8043 81.5259 14.2942C81.5512 14.7522 81.4888 15.1723 81.3389 15.5544C81.1997 15.936 80.9886 16.2734 80.7057 16.5668C80.4328 16.8489 80.1034 17.0753 79.7175 17.2461C79.3311 17.4063 78.9089 17.499 78.4509 17.5242C77.8012 17.56 77.2241 17.4582 76.7195 17.219C76.2149 16.9797 75.7852 16.6455 75.4304 16.2163C75.0756 15.7872 74.7933 15.3167 74.5835 14.8048L75.2778 14.3178ZM84.6173 6.76411L84.6747 5.93409L91.4266 6.40041L91.3693 7.23043L88.4323 7.02759L87.7179 17.3709L86.84 17.3103L87.5543 6.96695L84.6173 6.76411ZM93.5312 14.3505L93.9846 13.5958L99.0415 14.6619L99.1516 15.5354L93.5312 14.3505ZM97.5227 9.22363L94.301 13.9568L94.1674 14.1249L91.6753 17.8018L90.7046 17.5972L97.9419 7.23534L100.38 19.6371L99.4093 19.4324L98.6161 15.1282L98.5808 14.9082L97.5227 9.22363ZM105.833 15.0604L106.019 14.5834L107.644 15.2172C108.051 15.3761 108.449 15.4569 108.838 15.4595C109.226 15.4621 109.57 15.3729 109.869 15.1921C110.173 15.0013 110.404 14.7022 110.563 14.2947C110.788 13.7184 110.758 13.1917 110.475 12.7148C110.205 12.2318 109.733 11.8585 109.057 11.595L107.611 11.031L104.111 20.0045L105.706 20.6266C106.232 20.8321 106.729 20.9229 107.197 20.899C107.664 20.8752 108.073 20.737 108.423 20.4844C108.777 20.2219 109.055 19.8322 109.257 19.3155C109.4 18.9478 109.457 18.5977 109.426 18.2652C109.399 17.9227 109.299 17.6086 109.124 17.3229C108.953 17.0273 108.728 16.7677 108.449 16.5443C108.179 16.3248 107.866 16.1453 107.508 16.0057L105.734 15.3138L105.92 14.8368L107.754 15.552C108.181 15.7186 108.575 15.9411 108.936 16.2192C109.301 16.4875 109.598 16.7979 109.827 17.1505C110.065 17.507 110.209 17.9009 110.259 18.3323C110.322 18.7576 110.26 19.2088 110.074 19.6858C109.807 20.3715 109.437 20.8798 108.964 21.2107C108.492 21.5416 107.949 21.7136 107.337 21.7268C106.735 21.7439 106.097 21.6206 105.421 21.357L103.006 20.4151L107.076 9.9808L109.342 10.8646C109.968 11.1088 110.468 11.4125 110.841 11.7757C111.225 12.1428 111.467 12.5637 111.568 13.0382C111.673 13.5028 111.617 14.0133 111.4 14.5698C111.202 15.0766 110.906 15.4535 110.512 15.7006C110.132 15.9415 109.684 16.0643 109.167 16.0687C108.654 16.0632 108.104 15.9461 107.518 15.7174L105.833 15.0604ZM117.56 14.3944L118.326 14.8268L113.232 23.8569L117.259 26.1289L116.85 26.8536L112.057 24.1492L117.56 14.3944ZM125.652 19.1642L126.373 19.6683L119.957 28.8483L119.236 28.3442L125.652 19.1642ZM125.282 28.846C125.108 29.3181 124.99 29.7828 124.928 30.2401C124.874 30.7046 124.914 31.1517 125.047 31.5816C125.187 32.0036 125.457 32.3908 125.857 32.7433C126.401 33.2228 126.956 33.4485 127.521 33.4203C128.101 33.3911 128.596 33.1444 129.005 32.6802C129.364 32.272 129.561 31.8628 129.596 31.4525C129.63 31.0422 129.566 30.6306 129.404 30.2176C129.257 29.8037 129.076 29.3957 128.862 28.9936C128.699 28.694 128.539 28.3678 128.381 28.0151C128.237 27.6614 128.131 27.2978 128.062 26.9243C128 26.5428 128.01 26.1605 128.092 25.7775C128.181 25.4015 128.385 25.0334 128.702 24.6732C129.054 24.273 129.461 24.0055 129.921 23.8706C130.388 23.7276 130.868 23.7237 131.36 23.8588C131.859 23.986 132.325 24.2399 132.757 24.6206C133.205 25.0155 133.515 25.438 133.687 25.8881C133.868 26.3453 133.953 26.7971 133.943 27.2436C133.934 27.6901 133.865 28.0988 133.737 28.4696L132.876 28.2861C132.978 27.9925 133.037 27.6675 133.052 27.3114C133.075 26.9622 133.023 26.6104 132.895 26.2557C132.773 25.8931 132.529 25.5496 132.16 25.2252C131.672 24.7951 131.183 24.5918 130.693 24.6152C130.211 24.6306 129.804 24.8264 129.472 25.2026C129.197 25.5148 129.037 25.8499 128.992 26.208C128.946 26.566 128.995 26.9711 129.137 27.4231C129.286 27.8671 129.514 28.3666 129.821 28.9215C129.976 29.2141 130.12 29.5336 130.256 29.8803C130.391 30.2269 130.474 30.5844 130.505 30.9528C130.544 31.3282 130.508 31.7084 130.396 32.0934C130.291 32.4703 130.077 32.8429 129.752 33.211C129.449 33.5552 129.11 33.8109 128.735 33.9782C128.368 34.1526 127.981 34.2451 127.574 34.2558C127.182 34.2655 126.788 34.196 126.393 34.0471C126.005 33.8903 125.639 33.6603 125.295 33.3571C124.807 32.9269 124.467 32.4497 124.275 31.9252C124.083 31.4008 124.011 30.8612 124.059 30.3065C124.107 29.7517 124.236 29.2183 124.445 28.7063L125.282 28.846ZM134.874 34.5363L135.52 34.0114L140.283 39.8713L139.638 40.3961L134.874 34.5363ZM143.548 36.4547L144.113 37.15L135.422 44.215L134.857 43.5198L143.548 36.4547ZM138.864 30.6942L139.42 31.377L130.729 38.4421L130.174 37.7592L138.864 30.6942ZM137.958 47.8178L138.683 47.4094L141.408 52.2465L140.684 52.6549L137.958 47.8178ZM146.991 42.7284L147.716 42.32L150.441 47.1571L149.716 47.5655L146.991 42.7284ZM142.949 45.0061L143.673 44.5977L146.242 49.156L145.517 49.5644L142.949 45.0061ZM147.488 41.9158L147.92 42.6825L138.162 48.1803L137.73 47.4136L147.488 41.9158ZM152.877 52.2418L153.177 53.0691L142.648 56.8863L142.348 56.059L152.877 52.2418ZM143.384 58.917L142.511 56.5103L143.339 56.2104L144.211 58.6171C144.447 59.2689 144.767 59.8224 145.171 60.2775C145.577 60.7427 146.04 61.0967 146.56 61.3396C147.089 61.5789 147.661 61.7007 148.275 61.7049C148.903 61.7156 149.553 61.5991 150.225 61.3555C150.896 61.1119 151.465 60.7867 151.93 60.3798C152.409 59.9793 152.77 59.5194 153.013 59.0002C153.266 58.4773 153.399 57.907 153.414 57.2891C153.431 56.6813 153.322 56.0515 153.086 55.3997L152.213 52.9929L153.041 52.693L153.913 55.0997C154.284 56.1226 154.389 57.1001 154.228 58.0322C154.07 58.9743 153.673 59.8046 153.037 60.523C152.415 61.2478 151.577 61.8011 150.524 62.1828C149.472 62.5646 148.469 62.6784 147.517 62.5244C146.578 62.3767 145.747 61.9918 145.022 61.3696C144.301 60.7574 143.755 59.9399 143.384 58.917ZM158.46 71.7819L158.571 72.6549L147.459 74.0608L147.349 73.1878L158.46 71.7819ZM158.875 86.605L158.865 87.485L147.234 87.3571L157.103 78.9531L147.76 78.8504L147.769 77.9704L159.401 78.0983L149.5 86.502L158.875 86.605ZM155.559 99.8409L156.438 100.084L156.319 103.637L145.401 100.617L145.635 99.7688L155.52 102.503L155.559 99.8409ZM148.548 113.6C149.076 113.829 149.595 113.921 150.103 113.874C150.608 113.837 151.062 113.674 151.467 113.384C151.871 113.094 152.184 112.695 152.405 112.186C152.626 111.677 152.703 111.176 152.638 110.683C152.573 110.19 152.384 109.741 152.071 109.338C151.753 108.945 151.33 108.633 150.802 108.404C150.293 108.183 149.789 108.098 149.29 108.149C148.791 108.201 148.341 108.366 147.941 108.646C147.536 108.935 147.232 109.315 147.029 109.785C146.795 110.323 146.716 110.841 146.791 111.338C146.861 111.846 147.05 112.294 147.358 112.683C147.662 113.082 148.058 113.388 148.548 113.6ZM143.035 107.25L143.475 106.237L146.588 111.564L146.518 111.604C146.331 111.232 146.241 110.85 146.248 110.458C146.265 110.07 146.365 109.665 146.548 109.245C146.73 108.824 146.985 108.464 147.313 108.164C147.636 107.874 148.006 107.651 148.423 107.494C148.845 107.352 149.286 107.287 149.745 107.301C150.214 107.318 150.679 107.427 151.139 107.626C151.824 107.923 152.364 108.326 152.76 108.835C153.151 109.353 153.383 109.931 153.456 110.567C153.529 111.203 153.423 111.849 153.139 112.505C152.85 113.17 152.451 113.689 151.941 114.06C151.426 114.442 150.848 114.662 150.207 114.721C149.561 114.79 148.895 114.675 148.21 114.378C147.789 114.196 147.415 113.946 147.087 113.63C146.755 113.323 146.495 113.012 146.306 112.698L143.035 107.25ZM142.914 123.49C143.401 123.798 143.899 123.969 144.408 124.002C144.912 124.044 145.387 123.954 145.832 123.731C146.276 123.508 146.647 123.163 146.945 122.694C147.242 122.226 147.397 121.743 147.41 121.246C147.422 120.749 147.305 120.276 147.059 119.829C146.806 119.391 146.437 119.017 145.951 118.708C145.483 118.411 144.998 118.249 144.497 118.221C143.997 118.194 143.527 118.287 143.088 118.501C142.643 118.724 142.283 119.052 142.009 119.484C141.694 119.979 141.535 120.478 141.532 120.981C141.522 121.494 141.639 121.966 141.883 122.398C142.12 122.84 142.464 123.204 142.914 123.49ZM138.459 116.358L139.051 115.426L141.296 121.173L141.221 121.201C141.094 120.805 141.065 120.413 141.133 120.027C141.21 119.647 141.372 119.263 141.618 118.876C141.864 118.488 142.172 118.172 142.542 117.927C142.907 117.691 143.307 117.529 143.743 117.439C144.183 117.364 144.628 117.369 145.08 117.454C145.54 117.544 145.982 117.724 146.405 117.992C147.036 118.393 147.507 118.875 147.818 119.439C148.124 120.012 148.263 120.619 148.236 121.259C148.208 121.898 148.003 122.52 147.62 123.123C147.231 123.736 146.756 124.186 146.194 124.473C145.627 124.77 145.021 124.897 144.378 124.855C143.73 124.822 143.09 124.606 142.46 124.205C142.073 123.96 141.742 123.655 141.467 123.291C141.187 122.936 140.978 122.589 140.841 122.248L138.459 116.358ZM136.525 128.616L136.958 128.997C136.718 129.269 136.533 129.561 136.401 129.871C136.27 130.182 136.195 130.493 136.177 130.804C136.152 131.123 136.194 131.423 136.302 131.703C136.412 131.998 136.59 132.255 136.839 132.474C137.127 132.727 137.447 132.896 137.8 132.979C138.154 133.078 138.509 133.07 138.865 132.957C139.221 132.859 139.551 132.638 139.854 132.293C140.298 131.789 140.505 131.247 140.476 130.667C140.447 130.087 140.2 129.592 139.736 129.183L140.296 128.547C140.736 128.934 141.036 129.369 141.195 129.85C141.347 130.339 141.364 130.837 141.245 131.343C141.127 131.865 140.867 132.354 140.465 132.81C140.042 133.29 139.579 133.607 139.074 133.76C138.563 133.921 138.066 133.945 137.583 133.832C137.092 133.727 136.655 133.506 136.271 133.167C135.862 132.808 135.607 132.363 135.506 131.833C135.397 131.311 135.43 130.764 135.605 130.194C135.782 129.639 136.088 129.113 136.525 128.616ZM131.861 125.149C132.22 124.741 132.605 124.426 133.014 124.203C133.416 123.989 133.823 123.857 134.236 123.808C134.649 123.774 135.049 123.821 135.435 123.947C135.829 124.081 136.19 124.292 136.518 124.581L135.926 125.254C135.598 124.965 135.235 124.78 134.837 124.699C134.439 124.634 134.034 124.682 133.621 124.845C133.217 125.014 132.838 125.299 132.485 125.699C132.147 126.083 131.927 126.479 131.824 126.886C131.722 127.308 131.733 127.708 131.855 128.086C131.978 128.479 132.212 128.826 132.556 129.13C132.86 129.397 133.185 129.562 133.529 129.623C133.873 129.7 134.221 129.693 134.57 129.602C134.913 129.52 135.236 129.379 135.541 129.178C135.853 128.984 136.13 128.751 136.369 128.479L136.802 128.86C136.477 129.228 136.116 129.542 135.716 129.802C135.318 130.076 134.9 130.269 134.461 130.38C134.03 130.498 133.596 130.507 133.159 130.406C132.715 130.314 132.292 130.091 131.892 129.739C131.436 129.337 131.134 128.872 130.987 128.345C130.833 127.826 130.829 127.289 130.976 126.736C131.122 126.183 131.417 125.654 131.861 125.149ZM120.724 140.184L121.135 140.852L118.408 142.528L117.998 141.86L120.724 140.184ZM99.3479 147.293L97.8352 157.549L96.8727 157.789L98.8518 145.306L106.466 155.394L105.504 155.634L99.3479 147.293ZM90.9951 147.408L91.062 148.238L85.528 148.684L85.4611 147.855L90.9951 147.408ZM91.8288 157.743L91.8957 158.572L86.3617 159.019L86.2948 158.189L91.8288 157.743ZM91.4557 153.118L91.5226 153.947L86.3075 154.368L86.2406 153.539L91.4557 153.118ZM92.3582 158.535L91.4811 158.606L90.5805 147.442L91.4576 147.371L92.3582 158.535ZM81.075 159.165L80.1962 159.119L80.7464 148.765L76.1289 148.52L76.173 147.689L81.6693 147.981L81.075 159.165ZM72.3472 152.748C72.5484 151.842 72.5361 150.987 72.3103 150.183C72.0741 149.377 71.6638 148.69 71.0795 148.123C70.4824 147.565 69.7465 147.188 68.8718 146.994C67.9971 146.8 67.1762 146.831 66.4092 147.087C65.6294 147.351 64.9672 147.799 64.4224 148.432C63.8776 149.065 63.5046 149.834 63.3034 150.74C63.1 151.657 63.1123 152.512 63.3404 153.305C63.5661 154.109 63.9776 154.791 64.5747 155.349C65.1591 155.916 65.8886 156.297 66.7633 156.491C67.638 156.685 68.4652 156.65 69.245 156.386C70.012 156.13 70.6731 155.687 71.2283 155.057C71.7708 154.434 72.1438 153.665 72.3472 152.748ZM73.2532 152.949C73.0752 153.751 72.7756 154.46 72.3546 155.077C71.9313 155.704 71.4194 156.213 70.819 156.605C70.2163 157.006 69.5558 157.275 68.8373 157.41C68.1085 157.543 67.3535 157.523 66.5726 157.35C65.7916 157.177 65.1043 156.876 64.5107 156.45C63.9067 156.021 63.4166 155.497 63.0405 154.878C62.662 154.269 62.4137 153.591 62.2956 152.844C62.1751 152.107 62.2039 151.337 62.3819 150.536C62.5599 149.734 62.8606 149.019 63.2839 148.392C63.7049 147.775 64.2168 147.266 64.8195 146.865C65.4199 146.474 66.0845 146.211 66.8134 146.078C67.5318 145.943 68.2815 145.962 69.0625 146.135C69.8435 146.308 70.536 146.61 71.14 147.039C71.7336 147.466 72.2196 147.983 72.5981 148.592C72.9742 149.211 73.2225 149.889 73.343 150.626C73.4611 151.373 73.4312 152.148 73.2532 152.949ZM56.6161 148.309L55.7166 147.93L54.2659 141.521L55.2687 141.943L56.6161 148.309ZM56.0985 154.445L55.2874 154.104L59.6336 143.781L60.4446 144.123L56.0985 154.445ZM55.9751 153.542L55.6708 154.265L53.7391 153.452C53.0706 153.17 52.5255 152.802 52.1038 152.346C51.6723 151.887 51.3973 151.372 51.2788 150.801C51.1603 150.231 51.2355 149.626 51.5046 148.987C51.7695 148.357 52.1495 147.881 52.6447 147.557C53.1398 147.233 53.7025 147.065 54.3327 147.053C54.949 147.046 55.5913 147.183 56.2598 147.465L58.1916 148.278L57.8874 149.001L55.9556 148.187C55.4346 147.968 54.9373 147.857 54.4639 147.854C53.9765 147.857 53.5494 147.978 53.1825 148.218C52.8116 148.466 52.5226 148.837 52.3156 149.328C52.1087 149.82 52.0528 150.282 52.148 150.716C52.2334 151.145 52.4404 151.533 52.7689 151.88C53.0975 152.227 53.5223 152.51 54.0433 152.729L55.9751 153.542ZM48.9015 142.901L48.216 143.454L43.835 140.712L44.0322 139.854L48.9015 142.901ZM43.3894 146.341L48.0432 143.006L48.2265 142.894L51.8318 140.299L52.6728 140.825L42.3115 148.064L44.2905 135.58L45.1314 136.107L44.3948 140.421L44.3523 140.64L43.3894 146.341ZM29.4236 137.752L28.8135 137.118L36.2847 129.929L33.0787 126.597L33.6783 126.021L37.4944 129.987L29.4236 137.752ZM19.4567 125.873L18.8345 125.019L25.0909 124.556L27.7428 118.227L28.3649 119.08L25.9883 124.457L31.8811 123.902L32.5033 124.756L25.6188 125.28L23.2179 131.031L22.5958 130.178L24.7249 125.358L19.4567 125.873ZM16.3045 120.967L15.9056 120.183L22.6657 116.745C23.4644 116.339 23.995 115.806 24.2577 115.146C24.5203 114.486 24.4558 113.771 24.0642 113C23.6726 112.23 23.1327 111.757 22.4445 111.58C21.7564 111.404 21.013 111.519 20.2143 111.925L13.4542 115.362L13.0553 114.578L19.8154 111.14C20.3098 110.889 20.8025 110.728 21.2934 110.658C21.7747 110.593 22.2329 110.623 22.6679 110.749C23.1028 110.875 23.5074 111.094 23.8816 111.406C24.2415 111.714 24.5496 112.119 24.8058 112.623C25.0621 113.127 25.2109 113.62 25.2524 114.102C25.2795 114.578 25.2158 115.03 25.0612 115.455C24.9067 115.881 24.6613 116.269 24.325 116.619C23.9792 116.975 23.559 117.278 23.0646 117.53L16.3045 120.967ZM15.8053 105.791L15.5054 104.862L19.416 99.5814L19.7503 100.617L15.8053 105.791ZM10.8175 109.402L10.5472 108.565L21.2054 105.124L21.4758 105.961L10.8175 109.402ZM11.421 108.72L10.675 108.961L10.031 106.966C9.80813 106.276 9.73166 105.622 9.80159 105.006C9.86823 104.379 10.0791 103.834 10.4343 103.372C10.7895 102.91 11.297 102.573 11.9568 102.36C12.6065 102.15 13.2155 102.127 13.7841 102.291C14.3526 102.455 14.8472 102.771 15.2678 103.241C15.6749 103.704 15.9899 104.28 16.2128 104.97L16.8568 106.965L16.1107 107.206L15.4667 105.211C15.293 104.673 15.0527 104.224 14.7458 103.863C14.4254 103.496 14.055 103.251 13.6345 103.129C13.2038 103.011 12.7347 103.033 12.2272 103.197C11.7197 103.361 11.3326 103.62 11.0662 103.975C10.7964 104.32 10.6374 104.73 10.589 105.205C10.5407 105.681 10.6034 106.187 10.7771 106.725L11.421 108.72ZM6.66419 92.4787L6.50416 91.4997L13.6164 94.147L18.164 93.4037L18.306 94.2722L13.7741 95.0129L7.8489 99.7265L7.68887 98.7475L12.8991 94.7182L6.66419 92.4787ZM13.9615 80.5548C14.4436 80.4109 14.8861 80.2265 15.2891 80.0015C15.6929 79.7658 16.0268 79.4658 16.291 79.1015C16.5445 78.7363 16.6922 78.2878 16.7341 77.7562C16.7912 77.0331 16.6389 76.454 16.2773 76.0188C15.906 75.5723 15.4119 75.3246 14.7952 75.276C14.2528 75.2332 13.8072 75.3211 13.4583 75.5397C13.1093 75.7582 12.8183 76.0563 12.5853 76.4338C12.3424 76.7998 12.1244 77.1892 11.9314 77.602C11.7892 77.9118 11.6246 78.2358 11.4374 78.5742C11.2404 78.901 11.0132 79.2041 10.7558 79.4834C10.4877 79.7618 10.176 79.9833 9.82062 80.1479C9.46609 80.3018 9.04956 80.3599 8.57105 80.3222C8.03937 80.2802 7.58155 80.1157 7.19761 79.8286C6.80303 79.5407 6.51212 79.1593 6.32488 78.6844C6.12701 78.2087 6.05072 77.6838 6.09602 77.1096C6.143 76.5141 6.29491 76.0125 6.55177 75.6048C6.80947 75.1864 7.11978 74.8471 7.48271 74.5868C7.84563 74.3265 8.21374 74.1362 8.58702 74.0159L8.95729 74.8155C8.66095 74.9098 8.36574 75.0577 8.07165 75.2592C7.7784 75.4501 7.52839 75.7032 7.32161 76.0186C7.1042 76.3331 6.97621 76.735 6.93762 77.2241C6.88645 77.8728 7.01717 78.386 7.32976 78.7637C7.63172 79.1406 8.03259 79.3488 8.53237 79.3882C8.94709 79.4209 9.31128 79.348 9.62496 79.1695C9.93864 78.9909 10.2337 78.7092 10.5102 78.3245C10.776 77.9388 11.0387 77.4567 11.2983 76.878C11.4396 76.5788 11.6084 76.2711 11.8045 75.9549C12.0006 75.6387 12.2368 75.3577 12.513 75.112C12.79 74.8557 13.116 74.6567 13.491 74.5151C13.8553 74.3726 14.282 74.3207 14.7712 74.3593C15.2284 74.3953 15.6364 74.5131 15.9952 74.7126C16.3548 74.9015 16.6611 75.1557 16.914 75.4752C17.1572 75.7833 17.3378 76.1399 17.4556 76.5451C17.5628 76.9495 17.5984 77.3803 17.5623 77.8375C17.5111 78.4862 17.3333 79.0446 17.0289 79.5128C16.7245 79.9809 16.3359 80.3622 15.8633 80.6567C15.3907 80.9511 14.8868 81.1681 14.3514 81.3078L13.9615 80.5548ZM7.72311 70.2795L6.90833 70.1111L8.27807 63.4831L9.09285 63.6515L8.49703 66.5346L18.6505 68.6329L18.4724 69.4947L8.31893 67.3964L7.72311 70.2795ZM16.4185 62.483L15.7283 61.9364L17.4348 57.0583L18.3153 57.0612L16.4185 62.483ZM11.8465 57.8663L16.1269 61.6691L16.2764 61.8231L19.603 64.7667L19.2754 65.7031L9.92853 57.1953L22.5406 56.3697L22.213 57.3061L17.8426 57.54L17.6199 57.5469L11.8465 57.8663ZM16.3049 44.2087L16.7738 43.3345L20.8052 49.7642L24.8657 51.9426L24.4497 52.7181L20.4032 50.5472L12.833 50.6802L13.302 49.806L19.8884 49.7808L16.3049 44.2087ZM25.5774 44.3057C26.0618 44.4416 26.5345 44.5221 26.9953 44.5471C27.4625 44.5636 27.9051 44.4884 28.323 44.3214C28.7324 44.1481 29.0968 43.8479 29.4163 43.4209C29.8507 42.8401 30.0314 42.2692 29.9581 41.7082C29.8827 41.1323 29.5973 40.659 29.1019 40.2885C28.6663 39.9626 28.2427 39.7989 27.8309 39.7973C27.4192 39.7956 27.014 39.8921 26.6153 40.0868C26.2144 40.2665 25.8222 40.4792 25.4385 40.7251C25.1529 40.911 24.8406 41.097 24.5016 41.283C24.1605 41.4541 23.8065 41.589 23.4397 41.6876C23.0643 41.7798 22.6825 41.8005 22.2942 41.7498C21.9122 41.6906 21.5291 41.5172 21.1447 41.2297C20.7176 40.9102 20.4185 40.5266 20.2473 40.0788C20.0675 39.6246 20.0253 39.1468 20.1207 38.6453C20.2075 38.1375 20.4234 37.653 20.7684 37.1917C21.1262 36.7134 21.5226 36.3705 21.9576 36.163C22.3989 35.947 22.8425 35.8259 23.2883 35.7998C23.7341 35.7736 24.147 35.8093 24.5268 35.907L24.4127 36.7807C24.1118 36.7022 23.7833 36.6695 23.427 36.6828C23.0771 36.6875 22.7306 36.7679 22.3873 36.9241C22.0355 37.0739 21.7126 37.3452 21.4187 37.7381C21.029 38.2591 20.8654 38.7628 20.9278 39.2491C20.9818 39.7291 21.2095 40.1192 21.6109 40.4195C21.944 40.6687 22.2908 40.8016 22.6514 40.8182C23.012 40.8348 23.4119 40.7543 23.8511 40.5767C24.2818 40.3926 24.7615 40.1254 25.2901 39.7748C25.5693 39.5974 25.8763 39.4274 26.2111 39.2649C26.5458 39.1023 26.8955 38.991 27.2602 38.9308C27.6313 38.862 28.0132 38.868 28.4059 38.9485C28.79 39.0227 29.1784 39.2068 29.5714 39.5007C29.9386 39.7754 30.2206 40.0929 30.4173 40.4532C30.6205 40.8049 30.7436 41.1835 30.7868 41.5887C30.8278 41.9791 30.7899 42.377 30.6731 42.7825C30.5477 43.1816 30.3477 43.5648 30.0729 43.932C29.6832 44.4531 29.2346 44.8302 28.7271 45.0633C28.2197 45.2965 27.6876 45.4113 27.1308 45.4077C26.574 45.4042 26.032 45.3185 25.5048 45.1506L25.5774 44.3057ZM44.9536 24.5861L44.5403 23.9199L47.2595 22.2329L47.6728 22.8991L44.9536 24.5861Z" fill="white"/>
</svg>
