<svg width="118" height="57" viewBox="0 0 118 57" fill="none" xmlns="http://www.w3.org/2000/svg">
<path d="M106.558 3.99543C107.658 5.6405 108.715 7.66989 108.195 9.8447C106.402 8.81842 104.96 7.14282 103.817 5.48865C102.665 3.82336 101.469 2.05255 101.059 0C103.321 0.578485 105.346 2.18432 106.558 3.99543Z" fill="white"/>
<path d="M9.34742 9.84129C8.82919 7.66607 9.88788 5.63749 10.9906 3.99336C12.2045 2.18331 14.2299 0.578954 16.4919 0.0020752C16.0809 2.05423 14.8832 3.82437 13.7304 5.48858C12.5853 7.14195 11.1411 8.81648 9.34742 9.84129Z" fill="white"/>
<path d="M7.77006 14.0134C8.17459 12.2908 8.16562 10.405 7.7805 8.78926C7.44184 7.36929 6.94906 5.362 5.32716 4.68469C4.14822 6.57575 3.67432 9.15095 4.36141 11.0806C4.85821 12.4763 5.75165 14.3217 7.60454 14.6073C9.30478 14.9993 11.024 14.0923 12.3819 13.3435C13.8917 12.511 15.3706 11.1865 16.2691 9.61186C14.6208 8.77989 12.7437 9.45506 11.3315 10.1021C9.80922 10.7996 8.41081 12.2962 7.77006 14.0134Z" fill="white"/>
<path d="M40.7675 15.668V7.01941H37.8148V10.1704H33.3858V7.01941H30.4331V15.668H33.3858V12.5281H37.8148V15.668H40.7675Z" fill="white"/>
<path d="M50.5575 7.01941H53.8186L49.1914 12.8146V15.668H46.2277V12.8256L41.6555 7.01941H45.0157L47.7481 10.4788L50.5575 7.01941Z" fill="white"/>
<path fill-rule="evenodd" clip-rule="evenodd" d="M64.1031 7.75751C64.687 8.2203 65.0175 9.0026 65.0175 10.1373C65.0175 11.0628 64.7861 11.7568 64.3454 12.2417C63.7505 12.9248 62.77 13.2332 61.492 13.2443C61.0953 13.2553 57.702 13.2443 57.702 13.2443V15.668H54.7383V7.01941H61.4479C62.6377 7.01941 63.5412 7.26179 64.1031 7.75751ZM61.9106 10.8094C61.9988 10.6552 62.0429 10.4568 62.0429 10.1814C62.0429 9.89497 61.9877 9.65259 61.8886 9.52042C61.7013 9.24497 61.3487 9.11267 60.7758 9.11267H57.68V11.228H60.7537C61.3708 11.228 61.7343 11.0849 61.9106 10.8094Z" fill="white"/>
<path d="M75.3071 13.5196V15.668H66.1968V7.01941H75.2308V9.17882H69.1053V10.2916H75.054V12.3958H69.1053V13.5196H75.3071Z" fill="white"/>
<path fill-rule="evenodd" clip-rule="evenodd" d="M86.369 7.90141C86.7667 8.30902 86.9529 8.87091 86.9529 9.6532C86.9529 10.3253 86.7882 10.8981 86.5123 11.2838C86.2043 11.7024 85.7303 12.055 85.1464 12.1431L87.7577 15.6686H84.4742L82.3263 12.6169H79.6495V15.6686H76.7075V7.02002H83.5931C84.959 7.02002 85.8521 7.35051 86.369 7.90141ZM83.9895 10.3803C84.0671 10.2482 84.0886 10.0718 84.0886 9.92865C84.0886 9.76341 84.0671 9.58705 83.9895 9.47684C83.8355 9.19041 83.5275 9.11328 83.0642 9.11328H79.6602V10.6888H83.1191C83.5931 10.6888 83.8797 10.6007 83.9895 10.3803Z" fill="white"/>
<path d="M73.7291 26.5165C73.7291 24.5396 72.4731 23.5006 69.5438 23.1831C69.0676 23.1254 67.6678 22.9811 66.7875 22.9089C64.5219 22.6636 63.8438 22.5338 63.8438 21.9565C63.8438 21.4371 64.3777 21.1918 66.4123 21.1918C67.8554 21.1918 68.6636 21.4659 68.9809 21.8843C69.1397 22.0864 69.1975 22.2451 69.2119 22.4039H73.3679C73.3245 22.0575 73.1803 21.5669 72.9493 21.1341C72.199 19.6909 70.3951 18.5365 66.5134 18.5365C62.1409 18.5365 59.7455 20.0806 59.7455 22.1009C59.7455 24.049 61.1019 25.1889 64.7672 25.5209C65.1817 25.5564 66.0718 25.6405 66.8005 25.7093L66.8455 25.7136L66.8537 25.7144L66.8569 25.7147L67.2494 25.7518C69.1685 25.9538 69.6881 26.0836 69.6881 26.6898C69.6881 27.2525 69.183 27.5555 67.0618 27.5555C65.4167 27.5555 64.4499 27.3102 64.1034 26.8917C63.9592 26.7186 63.8581 26.4588 63.8293 26.2857H59.6733C59.7166 26.5742 59.7888 27.0361 59.9474 27.4113C60.6546 28.9986 62.5018 30.2108 66.7875 30.2108C71.3909 30.2108 73.7291 28.912 73.7291 26.5165Z" fill="white"/>
<path fill-rule="evenodd" clip-rule="evenodd" d="M44.2673 28.8829C44.7003 28.3778 44.9166 27.6129 44.9166 26.8337C44.9166 26.1699 44.7435 25.5349 44.3828 25.1165C43.9498 24.5537 43.1849 24.1497 42.3769 24.0487C42.9253 23.9765 43.4447 23.6879 43.7478 23.3127C44.123 22.8653 44.2961 22.2593 44.2961 21.5233C44.2961 20.7873 44.0797 20.138 43.5891 19.6474C43.0407 19.0846 42.045 18.7094 40.4865 18.7094H30.7026V30.0374H40.7607C42.3625 30.0374 43.6035 29.6909 44.2673 28.8829ZM40.2845 22.2016C40.2845 22.4758 40.1978 22.7067 40.0536 22.8653C39.8515 23.0529 39.4763 23.1251 38.9857 23.1251H34.4834V21.278H38.8847C39.4331 21.278 39.8083 21.3502 40.0102 21.5378C40.1978 21.6965 40.2845 21.9273 40.2845 22.2016ZM40.7174 27.1657C40.4865 27.3821 40.0824 27.4687 39.4042 27.4687H34.4834V25.5783H39.4475C40.0824 25.5783 40.4576 25.6648 40.674 25.8524C40.8473 26.0256 40.9193 26.2421 40.9193 26.5307C40.9193 26.8049 40.8616 27.0213 40.7174 27.1657Z" fill="white"/>
<path d="M58.5038 27.2234V30.0374H46.5698V18.7094H58.4028V21.5378H50.3794V22.9952H58.1719V25.7515H50.3794V27.2234H58.5038Z" fill="white"/>
<path d="M87.7693 21.5522V18.7094H74.2485V21.5522H79.0251V30.0374H82.978V21.5522H87.7693Z" fill="white"/>
<path d="M87.4282 40.0615H86.7922L86.7466 39.4489C86.5525 39.7589 86.1414 40.131 85.2736 40.131C83.8073 40.131 83.1257 39.2472 83.1257 36.9907C83.1257 35.2461 83.5596 33.8428 85.35 33.8428C86.902 33.8428 87.3747 34.8586 87.3974 35.9518H86.6221C86.5993 35.2385 86.2806 34.5795 85.366 34.5795C84.2653 34.5795 83.9466 35.2386 83.9466 37.0143C83.9466 38.8674 84.343 39.4489 85.3821 39.4489C86.1106 39.4489 86.5364 39.0458 86.677 38.5651V37.4097H85.1103V36.7039H87.4202V38.4875C87.4202 39.0204 87.4255 39.5889 87.4269 39.8748L87.4282 40.011V40.0615Z" fill="white"/>
<path fill-rule="evenodd" clip-rule="evenodd" d="M30.8493 38.5185H33.0204L33.47 40.0616H34.292L32.493 33.9207H31.4929L29.5698 40.0616H30.384L30.8493 38.5185ZM32.8265 37.8285H31.0586C31.0586 37.8285 31.8262 35.3473 31.8417 35.2931C31.8495 35.2542 31.9736 34.7038 31.9736 34.7038L32.0595 35.111L32.0976 35.2931C32.1054 35.3318 32.8265 37.8285 32.8265 37.8285Z" fill="white"/>
<path d="M40.176 33.9203H40.9204L39.4704 40.0612H38.5477C38.5477 40.0612 37.5164 35.285 37.5164 35.0833C37.5087 35.285 36.4541 40.0612 36.4541 40.0612H35.5315L34.0815 33.9203H34.9189C34.9189 33.9203 36.0432 38.7818 36.0432 38.9757C36.0432 38.7818 37.0745 33.9203 37.0745 33.9203H37.9972C37.9972 33.9203 39.0284 38.7896 39.0284 38.9757C39.0284 38.7896 40.176 33.9203 40.176 33.9203Z" fill="white"/>
<path fill-rule="evenodd" clip-rule="evenodd" d="M44.105 38.5182H41.9339L41.4687 40.0612H40.6545L42.5775 33.9203H43.5778L45.3767 40.0612H44.5548L44.105 38.5182ZM42.1433 37.8281H43.9112C43.9112 37.8281 43.1901 35.3314 43.1823 35.2927L43.1237 35.0133L43.0582 34.7034C43.0582 34.7034 42.9342 35.2539 42.9264 35.2927C42.9109 35.347 42.1433 37.8281 42.1433 37.8281Z" fill="white"/>
<path fill-rule="evenodd" clip-rule="evenodd" d="M48.3638 33.9203C49.3098 33.9203 49.8216 34.3622 49.8216 35.6493C49.8216 36.7427 49.4106 37.107 48.9841 37.231L50.1628 40.0612H49.3098L48.2165 37.3863H46.7279V40.0612H45.9524V33.9203H48.3638ZM48.2476 36.6883C48.8601 36.6883 49.0074 36.3704 49.0074 35.6726C49.0074 34.8818 48.7748 34.6414 48.2088 34.6414H46.7355V36.6883H48.2476Z" fill="white"/>
<path fill-rule="evenodd" clip-rule="evenodd" d="M54.9843 36.89C54.9843 38.3399 54.8759 38.9291 54.5657 39.3712C54.2556 39.7977 53.7671 40.0612 52.9761 40.0612H50.8672V33.9203H52.9219C53.6973 33.9203 54.3021 34.1529 54.5813 34.5716C54.8914 35.0213 54.9843 35.5796 54.9843 36.89ZM52.8134 39.3323C53.2864 39.3323 53.6818 39.2083 53.8834 38.9369C54.1006 38.6423 54.1625 38.0452 54.1625 36.89C54.1625 35.9208 54.1082 35.4012 53.8834 35.0678C53.6741 34.7809 53.2709 34.6568 52.7979 34.6568H51.6503V39.3323H52.8134Z" fill="white"/>
<path d="M63.1653 33.9207H63.9096L62.4597 40.0616H61.5369C61.5369 40.0616 60.5057 35.2853 60.5057 35.0837C60.4979 35.2853 59.4434 40.0616 59.4434 40.0616H58.5208L57.0708 33.9207H57.9081C57.9081 33.9207 59.0324 38.7822 59.0324 38.9761C59.0324 38.7822 60.0637 33.9207 60.0637 33.9207H60.9864C60.9864 33.9207 62.0177 38.79 62.0177 38.9761C62.0177 38.79 63.1653 33.9207 63.1653 33.9207Z" fill="white"/>
<path d="M65.2817 33.9207V40.0616H64.4753V33.9207H65.2817Z" fill="white"/>
<path d="M70.329 33.9207V40.0616H69.4373L67.1499 35.3007V40.0616H66.3977V33.9207H67.336L69.5691 38.6116V33.9207H70.329Z" fill="white"/>
<path d="M75.3547 33.9207V40.0616H74.4628L72.1765 35.3007V40.0616H71.4243V33.9207H72.3626L74.5954 38.6116V33.9207H75.3547Z" fill="white"/>
<path d="M77.2605 33.9207V40.0616H76.4543V33.9207H77.2605Z" fill="white"/>
<path d="M82.307 33.9207V40.0616H81.4152L79.1281 35.3007V40.0616H78.3755V33.9207H79.3142L81.5478 38.6116V33.9207H82.307Z" fill="white"/>
<path d="M39.5787 52.1642L38.6902 49.4296L37.8016 52.1642H34.9263L37.2524 53.8544L36.3639 56.5891L38.6902 54.8989L41.0164 56.5891L40.1278 53.8544L42.4541 52.1642H39.5787Z" fill="white"/>
<path d="M49.8532 52.1654L48.9465 49.4307L48.0398 52.1654H45.1057L47.4795 53.8554L46.5728 56.5901L48.9465 54.9L51.3203 56.5901L50.4136 53.8554L52.7872 52.1654H49.8532Z" fill="white"/>
<path d="M60.0294 52.1656L59.1227 49.4309L58.216 52.1656H55.282L57.6556 53.8557L56.7489 56.5903L59.1227 54.9003L61.4964 56.5903L60.5897 53.8557L62.9635 52.1656H60.0294Z" fill="white"/>
<path d="M70.2065 52.1656L69.2998 49.4309L68.3931 52.1656H65.459L67.8327 53.8557L66.926 56.5903L69.2998 54.9003L71.6734 56.5903L70.7667 53.8557L73.1405 52.1656H70.2065Z" fill="white"/>
<path d="M80.4472 52.1656L79.5593 49.4309L78.6702 52.1656H75.7952L78.1212 53.8557L77.2334 56.5903L79.5593 54.9003L81.8853 56.5903L80.9962 53.8557L83.3235 52.1656H80.4472Z" fill="white"/>
<path d="M2.53367 18.6624C3.36979 19.9381 4.66362 21.5359 6.55013 21.4903C8.26563 21.576 9.74773 20.4053 10.9149 19.4281C12.1719 18.3757 13.3065 16.8367 13.7855 15.1729C12.0309 14.6625 10.351 15.6081 9.09828 16.5001C7.79012 17.4317 6.78406 19.1366 6.56793 20.8872C6.55173 19.1334 6.07703 17.322 5.31174 15.8628C4.61207 14.5288 3.63708 12.7256 1.8976 12.3651C1.21226 14.4408 1.43093 16.9805 2.53367 18.6624Z" fill="white"/>
<path d="M7.10814 28.3604C5.35728 28.6538 3.64941 27.581 2.54024 26.3192C1.11224 24.6946 0.262588 22.5153 0.435866 20.3335C2.23453 20.3792 3.59678 21.934 4.60364 23.1097C5.68803 24.3759 6.57652 26.0419 7.00275 27.7605C6.81528 26.0478 7.39028 24.1984 8.45767 23.0556C9.48796 21.9525 10.9312 20.7502 12.7269 20.9432C12.6882 22.6798 11.8177 24.3344 10.9198 25.5736C10.0829 26.7284 8.79364 28.1568 7.10814 28.3604Z" fill="white"/>
<path d="M3.87411 34.1306C5.48664 35.1804 7.44238 36.2195 9.49774 35.4331C11.1839 34.8365 12.256 33.1392 12.9154 31.5813C13.6138 29.9307 14.0804 28.0273 13.7574 26.2206C11.9045 26.385 10.368 27.7107 9.55198 29.329C8.69884 31.0208 8.53521 33.0345 9.19055 34.8083C8.22226 32.9835 6.80618 31.507 5.30613 30.1428C3.94254 28.9026 1.97837 27.5962 0 27.8419C0.376417 30.2878 1.86896 32.8252 3.87411 34.1306Z" fill="white"/>
<path d="M13.653 42.0462C15.2398 41.0976 15.8784 39.1016 16.1394 37.3912C16.4208 35.5466 16.4087 33.5122 15.6426 31.7623C13.8016 32.2765 12.5379 33.9335 12.1207 35.7484C11.6799 37.6658 12.0519 39.7094 13.1242 41.342C11.6987 39.7066 9.80326 38.3563 7.98679 37.4094C6.23218 36.4948 4.0796 35.3917 1.97241 36.0578C2.98851 38.5377 5.16212 40.8466 7.57114 41.8016C9.43675 42.541 11.7064 43.2723 13.653 42.0462Z" fill="white"/>
<path d="M21.1731 42.6877C21.4059 44.4681 21.3994 46.7264 20.017 48.0968C18.2896 49.8649 15.6162 49.5237 13.5543 49.1347C10.7862 48.6121 7.67011 46.7241 6 44.2102C8.0397 43.0871 10.5343 43.8056 12.5536 44.3871L12.6689 44.4202C14.923 45.0687 17.3251 46.1132 19.334 47.5404C17.7308 46.0918 16.5627 43.9656 16.5055 41.8225C16.4541 39.9057 17.2861 37.8551 19.0765 36.9414C20.3264 38.5819 20.9117 40.6882 21.1731 42.6877Z" fill="white"/>
<path d="M29.1984 53.1389C30.2163 51.2011 29.2077 48.9268 28.404 47.2459C27.4538 45.2587 26.1556 43.2334 24.2976 41.7789C22.5135 43.3165 22.6832 45.5165 23.2136 47.4284C23.8443 49.7018 26.0309 51.6397 28.2951 52.744C25.6728 51.7661 22.8089 51.1792 20.0841 51.0059L19.8082 50.9881C17.6192 50.8455 14.7694 50.6599 13.0251 52.2618C15.6625 54.5039 19.4086 55.7974 22.7102 55.7302C24.9228 55.6852 27.9585 55.4234 29.1984 53.1389Z" fill="white"/>
<path d="M109.772 14.0197C109.133 12.3012 107.735 10.8028 106.214 10.1039C104.801 9.45581 102.925 8.77944 101.277 9.60994C102.174 11.1852 103.651 12.5108 105.16 13.3445C106.517 14.0941 108.235 15.0023 109.935 14.612C111.789 14.3281 112.685 12.4831 113.183 11.0874C113.872 9.15867 113.401 6.58294 112.224 4.69067C110.601 5.36705 110.105 7.3738 109.767 8.79363C109.38 10.4098 109.369 12.2963 109.772 14.0197Z" fill="white"/>
<path d="M108.438 16.5034C109.745 17.4354 110.748 19.1394 110.964 20.8888C110.983 19.1359 111.459 17.3263 112.225 15.8686C112.926 14.535 113.903 12.7326 115.643 12.3733C116.326 14.4497 116.105 16.9893 115 18.6702C114.164 19.9436 112.871 21.538 110.988 21.4953C109.27 21.583 107.786 20.4094 106.619 19.4303C105.363 18.3768 104.23 16.837 103.753 15.1729C105.507 14.6635 107.186 15.6105 108.438 16.5034Z" fill="white"/>
<path d="M110.521 27.772C110.713 26.0578 110.14 24.2045 109.071 23.0594C108.043 21.9555 106.601 20.7522 104.805 20.9438C104.841 22.6805 105.71 24.3359 106.607 25.5757C107.443 26.7307 108.73 28.1591 110.414 28.3649C112.166 28.6615 113.876 27.5893 114.987 26.3276C116.416 24.7042 117.268 22.5255 117.098 20.3435C115.298 20.388 113.935 21.9416 112.926 23.1165C111.839 24.3835 110.949 26.0514 110.521 27.772Z" fill="white"/>
<path d="M107.972 29.3322C108.823 31.025 108.985 33.0391 108.328 34.8123C109.297 32.9878 110.715 31.5123 112.217 30.1489C113.581 28.9097 115.547 27.6051 117.525 27.8521C117.147 30.2978 115.651 32.8342 113.645 34.1379C112.033 35.1851 110.079 36.2221 108.027 35.4389C106.338 34.8434 105.265 33.1426 104.607 31.582C103.909 29.9308 103.444 28.0271 103.77 26.2206C105.622 26.3865 107.157 27.7134 107.972 29.3322Z" fill="white"/>
<path d="M104.394 41.3388C105.465 39.7078 105.838 37.6662 105.401 35.7497C104.985 33.9345 103.723 32.2765 101.881 31.761C101.114 33.5101 101.101 35.5443 101.379 37.3893C101.639 39.0964 102.274 41.0884 103.851 42.0405C105.8 43.2762 108.075 42.5453 109.943 41.8061C112.353 40.8528 114.529 38.5456 115.547 36.0663C113.44 35.3987 111.287 36.5003 109.532 37.4135C107.716 38.3585 105.82 39.7061 104.394 41.3388Z" fill="white"/>
<path d="M96.3366 42.6826C96.1023 44.4626 96.1063 46.7207 97.4883 48.0924C99.213 49.8618 101.887 49.5225 103.949 49.1348C106.719 48.6143 109.836 46.7284 111.509 44.216C109.47 43.0915 106.974 43.8078 104.955 44.3878L104.839 44.421C102.585 45.0675 100.183 46.1098 98.1725 47.5349C99.7768 46.0875 100.946 43.963 101.005 41.8207C101.058 39.9041 100.228 37.8528 98.439 36.9376C97.187 38.5772 96.6004 40.6832 96.3366 42.6826Z" fill="white"/>
<path d="M94.7911 55.7228C92.5789 55.6761 89.5432 55.4122 88.3059 53.1266L88.2885 53.0953C87.3002 51.1634 88.3045 48.9054 89.1053 47.2344C90.0574 45.2478 91.3576 43.2235 93.2163 41.7706C95 43.3094 94.8272 45.5092 94.2956 47.4206C93.6622 49.6936 91.4742 51.6302 89.2084 52.7327C91.8317 51.7567 94.696 51.172 97.421 51.0005L97.6982 50.9829C99.8876 50.842 102.737 50.6588 104.479 52.2617C101.84 54.5015 98.0933 55.7925 94.7911 55.7228Z" fill="white"/>
</svg>
