<svg width="20" height="20" viewBox="0 0 20 20" fill="none" xmlns="http://www.w3.org/2000/svg">
<path d="M5.25 14.6667C5.95833 14.1667 6.69792 13.7708 7.46875 13.4792C8.23958 13.1875 9.08333 13.0417 10 13.0417C10.9167 13.0417 11.7604 13.1875 12.5312 13.4792C13.3021 13.7708 14.0417 14.1667 14.75 14.6667C15.3194 14.0972 15.7812 13.4167 16.1354 12.625C16.4896 11.8333 16.6667 10.9583 16.6667 10C16.6667 8.15278 16.0174 6.57986 14.7188 5.28125C13.4201 3.98264 11.8472 3.33333 10 3.33333C8.15278 3.33333 6.57986 3.98264 5.28125 5.28125C3.98264 6.57986 3.33333 8.15278 3.33333 10C3.33333 10.9583 3.51042 11.8333 3.86458 12.625C4.21875 13.4167 4.68056 14.0972 5.25 14.6667ZM8.3125 9.60417C7.85417 9.14583 7.625 8.58333 7.625 7.91667C7.625 7.25 7.85417 6.6875 8.3125 6.22917C8.77083 5.77083 9.33333 5.54167 10 5.54167C10.6667 5.54167 11.2292 5.77083 11.6875 6.22917C12.1458 6.6875 12.375 7.25 12.375 7.91667C12.375 8.58333 12.1458 9.14583 11.6875 9.60417C11.2292 10.0625 10.6667 10.2917 10 10.2917C9.33333 10.2917 8.77083 10.0625 8.3125 9.60417ZM10 17.25C8.98611 17.25 8.03819 17.0625 7.15625 16.6875C6.27431 16.3125 5.50694 15.7986 4.85417 15.1458C4.20139 14.4931 3.6875 13.7257 3.3125 12.8438C2.9375 11.9618 2.75 11.0139 2.75 10C2.75 8.98611 2.9375 8.03819 3.3125 7.15625C3.6875 6.27431 4.20139 5.50694 4.85417 4.85417C5.50694 4.20139 6.27431 3.6875 7.15625 3.3125C8.03819 2.9375 8.98611 2.75 10 2.75C11.0139 2.75 11.9618 2.9375 12.8438 3.3125C13.7257 3.6875 14.4931 4.20139 15.1458 4.85417C15.7986 5.50694 16.3125 6.27431 16.6875 7.15625C17.0625 8.03819 17.25 8.98611 17.25 10C17.25 11.0139 17.0625 11.9618 16.6875 12.8438C16.3125 13.7257 15.7986 14.4931 15.1458 15.1458C14.4931 15.7986 13.7257 16.3125 12.8438 16.6875C11.9618 17.0625 11.0139 17.25 10 17.25ZM12.3229 16.2396C13.0938 15.9549 13.75 15.5694 14.2917 15.0833C13.75 14.6389 13.1146 14.2847 12.3854 14.0208C11.6562 13.7569 10.8611 13.625 10 13.625C9.13889 13.625 8.34028 13.7535 7.60417 14.0104C6.86806 14.2674 6.23611 14.625 5.70833 15.0833C6.25 15.5694 6.90625 15.9549 7.67708 16.2396C8.44792 16.5243 9.22222 16.6667 10 16.6667C10.7778 16.6667 11.5521 16.5243 12.3229 16.2396ZM11.2708 9.1875C11.6181 8.84028 11.7917 8.41667 11.7917 7.91667C11.7917 7.41667 11.6181 6.99306 11.2708 6.64583C10.9236 6.29861 10.5 6.125 10 6.125C9.5 6.125 9.07639 6.29861 8.72917 6.64583C8.38194 6.99306 8.20833 7.41667 8.20833 7.91667C8.20833 8.41667 8.38194 8.84028 8.72917 9.1875C9.07639 9.53472 9.5 9.70833 10 9.70833C10.5 9.70833 10.9236 9.53472 11.2708 9.1875Z" fill="#635D3B"/>
</svg>
