<svg width="20" height="20" viewBox="0 0 20 20" fill="none" xmlns="http://www.w3.org/2000/svg">
<path d="M4.83333 13.5833H5.41667V12.25H14.5833V13.5833H15.1667V10.8333C15.1667 10.6389 15.1111 10.4271 15 10.1979C14.8889 9.96875 14.7361 9.79167 14.5417 9.66667V8.41667C14.5417 8.05556 14.4236 7.75694 14.1875 7.52083C13.9514 7.28472 13.6528 7.16667 13.2917 7.16667H10.9583C10.7222 7.16667 10.5243 7.21181 10.3646 7.30208C10.2049 7.39236 10.0833 7.51389 10 7.66667C9.91667 7.51389 9.79514 7.39236 9.63542 7.30208C9.47569 7.21181 9.27778 7.16667 9.04167 7.16667H6.70833C6.34722 7.16667 6.04861 7.28472 5.8125 7.52083C5.57639 7.75694 5.45833 8.05556 5.45833 8.41667V9.66667C5.26389 9.79167 5.11111 9.96875 5 10.1979C4.88889 10.4271 4.83333 10.6389 4.83333 10.8333V13.5833ZM5.41667 11.6667V10.8333C5.41667 10.5972 5.49653 10.3993 5.65625 10.2396C5.81597 10.0799 6.01389 10 6.25 10H13.75C13.9861 10 14.184 10.0799 14.3437 10.2396C14.5035 10.3993 14.5833 10.5972 14.5833 10.8333V11.6667H5.41667ZM6.04167 9.41667V8.41667C6.04167 8.22222 6.10417 8.0625 6.22917 7.9375C6.35417 7.8125 6.51389 7.75 6.70833 7.75H9.04167C9.23611 7.75 9.39583 7.8125 9.52083 7.9375C9.64583 8.0625 9.70833 8.22222 9.70833 8.41667V9.41667H6.04167ZM10.2917 9.41667V8.41667C10.2917 8.22222 10.3542 8.0625 10.4792 7.9375C10.6042 7.8125 10.7639 7.75 10.9583 7.75H13.2917C13.4861 7.75 13.6458 7.8125 13.7708 7.9375C13.8958 8.0625 13.9583 8.22222 13.9583 8.41667V9.41667H10.2917ZM4 17.25C3.63889 17.25 3.34028 17.1319 3.10417 16.8958C2.86806 16.6597 2.75 16.3611 2.75 16V4C2.75 3.63889 2.86806 3.34028 3.10417 3.10417C3.34028 2.86806 3.63889 2.75 4 2.75H16C16.3611 2.75 16.6597 2.86806 16.8958 3.10417C17.1319 3.34028 17.25 3.63889 17.25 4V16C17.25 16.3611 17.1319 16.6597 16.8958 16.8958C16.6597 17.1319 16.3611 17.25 16 17.25H4ZM4 16.6667H16C16.1667 16.6667 16.3194 16.5972 16.4583 16.4583C16.5972 16.3194 16.6667 16.1667 16.6667 16V4C16.6667 3.83333 16.5972 3.68056 16.4583 3.54167C16.3194 3.40278 16.1667 3.33333 16 3.33333H4C3.83333 3.33333 3.68056 3.40278 3.54167 3.54167C3.40278 3.68056 3.33333 3.83333 3.33333 4V16C3.33333 16.1667 3.40278 16.3194 3.54167 16.4583C3.68056 16.5972 3.83333 16.6667 4 16.6667Z" fill="#635D3B"/>
</svg>
