<svg width="20" height="20" viewBox="0 0 20 20" fill="none" xmlns="http://www.w3.org/2000/svg">
<path d="M10.9527 9.38229C11.2151 9.11993 11.3463 8.80236 11.3463 8.42958C11.3463 8.05667 11.2151 7.73903 10.9527 7.47667C10.6905 7.21444 10.3729 7.08333 10 7.08333C9.62711 7.08333 9.30954 7.21444 9.04732 7.47667C8.78496 7.73903 8.65378 8.05667 8.65378 8.42958C8.65378 8.80236 8.78496 9.11993 9.04732 9.38229C9.30954 9.64451 9.62711 9.77563 10 9.77563C10.3729 9.77563 10.6905 9.64451 10.9527 9.38229ZM10 16.3975C11.5663 15.0342 12.8045 13.6476 13.7148 12.2379C14.6251 10.8282 15.0802 9.60896 15.0802 8.58021C15.0802 7.05562 14.5976 5.79729 13.6323 4.80521C12.667 3.81326 11.4563 3.31729 10 3.31729C8.54378 3.31729 7.33301 3.81326 6.36774 4.80521C5.40246 5.79729 4.91982 7.05562 4.91982 8.58021C4.91982 9.60896 5.37496 10.8282 6.28524 12.2379C7.19551 13.6476 8.43378 15.0342 10 16.3975ZM10 17.516C8.0417 15.7842 6.56656 14.1691 5.57461 12.6706C4.58253 11.1723 4.08649 9.80882 4.08649 8.58021C4.08649 6.81729 4.66051 5.36319 5.80857 4.21792C6.95649 3.07264 8.35364 2.5 10 2.5C11.6464 2.5 13.0436 3.07264 14.1915 4.21792C15.3395 5.36319 15.9136 6.81729 15.9136 8.58021C15.9136 9.80882 15.4175 11.1723 14.4254 12.6706C13.4335 14.1691 11.9584 15.7842 10 17.516Z" fill="#ECE5D6"/>
</svg>
