<svg width="60" height="60" viewBox="0 0 60 60" fill="none" xmlns="http://www.w3.org/2000/svg">
<path d="M29.125 51.3125C26.8333 50.8542 24.5208 50.0938 22.1875 49.0312C19.8542 47.9688 17.7604 46.4896 15.9063 44.5938C14.0521 42.6979 12.5417 40.3646 11.375 37.5938C10.2083 34.8229 9.625 31.5 9.625 27.625V27.25C9.625 26.8333 9.75 26.5 10 26.25C10.25 26 10.5833 25.875 11 25.875H11.25C12.875 25.875 14.9063 26.3333 17.3438 27.25C19.7813 28.1667 21.7917 29.25 23.375 30.5C23.5 27.7917 24.0417 24.9479 25 21.9688C25.9583 18.9896 27.2292 16.3333 28.8125 14C29.1458 13.5417 29.5417 13.3125 30 13.3125C30.4583 13.3125 30.8542 13.5417 31.1875 14C32.7708 16.3333 34.0417 19.0104 35 22.0312C35.9583 25.0521 36.5 27.9167 36.625 30.625C38.0833 29.5 39.9896 28.4583 42.3438 27.5C44.6979 26.5417 46.7917 26 48.625 25.875L49.125 25.8125C49.5 25.7708 49.8229 25.8854 50.0938 26.1562C50.3646 26.4271 50.4792 26.75 50.4375 27.125L50.375 27.75C50.0833 30.5417 49.5729 33.125 48.8438 35.5C48.1146 37.875 47.0729 40.0312 45.7188 41.9688C44.3646 43.9062 42.6458 45.625 40.5625 47.125C38.4792 48.625 35.9583 49.9167 33 51C32.4583 51.2083 31.8125 51.3333 31.0625 51.375C30.3125 51.4167 29.6667 51.3958 29.125 51.3125ZM31.125 49.875C30.6667 43 28.5938 37.7812 24.9063 34.2188C21.2188 30.6562 16.7083 28.4583 11.375 27.625C11.2917 27.625 11.2917 27.625 11.375 27.625C11.8333 34.6667 13.9688 39.9583 17.7813 43.5C21.5938 47.0417 26.0417 49.1667 31.125 49.875C31.2083 49.9167 31.2083 49.9271 31.125 49.9062C31.0417 49.8854 31.0417 49.875 31.125 49.875ZM25.125 31.875C26.0833 32.6667 26.9896 33.6562 27.8438 34.8438C28.6979 36.0312 29.4167 37.1667 30 38.25C30.5417 37.1667 31.25 36.0312 32.125 34.8438C33 33.6562 33.9167 32.6667 34.875 31.875C34.875 29.2917 34.4479 26.5625 33.5938 23.6875C32.7396 20.8125 31.5417 18.0833 30 15.5C28.4583 18.0833 27.2604 20.8021 26.4063 23.6562C25.5521 26.5104 25.125 29.25 25.125 31.875ZM30.875 40.5C31.375 41.8333 31.7813 43.1458 32.0938 44.4375C32.4063 45.7292 32.6667 47.2917 32.875 49.125C34.9167 48.4167 36.8542 47.4896 38.6875 46.3438C40.5208 45.1979 42.1354 43.7604 43.5313 42.0312C44.9271 40.3021 46.0833 38.2604 47 35.9062C47.9167 33.5521 48.4583 30.7917 48.625 27.625C48.625 27.5417 48.625 27.5417 48.625 27.625C44.5417 28.2083 40.8958 29.6667 37.6875 32C34.4792 34.3333 32.2083 37.1667 30.875 40.5Z" fill="white"/>
</svg>
