<svg width="60" height="60" viewBox="0 0 60 60" fill="none" xmlns="http://www.w3.org/2000/svg">
<path d="M6.625 46.125V44.5C7.66667 44.3333 8.57292 44.0625 9.34375 43.6875L11.6562 42.5625C12.4271 42.1875 13.2708 41.8542 14.1875 41.5625C15.1042 41.2708 16.2188 41.125 17.5312 41.125C18.8438 41.125 19.9896 41.3021 20.9688 41.6562C21.9479 42.0104 22.9062 42.4062 23.8438 42.8438C24.7812 43.2812 25.7292 43.6875 26.6875 44.0625C27.6458 44.4375 28.75 44.625 30 44.625C31.25 44.625 32.3542 44.4375 33.3125 44.0625C34.2708 43.6875 35.2188 43.2812 36.1562 42.8438C37.0938 42.4062 38.0625 42.0104 39.0625 41.6562C40.0625 41.3021 41.2188 41.125 42.5312 41.125C43.8438 41.125 44.9479 41.2708 45.8438 41.5625C46.7396 41.8542 47.5729 42.1875 48.3438 42.5625L50.6562 43.6875C51.4271 44.0625 52.3333 44.3333 53.375 44.5V46.125C52.3333 46 51.4062 45.75 50.5938 45.375L48.1562 44.25C47.3438 43.875 46.5 43.5312 45.625 43.2188C44.75 42.9062 43.7083 42.75 42.5 42.75C41.3333 42.75 40.2708 42.9271 39.3125 43.2812C38.3542 43.6354 37.4062 44.0312 36.4688 44.4688C35.5312 44.9062 34.5521 45.3125 33.5312 45.6875C32.5104 46.0625 31.3333 46.25 30 46.25C28.6667 46.25 27.4896 46.0625 26.4688 45.6875C25.4479 45.3125 24.4688 44.9062 23.5312 44.4688C22.5938 44.0312 21.6562 43.6354 20.7188 43.2812C19.7812 42.9271 18.7188 42.75 17.5312 42.75C16.3438 42.75 15.3021 42.9062 14.4062 43.2188C13.5104 43.5312 12.6562 43.875 11.8438 44.25L9.40625 45.375C8.59375 45.75 7.66667 46 6.625 46.125ZM6.625 37V35.375C7.66667 35.2083 8.57292 34.9375 9.34375 34.5625L11.6562 33.4375C12.4271 33.0625 13.2708 32.7292 14.1875 32.4375C15.1042 32.1458 16.2188 32 17.5312 32C18.8438 32 19.9896 32.1771 20.9688 32.5312C21.9479 32.8854 22.9062 33.2812 23.8438 33.7188C24.7812 34.1562 25.7292 34.5625 26.6875 34.9375C27.6458 35.3125 28.75 35.5 30 35.5C31.25 35.5 32.3542 35.3125 33.3125 34.9375C34.2708 34.5625 35.2188 34.1562 36.1562 33.7188C37.0938 33.2812 38.0625 32.8854 39.0625 32.5312C40.0625 32.1771 41.2083 32 42.5 32C43.8333 32 44.9479 32.1458 45.8438 32.4375C46.7396 32.7292 47.5729 33.0625 48.3438 33.4375L50.6562 34.5625C51.4271 34.9375 52.3333 35.2083 53.375 35.375V37C52.3333 36.875 51.4062 36.625 50.5938 36.25L48.1562 35.125C47.3438 34.75 46.5 34.4062 45.625 34.0938C44.75 33.7812 43.7083 33.625 42.5 33.625C41.3333 33.625 40.2708 33.8021 39.3125 34.1562C38.3542 34.5104 37.4062 34.9062 36.4688 35.3438C35.5312 35.7812 34.5521 36.1875 33.5312 36.5625C32.5104 36.9375 31.3333 37.125 30 37.125C28.6667 37.125 27.4896 36.9375 26.4688 36.5625C25.4479 36.1875 24.4688 35.7812 23.5312 35.3438C22.5938 34.9062 21.6562 34.5104 20.7188 34.1562C19.7812 33.8021 18.7188 33.625 17.5312 33.625C16.3438 33.625 15.3021 33.7812 14.4062 34.0938C13.5104 34.4062 12.6562 34.75 11.8438 35.125L9.40625 36.25C8.59375 36.625 7.66667 36.875 6.625 37ZM6.625 27.875V26.25C7.66667 26.0833 8.57292 25.8125 9.34375 25.4375L11.6562 24.3125C12.4271 23.9375 13.2708 23.6042 14.1875 23.3125C15.1042 23.0208 16.2188 22.875 17.5312 22.875C18.8438 22.875 19.9896 23.0521 20.9688 23.4062C21.9479 23.7604 22.9062 24.1562 23.8438 24.5938C24.7812 25.0312 25.7292 25.4375 26.6875 25.8125C27.6458 26.1875 28.75 26.375 30 26.375C31.25 26.375 32.3542 26.1875 33.3125 25.8125C34.2708 25.4375 35.2188 25.0312 36.1562 24.5938C37.0938 24.1562 38.0625 23.7604 39.0625 23.4062C40.0625 23.0521 41.2083 22.875 42.5 22.875C43.8333 22.875 44.9479 23.0208 45.8438 23.3125C46.7396 23.6042 47.5729 23.9375 48.3438 24.3125L50.6562 25.4375C51.4271 25.8125 52.3333 26.0833 53.375 26.25V27.875C52.3333 27.75 51.4062 27.5 50.5938 27.125L48.1562 26C47.3438 25.625 46.5 25.2812 45.625 24.9688C44.75 24.6562 43.7083 24.5 42.5 24.5C41.3333 24.5 40.2708 24.6771 39.3125 25.0312C38.3542 25.3854 37.4062 25.7812 36.4688 26.2188C35.5312 26.6562 34.5521 27.0625 33.5312 27.4375C32.5104 27.8125 31.3333 28 30 28C28.6667 28 27.4896 27.8125 26.4688 27.4375C25.4479 27.0625 24.4688 26.6562 23.5312 26.2188C22.5938 25.7812 21.6562 25.3854 20.7188 25.0312C19.7812 24.6771 18.7188 24.5 17.5312 24.5C16.3438 24.5 15.3021 24.6562 14.4062 24.9688C13.5104 25.2812 12.6562 25.625 11.8438 26L9.40625 27.125C8.59375 27.5 7.66667 27.75 6.625 27.875ZM6.625 18.75V17.125C7.66667 16.9583 8.57292 16.6875 9.34375 16.3125L11.6562 15.1875C12.4271 14.8125 13.2708 14.4792 14.1875 14.1875C15.1042 13.8958 16.2188 13.75 17.5312 13.75C18.8438 13.75 19.9896 13.9271 20.9688 14.2812C21.9479 14.6354 22.9062 15.0312 23.8438 15.4688C24.7812 15.9062 25.7292 16.3125 26.6875 16.6875C27.6458 17.0625 28.75 17.25 30 17.25C31.25 17.25 32.3542 17.0625 33.3125 16.6875C34.2708 16.3125 35.2188 15.9062 36.1562 15.4688C37.0938 15.0312 38.0625 14.6354 39.0625 14.2812C40.0625 13.9271 41.2083 13.75 42.5 13.75C43.8333 13.75 44.9479 13.8958 45.8438 14.1875C46.7396 14.4792 47.5729 14.8125 48.3438 15.1875L50.6562 16.3125C51.4271 16.6875 52.3333 16.9583 53.375 17.125V18.75C52.3333 18.625 51.4062 18.375 50.5938 18L48.1562 16.875C47.3438 16.5 46.5 16.1562 45.625 15.8438C44.75 15.5312 43.7083 15.375 42.5 15.375C41.3333 15.375 40.2708 15.5521 39.3125 15.9062C38.3542 16.2604 37.4062 16.6562 36.4688 17.0938C35.5312 17.5312 34.5521 17.9375 33.5312 18.3125C32.5104 18.6875 31.3333 18.875 30 18.875C28.6667 18.875 27.4896 18.6875 26.4688 18.3125C25.4479 17.9375 24.4688 17.5312 23.5312 17.0938C22.5938 16.6562 21.6562 16.2604 20.7188 15.9062C19.7812 15.5521 18.7188 15.375 17.5312 15.375C16.3438 15.375 15.3021 15.5312 14.4062 15.8438C13.5104 16.1562 12.6562 16.5 11.8438 16.875L9.40625 18C8.59375 18.375 7.66667 18.625 6.625 18.75Z" fill="white"/>
</svg>
