<svg width="60" height="60" viewBox="0 0 60 60" fill="none" xmlns="http://www.w3.org/2000/svg">
<path d="M5.75 32.5625V30.8125H10.4375C10.4792 25.2292 12.3021 20.5417 15.9062 16.75C19.5104 12.9583 23.9167 10.9583 29.125 10.75V8.25H30.875V10.75C36.0833 10.9583 40.4896 12.9583 44.0938 16.75C47.6979 20.5417 49.5208 25.2292 49.5625 30.8125H54.25V32.5625H5.75ZM12.1875 30.8125H47.8125C47.7708 25.5625 46.0208 21.1875 42.5625 17.6875C39.1042 14.1875 34.9167 12.4375 30 12.4375C25.0833 12.4375 20.8958 14.1875 17.4375 17.6875C13.9792 21.1875 12.2292 25.5625 12.1875 30.8125ZM39.5 32.5625H19.25V47.5H33.875C34.75 47.5 35.5938 47.3542 36.4062 47.0625C37.2188 46.7708 37.9583 46.3333 38.625 45.75L49 37.1875C48.5 36.6458 47.9479 36.2396 47.3438 35.9688C46.7396 35.6979 46.1042 35.5208 45.4375 35.4375C44.7708 35.3958 44.1146 35.4688 43.4688 35.6563C42.8229 35.8438 42.2083 36.1667 41.625 36.625L37.875 39.625H26.75V37.875H37.25L40.5625 35.1875C40.8125 34.9792 40.9792 34.7292 41.0625 34.4375C41.1458 34.1458 41.125 33.8333 41 33.5C40.875 33.1667 40.6771 32.9271 40.4062 32.7813C40.1354 32.6354 39.8333 32.5625 39.5 32.5625ZM17.5 32.5H12C11.4167 32.5 10.9375 32.6875 10.5625 33.0625C10.1875 33.4375 10 33.9167 10 34.5V48C10 48.5833 10.1875 49.0625 10.5625 49.4375C10.9375 49.8125 11.4167 50 12 50H15.5C16.0833 50 16.5625 49.8125 16.9375 49.4375C17.3125 49.0625 17.5 48.5833 17.5 48V32.5ZM15.5 51.8125H12C10.9167 51.8125 10.0208 51.4583 9.3125 50.75C8.60417 50.0417 8.25 49.1458 8.25 48.0625V34.5625C8.25 33.4792 8.60417 32.5833 9.3125 31.875C10.0208 31.1667 10.9167 30.8125 12 30.8125H39.4375C41.5625 30.8125 43.5521 31.2813 45.4062 32.2188C47.2604 33.1563 48.9167 34.4167 50.375 36L51.5625 37.3125L39.75 47.1875C38.9167 47.8542 37.9896 48.375 36.9688 48.75C35.9479 49.125 34.9167 49.3125 33.875 49.3125H19.0625C18.8125 50.0625 18.3646 50.6667 17.7188 51.125C17.0729 51.5833 16.3333 51.8125 15.5 51.8125Z" fill="white"/>
</svg>
