<svg width="60" height="60" viewBox="0 0 60 60" fill="none" xmlns="http://www.w3.org/2000/svg">
<path d="M12.75 51.75L10.4375 43.875C9.77083 43.5833 9.23958 43.1354 8.84375 42.5312C8.44792 41.9271 8.25 41.2292 8.25 40.4375V19.5625C8.25 18.7708 8.45833 18.0729 8.875 17.4688C9.29167 16.8646 9.83333 16.4167 10.5 16.125L12.75 8.25H22.25L24.4375 16.0625C25.1458 16.3542 25.7083 16.8021 26.125 17.4062C26.5417 18.0104 26.75 18.7292 26.75 19.5625V40.4375C26.75 41.2708 26.5417 41.9896 26.125 42.5938C25.7083 43.1979 25.1458 43.6458 24.4375 43.9375L22.25 51.75H12.75ZM14 50H20.9375L22.5 44.1875H12.375L14 50ZM11.875 42.4375H23.125C23.6667 42.4375 24.1146 42.2604 24.4688 41.9062C24.8229 41.5521 25 41.1042 25 40.5625V19.4375C25 18.8958 24.8229 18.4479 24.4688 18.0938C24.1146 17.7396 23.6667 17.5625 23.125 17.5625H11.875C11.3333 17.5625 10.8854 17.7396 10.5312 18.0938C10.1771 18.4479 10 18.8958 10 19.4375V40.5625C10 41.1042 10.1771 41.5521 10.5312 41.9062C10.8854 42.2604 11.3333 42.4375 11.875 42.4375ZM12.4375 15.8125H22.4375L20.9375 10H14L12.4375 15.8125ZM41.1875 51.75C40.1042 51.75 39.2083 51.3958 38.5 50.6875C37.7917 49.9792 37.4375 49.0833 37.4375 48V21.625H36.8125C36.5625 21.625 36.3542 21.5312 36.1875 21.3438C36.0208 21.1562 35.9375 20.9583 35.9375 20.75V18.375C35.9375 18.1667 36.0208 17.9688 36.1875 17.7812C36.3542 17.5938 36.5625 17.5 36.8125 17.5H37.4375V12C37.4375 10.9167 37.7917 10.0208 38.5 9.3125C39.2083 8.60417 40.1042 8.25 41.1875 8.25H48C49.0833 8.25 49.9792 8.60417 50.6875 9.3125C51.3958 10.0208 51.75 10.9167 51.75 12V17.5H52.375C52.625 17.5 52.8333 17.5938 53 17.7812C53.1667 17.9688 53.25 18.1667 53.25 18.375V20.75C53.25 20.9583 53.1667 21.1562 53 21.3438C52.8333 21.5312 52.625 21.625 52.375 21.625H51.75V48C51.75 49.0833 51.3958 49.9792 50.6875 50.6875C49.9792 51.3958 49.0833 51.75 48 51.75H41.1875ZM39.1875 20.4375V48C39.1875 48.5833 39.375 49.0625 39.75 49.4375C40.125 49.8125 40.6042 50 41.1875 50H48C48.5833 50 49.0625 49.8125 49.4375 49.4375C49.8125 49.0625 50 48.5833 50 48V20.4375H39.1875ZM39.1875 18.6875H50V12C50 11.4167 49.8125 10.9375 49.4375 10.5625C49.0625 10.1875 48.5833 10 48 10H41.1875C40.6042 10 40.125 10.1875 39.75 10.5625C39.375 10.9375 39.1875 11.4167 39.1875 12V18.6875Z" fill="white"/>
</svg>
