<svg width="80" height="80" viewBox="0 0 80 80" fill="none" xmlns="http://www.w3.org/2000/svg">
<path d="M48.9999 49.3335C47.611 46.1668 45.1594 44.0974 41.6449 43.1252C38.1305 42.1529 34.4988 41.6668 30.7499 41.6668C27.0277 41.6668 23.3749 42.1529 19.7916 43.1252C16.2083 44.0974 13.7777 46.1668 12.4999 49.3335H48.9999ZM9.58325 51.6668C9.58325 47.1668 11.8055 43.9863 16.2499 42.1252C20.6944 40.2641 25.5277 39.3335 30.7499 39.3335C35.9721 39.3335 40.8055 40.2641 45.2499 42.1252C49.6944 43.9863 51.9166 47.1668 51.9166 51.6668H9.58325ZM9.58325 62.0002V59.6668H51.9166V62.0002H9.58325ZM58.5833 72.3335V70.0002H63.2499L67.9166 25.0002H38.4166L38.0833 22.6668H53.0833V9.3335H55.4166V22.6668H70.4166L65.5833 69.8335C65.4721 70.6113 65.1388 71.2224 64.5833 71.6668C64.0277 72.1113 63.361 72.3335 62.5833 72.3335H58.5833ZM11.2499 72.3335C10.7777 72.3335 10.3819 72.1738 10.0624 71.8543C9.74297 71.5349 9.58325 71.1391 9.58325 70.6668V70.0002H51.9166V70.6668C51.9166 71.1391 51.7569 71.5349 51.4374 71.8543C51.118 72.1738 50.7221 72.3335 50.2499 72.3335H11.2499Z" fill="#987448"/>
</svg>
