<svg width="80" height="80" viewBox="0 0 80 80" fill="none" xmlns="http://www.w3.org/2000/svg">
<path d="M12 56.3333V54H68V56.3333H12ZM14.3333 49C14.3333 42.6111 16.5833 37.125 21.0833 32.5417C25.5833 27.9583 31.1111 25.2778 37.6667 24.5V22.8333C37.6667 22.2222 37.9028 21.6806 38.375 21.2083C38.8472 20.7361 39.3889 20.5 40 20.5C40.6111 20.5 41.1528 20.7361 41.625 21.2083C42.0972 21.6806 42.3333 22.2222 42.3333 22.8333V24.5C48.8889 25.2778 54.4167 27.9583 58.9167 32.5417C63.4167 37.125 65.6667 42.6111 65.6667 49H14.3333ZM16.9167 46.6667H63.0833C62.6389 41.3333 60.1667 36.6944 55.6667 32.75C51.1667 28.8056 45.9444 26.8333 40 26.8333C34.0556 26.8333 28.8333 28.8056 24.3333 32.75C19.8333 36.6944 17.3611 41.3333 16.9167 46.6667Z" fill="#987448"/>
</svg>
