<svg width="80" height="80" viewBox="0 0 80 80" fill="none" xmlns="http://www.w3.org/2000/svg">
<path d="M26.5417 60.1248C22.8472 56.4304 21 51.9443 21 46.6665C21 42.2776 22.3333 38.3748 25 34.9582C27.6667 31.5415 31.1389 29.3054 35.4167 28.2498C34.3056 28.0276 33.2083 27.6804 32.125 27.2082C31.0417 26.7359 30.1111 26.1109 29.3333 25.3332C27.9444 23.9443 27.0417 22.3054 26.625 20.4165C26.2083 18.5276 26 16.6109 26 14.6665C27.8333 14.6665 29.6528 14.8609 31.4583 15.2498C33.2639 15.6387 34.8611 16.4721 36.25 17.7498C37.5278 18.8609 38.4306 20.2082 38.9583 21.7915C39.4861 23.3748 39.8056 25.0276 39.9167 26.7498C40.5833 25.1387 41.3889 23.6109 42.3333 22.1665C43.2778 20.7221 44.3889 19.3609 45.6667 18.0832C45.8889 17.8609 46.1667 17.7498 46.5 17.7498C46.8333 17.7498 47.1111 17.8609 47.3333 18.0832C47.5556 18.3054 47.6667 18.5832 47.6667 18.9165C47.6667 19.2498 47.5556 19.5276 47.3333 19.7498C46.1667 20.9165 45.1389 22.1665 44.25 23.4998C43.3611 24.8332 42.6111 26.2498 42 27.7498C46.8889 28.2498 50.9444 30.3054 54.1667 33.9165C57.3889 37.5276 59 41.7776 59 46.6665C59 51.9443 57.1528 56.4304 53.4583 60.1248C49.7639 63.8193 45.2778 65.6665 40 65.6665C34.7222 65.6665 30.2361 63.8193 26.5417 60.1248ZM51.7917 58.4582C55.0417 55.2082 56.6667 51.2776 56.6667 46.6665C56.6667 42.0554 55.0417 38.1248 51.7917 34.8748C48.5417 31.6248 44.6111 29.9998 40 29.9998C35.3889 29.9998 31.4583 31.6248 28.2083 34.8748C24.9583 38.1248 23.3333 42.0554 23.3333 46.6665C23.3333 51.2776 24.9583 55.2082 28.2083 58.4582C31.4583 61.7082 35.3889 63.3332 40 63.3332C44.6111 63.3332 48.5417 61.7082 51.7917 58.4582Z" fill="#987448"/>
</svg>
