<svg width="20" height="20" viewBox="0 0 20 20" fill="none" xmlns="http://www.w3.org/2000/svg">
<path d="M7.08333 16.9079C6.17097 16.5131 5.37639 15.9772 4.69958 15.3004C4.02278 14.6236 3.48694 13.829 3.09208 12.9167C2.69736 12.0043 2.5 11.0312 2.5 9.9975C2.5 8.96389 2.69736 7.99167 3.09208 7.08083C3.48694 6.17014 4.02278 5.37639 4.69958 4.69958C5.37639 4.02278 6.17097 3.48694 7.08333 3.09208C7.99569 2.69736 8.96875 2.5 10.0025 2.5C11.0361 2.5 12.0083 2.69736 12.9192 3.09208C13.8299 3.48694 14.6236 4.02278 15.3004 4.69958C15.9772 5.37639 16.5131 6.17014 16.9079 7.08083C17.3026 7.99167 17.5 8.96389 17.5 9.9975C17.5 11.0312 17.3026 12.0043 16.9079 12.9167C16.5131 13.829 15.9772 14.6236 15.3004 15.3004C14.6236 15.9772 13.8299 16.5131 12.9192 16.9079C12.0083 17.3026 11.0361 17.5 10.0025 17.5C8.96875 17.5 7.99569 17.3026 7.08333 16.9079ZM10 16.6731C10.4893 16.0449 10.8926 15.4279 11.21 14.8221C11.5272 14.2164 11.7852 13.5385 11.984 12.7885H8.01604C8.23618 13.5812 8.49951 14.2804 8.80604 14.8862C9.11271 15.4919 9.51069 16.0876 10 16.6731ZM8.93917 16.5481C8.55028 16.0898 8.19528 15.5233 7.87417 14.8485C7.55319 14.1738 7.31417 13.4872 7.15708 12.7885H3.96146C4.4391 13.8248 5.11618 14.6747 5.99271 15.3381C6.86938 16.0016 7.85153 16.4049 8.93917 16.5481ZM11.0608 16.5481C12.1485 16.4049 13.1306 16.0016 14.0073 15.3381C14.8838 14.6747 15.5609 13.8248 16.0385 12.7885H12.8429C12.6325 13.4978 12.3667 14.1899 12.0456 14.8646C11.7247 15.5393 11.3964 16.1005 11.0608 16.5481ZM3.62188 11.9552H6.98396C6.9209 11.6133 6.87632 11.2801 6.85021 10.9558C6.82396 10.6317 6.81083 10.3131 6.81083 10C6.81083 9.68694 6.82396 9.36833 6.85021 9.04417C6.87632 8.71986 6.9209 8.38674 6.98396 8.04479H3.62188C3.53104 8.33326 3.46021 8.64764 3.40937 8.98792C3.35868 9.32819 3.33333 9.66556 3.33333 10C3.33333 10.3344 3.35868 10.6718 3.40937 11.0121C3.46021 11.3524 3.53104 11.6667 3.62188 11.9552ZM7.81729 11.9552H12.1827C12.2458 11.6133 12.2903 11.2855 12.3165 10.9719C12.3427 10.6584 12.3558 10.3344 12.3558 10C12.3558 9.66556 12.3427 9.3416 12.3165 9.02812C12.2903 8.71451 12.2458 8.38674 12.1827 8.04479H7.81729C7.75424 8.38674 7.70965 8.71451 7.68354 9.02812C7.65729 9.3416 7.64417 9.66556 7.64417 10C7.64417 10.3344 7.65729 10.6584 7.68354 10.9719C7.70965 11.2855 7.75424 11.6133 7.81729 11.9552ZM13.016 11.9552H16.3781C16.469 11.6667 16.5398 11.3524 16.5906 11.0121C16.6413 10.6718 16.6667 10.3344 16.6667 10C16.6667 9.66556 16.6413 9.32819 16.5906 8.98792C16.5398 8.64764 16.469 8.33326 16.3781 8.04479H13.016C13.0791 8.38674 13.1237 8.71986 13.1498 9.04417C13.176 9.36833 13.1892 9.68694 13.1892 10C13.1892 10.3131 13.176 10.6317 13.1498 10.9558C13.1237 11.2801 13.0791 11.6133 13.016 11.9552ZM12.8429 7.21146H16.0385C15.5502 6.15382 14.8811 5.30396 14.0312 4.66188C13.1814 4.01979 12.1912 3.61111 11.0608 3.43583C11.4497 3.94764 11.7994 4.53285 12.1098 5.19146C12.4202 5.85021 12.6646 6.52354 12.8429 7.21146ZM8.01604 7.21146H11.984C11.7638 6.42951 11.4924 5.72229 11.1698 5.08979C10.8472 4.45729 10.4572 3.86965 10 3.32688C9.54278 3.86965 9.15285 4.45729 8.83021 5.08979C8.50757 5.72229 8.23618 6.42951 8.01604 7.21146ZM3.96146 7.21146H7.15708C7.33542 6.52354 7.57979 5.85021 7.89021 5.19146C8.20063 4.53285 8.55028 3.94764 8.93917 3.43583C7.79806 3.61111 6.80528 4.02243 5.96083 4.66979C5.11625 5.31729 4.44979 6.16451 3.96146 7.21146Z" fill="#ECE5D6"/>
</svg>
