<svg width="24" height="24" viewBox="0 0 24 24" fill="none" xmlns="http://www.w3.org/2000/svg">
<path d="M9.877 10.5077C9.29233 9.92308 9 9.21533 9 8.3845C9 7.55383 9.29233 6.84617 9.877 6.2615C10.4615 5.67683 11.1692 5.3845 12 5.3845C12.8308 5.3845 13.5385 5.67683 14.123 6.2615C14.7077 6.84617 15 7.55383 15 8.3845C15 9.21533 14.7077 9.92308 14.123 10.5077C13.5385 11.0922 12.8308 11.3845 12 11.3845C11.1692 11.3845 10.4615 11.0922 9.877 10.5077ZM5 18.6155V16.9692C5 16.5564 5.12017 16.1702 5.3605 15.8105C5.601 15.451 5.92442 15.1718 6.33075 14.973C7.27442 14.5205 8.21867 14.1811 9.1635 13.9547C10.1083 13.7286 11.0538 13.6155 12 13.6155C12.9462 13.6155 13.8917 13.7286 14.8365 13.9547C15.7813 14.1811 16.7256 14.5205 17.6693 14.973C18.0756 15.1718 18.399 15.451 18.6395 15.8105C18.8798 16.1702 19 16.5564 19 16.9692V18.6155H5ZM6 17.6155H18V16.9692C18 16.7474 17.9285 16.5391 17.7855 16.3442C17.6427 16.1494 17.4449 15.9847 17.1923 15.85C16.3693 15.4513 15.5207 15.1459 14.6465 14.9337C13.7723 14.7216 12.8902 14.6155 12 14.6155C11.1098 14.6155 10.2277 14.7216 9.3535 14.9337C8.47933 15.1459 7.63075 15.4513 6.80775 15.85C6.55508 15.9847 6.35733 16.1494 6.2145 16.3442C6.0715 16.5391 6 16.7474 6 16.9692V17.6155ZM13.4125 9.797C13.8042 9.40533 14 8.9345 14 8.3845C14 7.8345 13.8042 7.36367 13.4125 6.972C13.0208 6.58033 12.55 6.3845 12 6.3845C11.45 6.3845 10.9792 6.58033 10.5875 6.972C10.1958 7.36367 10 7.8345 10 8.3845C10 8.9345 10.1958 9.40533 10.5875 9.797C10.9792 10.1887 11.45 10.3845 12 10.3845C12.55 10.3845 13.0208 10.1887 13.4125 9.797Z" fill="#ECE5D6"/>
</svg>
