<svg width="24" height="24" viewBox="0 0 24 24" fill="none" xmlns="http://www.w3.org/2000/svg">
<path d="M19.4845 20.1537L13.223 13.8922C12.723 14.3179 12.148 14.6474 11.498 14.8807C10.848 15.1141 10.1948 15.2307 9.53849 15.2307C7.93982 15.2307 6.58499 14.6753 5.47399 13.5645C4.36316 12.4535 3.80774 11.0987 3.80774 9.5C3.80774 7.90133 4.36316 6.5465 5.47399 5.4355C6.58499 4.32466 7.93982 3.76925 9.53849 3.76925C11.1372 3.76925 12.492 4.32466 13.603 5.4355C14.7138 6.5465 15.2692 7.90133 15.2692 9.5C15.2692 10.1948 15.1462 10.8672 14.9 11.5172C14.6538 12.1672 14.3307 12.723 13.9307 13.1845L20.1922 19.4462L19.4845 20.1537ZM9.53849 14.2307C10.8653 14.2307 11.9855 13.774 12.899 12.8605C13.8125 11.9472 14.2692 10.827 14.2692 9.5C14.2692 8.173 13.8125 7.05283 12.899 6.1395C11.9855 5.226 10.8653 4.76925 9.53849 4.76925C8.21149 4.76925 7.09132 5.226 6.17799 6.1395C5.26449 7.05283 4.80774 8.173 4.80774 9.5C4.80774 10.827 5.26449 11.9472 6.17799 12.8605C7.09132 13.774 8.21149 14.2307 9.53849 14.2307Z" fill="#ECE5D6"/>
</svg>
