<svg width="121" height="121" viewBox="0 0 121 121" fill="none" xmlns="http://www.w3.org/2000/svg">
<g opacity="0.1">
<path d="M28.5744 95.2596C28.1493 95.2596 27.8047 95.6042 27.8047 96.0291V103.523C27.8047 103.948 28.1493 104.293 28.5744 104.293C28.9996 104.293 29.3442 103.948 29.3442 103.523V96.0291C29.3442 95.6042 28.9996 95.2596 28.5744 95.2596Z" fill="white"/>
<path d="M28.5744 89.33C28.1493 89.33 27.8047 89.6745 27.8047 90.0994V92.1312C27.8047 92.5563 28.1493 92.9009 28.5744 92.9009C28.9996 92.9009 29.3442 92.5563 29.3442 92.1312V90.0994C29.3442 89.6743 28.9996 89.33 28.5744 89.33Z" fill="white"/>
<path d="M103.275 119.46H98.1447V28.3995C98.1447 25.2587 95.5898 22.7038 92.4487 22.7038H86.3448V18.2681H87.6224C90.084 18.2681 92.0869 16.2655 92.0869 13.8037V9.39308C92.0869 6.93172 90.0843 4.92908 87.6224 4.92908H33.3778C30.9164 4.92908 28.9133 6.93148 28.9133 9.39308V13.8039C28.9133 16.2653 30.916 18.2684 33.3778 18.2684H34.6554V22.704H28.5515C25.4107 22.704 22.8558 25.259 22.8558 28.3998V119.46H17.7251C17.2999 119.46 16.9554 119.805 16.9554 120.23C16.9554 120.654 17.2999 120.999 17.7251 120.999C45.5771 121 75.694 121 103.275 120.999C103.7 120.999 104.044 120.654 104.044 120.23C104.044 119.805 103.7 119.46 103.275 119.46ZM30.4528 13.8037V9.39308C30.4528 7.78061 31.7649 6.46852 33.3778 6.46852H87.6222C89.2349 6.46852 90.5472 7.78061 90.5472 9.39308V13.8039C90.5472 15.4166 89.2351 16.7289 87.6222 16.7289C81.0303 16.7289 42.622 16.7289 33.3776 16.7289C31.7651 16.7287 30.4528 15.4166 30.4528 13.8037ZM36.1946 18.2681H84.8049V22.7038H36.1946V18.2681ZM72.4116 119.46H61.2697V87.8363H70.82C71.6975 87.8363 72.4116 88.5505 72.4116 89.428V119.46ZM59.7303 119.46H48.5883V89.4282C48.5883 88.5507 49.3025 87.8365 50.18 87.8365H59.7303V119.46ZM73.9511 119.46V89.4282C73.9511 87.7018 72.5463 86.2971 70.82 86.2971H50.18C48.4536 86.2971 47.0489 87.7018 47.0489 89.4282V119.46H24.395V28.3995C24.395 26.1076 26.2594 24.243 28.5515 24.243C53.7975 24.2444 68.8781 24.2435 92.4487 24.243C94.7406 24.243 96.6053 26.1074 96.6053 28.3995V119.46H73.9511Z" fill="white"/>
<path d="M102.298 89.6258C102.724 89.6258 103.068 89.2812 103.068 88.8561V86.7379C103.068 86.3127 102.723 85.9681 102.298 85.9681C101.873 85.9681 101.529 86.3127 101.529 86.7379V88.8561C101.529 89.2815 101.873 89.6258 102.298 89.6258Z" fill="white"/>
<path d="M102.298 105.291C102.724 105.291 103.068 104.946 103.068 104.521V92.9079C103.068 92.4828 102.723 92.1382 102.298 92.1382C101.873 92.1382 101.529 92.4828 101.529 92.9079V104.521C101.529 104.946 101.873 105.291 102.298 105.291Z" fill="white"/>
<path d="M24.7546 13.2883C25.1798 13.2883 25.5244 12.9437 25.5244 12.5186V9.32909C25.5244 8.90393 25.1798 8.59009 24.7546 8.59009C24.3295 8.59009 23.9849 8.96538 23.9849 9.39053V12.5186C23.9847 12.944 24.3295 13.2883 24.7546 13.2883Z" fill="white"/>
<path d="M25.696 5.41593C26.0545 5.64399 26.5304 5.53835 26.7587 5.1796C28.2081 2.90046 30.6815 1.53968 33.3757 1.53968H38.0616C38.4867 1.53968 38.8313 1.19511 38.8313 0.769957C38.8313 0.344803 38.4867 0 38.0616 0H33.3757C30.1524 0 27.1933 1.62736 25.4601 4.35316C25.2313 4.71191 25.3372 5.18787 25.696 5.41593Z" fill="white"/>
<path d="M41.109 28.2084H34.4259C32.6993 28.2084 31.2946 29.6131 31.2946 31.3395V38.0226C31.2946 39.749 32.6993 41.1537 34.4259 41.1537H41.109C42.8354 41.1537 44.2401 39.749 44.2401 38.0226V31.3395C44.2401 29.6129 42.8354 28.2084 41.109 28.2084ZM42.7009 38.0224C42.7009 38.8999 41.9867 39.614 41.1093 39.614H34.4261C33.5482 39.614 32.8342 38.8999 32.8342 38.0224V31.3395C32.8342 30.462 33.5484 29.7478 34.4261 29.7478H41.1093C41.9867 29.7478 42.7009 30.462 42.7009 31.3395V38.0224Z" fill="white"/>
<path d="M63.8417 28.2084H57.1583C55.4319 28.2084 54.0272 29.6131 54.0272 31.3395V38.0226C54.0272 39.749 55.4319 41.1537 57.1583 41.1537H63.8414C65.5678 41.1537 66.9725 39.749 66.9725 38.0226V31.3395C66.9728 29.6129 65.568 28.2084 63.8417 28.2084ZM65.4333 38.0224C65.4333 38.8999 64.7192 39.614 63.8417 39.614H57.1583C56.2808 39.614 55.5666 38.8999 55.5666 38.0224V31.3395C55.5666 30.462 56.2808 29.7478 57.1583 29.7478H63.8414C64.7189 29.7478 65.4331 30.462 65.4331 31.3395V38.0224H65.4333Z" fill="white"/>
<path d="M86.5736 28.2084H79.8907C78.1643 28.2084 76.7596 29.6131 76.7596 31.3395V38.0226C76.7596 39.749 78.1643 41.1537 79.8907 41.1537H86.5736C88.3002 41.1537 89.705 39.749 89.705 38.0226V31.3395C89.7054 29.6129 88.3007 28.2084 86.5736 28.2084ZM88.166 38.0224C88.166 38.8999 87.4518 39.614 86.5741 39.614H79.8912C79.0137 39.614 78.2995 38.8999 78.2995 38.0224V31.3395C78.2995 30.462 79.0137 29.7478 79.8912 29.7478H86.5741C87.452 29.7478 88.166 30.462 88.166 31.3395V38.0224Z" fill="white"/>
<path d="M41.109 48.799H34.4259C32.6993 48.799 31.2946 50.2037 31.2946 51.9301V58.6132C31.2946 60.3396 32.6993 61.7443 34.4259 61.7443H41.109C42.8354 61.7443 44.2401 60.3396 44.2401 58.6132V51.9301C44.2401 50.2037 42.8354 48.799 41.109 48.799ZM42.7009 58.6132C42.7009 59.4907 41.9867 60.2049 41.1093 60.2049H34.4261C33.5482 60.2049 32.8342 59.4907 32.8342 58.6132V51.9301C32.8342 51.0526 33.5484 50.3384 34.4261 50.3384H41.1093C41.9867 50.3384 42.7009 51.0526 42.7009 51.9301V58.6132Z" fill="white"/>
<path d="M63.8417 48.799H57.1583C55.4319 48.799 54.0272 50.2037 54.0272 51.9301V58.6132C54.0272 60.3396 55.4319 61.7443 57.1583 61.7443H63.8414C65.5678 61.7443 66.9725 60.3396 66.9725 58.6132V51.9301C66.9728 50.2037 65.568 48.799 63.8417 48.799ZM65.4333 58.6132C65.4333 59.4907 64.7192 60.2049 63.8417 60.2049H57.1583C56.2808 60.2049 55.5666 59.4907 55.5666 58.6132V51.9301C55.5666 51.0526 56.2808 50.3384 57.1583 50.3384H63.8414C64.7189 50.3384 65.4331 51.0526 65.4331 51.9301V58.6132H65.4333Z" fill="white"/>
<path d="M86.5736 48.799H79.8907C78.1643 48.799 76.7596 50.2037 76.7596 51.9301V58.6132C76.7596 60.3396 78.1643 61.7443 79.8907 61.7443H86.5736C88.3002 61.7443 89.705 60.3396 89.705 58.6132V51.9301C89.7054 50.2037 88.3007 48.799 86.5736 48.799ZM88.166 58.6132C88.166 59.4907 87.4518 60.2049 86.5741 60.2049H79.8912C79.0137 60.2049 78.2995 59.4907 78.2995 58.6132V51.9301C78.2995 51.0526 79.0137 50.3384 79.8912 50.3384H86.5741C87.452 50.3384 88.166 51.0526 88.166 51.9301V58.6132Z" fill="white"/>
<path d="M41.109 69.3893H34.4259C32.6993 69.3893 31.2946 70.794 31.2946 72.5204V79.2035C31.2946 80.9301 32.6993 82.3349 34.4259 82.3349H41.109C42.8354 82.3349 44.2401 80.9301 44.2401 79.2035V72.5204C44.2401 70.794 42.8354 69.3893 41.109 69.3893ZM42.7009 79.2035C42.7009 80.0815 41.9867 80.7954 41.1093 80.7954H34.4261C33.5482 80.7954 32.8342 80.0812 32.8342 79.2035V72.5204C32.8342 71.6429 33.5484 70.9287 34.4261 70.9287H41.1093C41.9867 70.9287 42.7009 71.6429 42.7009 72.5204V79.2035Z" fill="white"/>
<path d="M63.8417 69.3893H57.1583C55.4319 69.3893 54.0272 70.794 54.0272 72.5204V79.2035C54.0272 80.9301 55.4319 82.3349 57.1583 82.3349H63.8414C65.5678 82.3349 66.9725 80.9301 66.9725 79.2035V72.5204C66.9728 70.794 65.568 69.3893 63.8417 69.3893ZM65.4333 79.2035C65.4333 80.0815 64.7192 80.7954 63.8417 80.7954H57.1583C56.2808 80.7954 55.5666 80.0812 55.5666 79.2035V72.5204C55.5666 71.6429 56.2808 70.9287 57.1583 70.9287H63.8414C64.7189 70.9287 65.4331 71.6429 65.4331 72.5204V79.2035H65.4333Z" fill="white"/>
<path d="M86.5736 69.3893H79.8907C78.1643 69.3893 76.7596 70.794 76.7596 72.5204V79.2035C76.7596 80.9301 78.1643 82.3349 79.8907 82.3349H86.5736C88.3002 82.3349 89.705 80.9301 89.705 79.2035V72.5204C89.7054 70.794 88.3007 69.3893 86.5736 69.3893ZM88.166 79.2035C88.166 80.0815 87.4518 80.7954 86.5741 80.7954H79.8912C79.0137 80.7954 78.2995 80.0812 78.2995 79.2035V72.5204C78.2995 71.6429 79.0137 70.9287 79.8912 70.9287H86.5741C87.452 70.9287 88.166 71.6429 88.166 72.5204V79.2035Z" fill="white"/>
<path d="M40.2171 12.3682H80.7831C81.2082 12.3682 81.5528 12.0236 81.5528 11.5985C81.5528 11.1733 81.2082 10.8287 80.7831 10.8287H40.2171C39.792 10.8287 39.4476 11.1733 39.4476 11.5985C39.4474 12.0234 39.792 12.3682 40.2171 12.3682Z" fill="white"/>
</g>
</svg>
