<svg width="104" height="51" viewBox="0 0 104 51" fill="none" xmlns="http://www.w3.org/2000/svg">
<path d="M94.2955 3.53565C95.2696 4.99141 96.2045 6.78726 95.7447 8.7118C94.158 7.80362 92.8818 6.32085 91.8698 4.85703C90.8507 3.38338 89.7925 1.81635 89.4299 0C91.4314 0.511915 93.2231 1.93295 94.2955 3.53565Z" fill="#222222"/>
<path d="M8.2714 8.70878C7.81281 6.78388 8.74966 4.98874 9.7255 3.53381C10.7997 1.93206 12.592 0.512324 14.5937 0.00183105C14.23 1.81783 13.1701 3.38427 12.15 4.85697C11.1367 6.32008 9.85869 7.8019 8.2714 8.70878Z" fill="#222222"/>
<path d="M6.87588 12.4009C7.23386 10.8765 7.22592 9.20767 6.88512 7.77786C6.58543 6.5213 6.14936 4.745 4.7141 4.14563C3.67084 5.81907 3.25147 8.09792 3.85949 9.80549C4.29912 11.0406 5.08974 12.6736 6.72941 12.9264C8.23399 13.2732 9.7554 12.4706 10.957 11.808C12.293 11.0713 13.6018 9.89923 14.3969 8.5058C12.9383 7.76956 11.2772 8.36704 10.0275 8.93962C8.68038 9.55688 7.4429 10.8812 6.87588 12.4009Z" fill="#222222"/>
<path d="M36.076 13.865V6.21167H33.4631V9.00007H29.5437V6.21167H26.9308V13.865H29.5437V11.0865H33.4631V13.865H36.076Z" fill="#222222"/>
<path d="M44.7394 6.21167H47.6252L43.5305 11.3399V13.865H40.9078V11.3497L36.8618 6.21167H39.8353L42.2533 9.27297L44.7394 6.21167Z" fill="#222222"/>
<path fill-rule="evenodd" clip-rule="evenodd" d="M56.726 6.86484C57.2428 7.27437 57.5352 7.96664 57.5352 8.9708C57.5352 9.78974 57.3305 10.4039 56.9405 10.833C56.414 11.4375 55.5464 11.7104 54.4154 11.7202C54.0644 11.7299 51.0615 11.7202 51.0615 11.7202V13.865H48.4389V6.21167H54.3764C55.4293 6.21167 56.2288 6.42615 56.726 6.86484ZM54.7858 9.56554C54.8639 9.42903 54.9029 9.25354 54.9029 9.00979C54.9029 8.75632 54.8541 8.54184 54.7664 8.42488C54.6006 8.18112 54.2886 8.06405 53.7817 8.06405H51.0421V9.93597H53.7621C54.3082 9.93597 54.6299 9.8093 54.7858 9.56554Z" fill="#222222"/>
<path d="M66.6402 11.9638V13.865H58.5782V6.21167H66.5727V8.12259H61.152V9.10731H66.4162V10.9694H61.152V11.9638H66.6402Z" fill="#222222"/>
<path fill-rule="evenodd" clip-rule="evenodd" d="M76.4296 6.99212C76.7815 7.35283 76.9462 7.85005 76.9462 8.54232C76.9462 9.13707 76.8005 9.644 76.5564 9.98528C76.2838 10.3557 75.8643 10.6677 75.3477 10.7457L77.6584 13.8655H74.7528L72.8521 11.1649H70.4833V13.8655H67.8799V6.21216H73.9731C75.1818 6.21216 75.9722 6.50461 76.4296 6.99212ZM74.3239 9.18577C74.3926 9.06881 74.4115 8.91275 74.4115 8.78607C74.4115 8.63984 74.3926 8.48378 74.3239 8.38625C74.1876 8.13279 73.915 8.06453 73.505 8.06453H70.4928V9.45879H73.5536C73.9731 9.45879 74.2267 9.38082 74.3239 9.18577Z" fill="#222222"/>
<path d="M65.2443 23.4649C65.2443 21.7155 64.1329 20.7961 61.5406 20.5151C61.1192 20.464 59.8805 20.3363 59.1015 20.2724C57.0966 20.0553 56.4966 19.9405 56.4966 19.4297C56.4966 18.97 56.969 18.7529 58.7695 18.7529C60.0466 18.7529 60.7617 18.9955 61.0425 19.3658C61.1831 19.5446 61.2341 19.685 61.2469 19.8256H64.9247C64.8863 19.519 64.7587 19.0848 64.5542 18.7018C63.8903 17.4248 62.294 16.4032 58.859 16.4032C54.9896 16.4032 52.8699 17.7696 52.8699 19.5574C52.8699 21.2813 54.0702 22.2901 57.3137 22.5839C57.6805 22.6153 58.4681 22.6897 59.113 22.7506L59.1528 22.7544L59.1601 22.7551L59.1629 22.7553L59.5102 22.7882C61.2085 22.967 61.6683 23.0818 61.6683 23.6182C61.6683 24.1162 61.2213 24.3843 59.3442 24.3843C57.8884 24.3843 57.0329 24.1672 56.7263 23.7969C56.5987 23.6437 56.5092 23.4138 56.4838 23.2606H52.806C52.8443 23.516 52.9082 23.9247 53.0486 24.2567C53.6744 25.6614 55.309 26.7341 59.1015 26.7341C63.1752 26.7341 65.2443 25.5847 65.2443 23.4649Z" fill="#222222"/>
<path fill-rule="evenodd" clip-rule="evenodd" d="M39.1728 25.5591C39.5559 25.1121 39.7474 24.4353 39.7474 23.7457C39.7474 23.1583 39.5942 22.5964 39.275 22.2261C38.8919 21.728 38.215 21.3705 37.5 21.2812C37.9852 21.2173 38.4449 20.9619 38.7131 20.6299C39.0451 20.234 39.1983 19.6977 39.1983 19.0464C39.1983 18.3951 39.0068 17.8205 38.5726 17.3864C38.0874 16.8883 37.2062 16.5563 35.8271 16.5563H27.1691V26.5807H36.0697C37.4872 26.5807 38.5854 26.2741 39.1728 25.5591ZM35.6483 19.6466C35.6483 19.8893 35.5716 20.0936 35.444 20.234C35.2652 20.4 34.9332 20.4639 34.499 20.4639H30.5148V18.8293H34.4097C34.8949 18.8293 35.2269 18.8932 35.4056 19.0592C35.5717 19.1996 35.6483 19.4039 35.6483 19.6466ZM36.0314 24.0395C35.8271 24.231 35.4695 24.3076 34.8693 24.3076H30.5148V22.6348H34.9077C35.4695 22.6348 35.8015 22.7113 35.993 22.8774C36.1464 23.0306 36.2101 23.2222 36.2101 23.4776C36.2101 23.7202 36.1591 23.9117 36.0314 24.0395Z" fill="#222222"/>
<path d="M51.7713 24.0906V26.5807H41.2107V16.5563H51.682V19.0592H44.5819V20.3489H51.4777V22.788H44.5819V24.0906H51.7713Z" fill="#222222"/>
<path d="M77.6688 19.072V16.5563H65.704V19.072H69.9308V26.5807H73.4289V19.072H77.6688Z" fill="#222222"/>
<path d="M77.3668 35.4513H76.804L76.7637 34.9092C76.5918 35.1835 76.228 35.5128 75.4602 35.5128C74.1626 35.5128 73.5594 34.7307 73.5594 32.7339C73.5594 31.1901 73.9434 29.9482 75.5277 29.9482C76.9011 29.9482 77.3194 30.8472 77.3396 31.8146H76.6535C76.6333 31.1834 76.3513 30.6002 75.5419 30.6002C74.5679 30.6002 74.2859 31.1835 74.2859 32.7548C74.2859 34.3947 74.6366 34.9092 75.5562 34.9092C76.2008 34.9092 76.5776 34.5525 76.702 34.1271V33.1047H75.3156V32.4801H77.3597V34.0585C77.3597 34.53 77.3645 35.0331 77.3656 35.2861L77.3668 35.4067V35.4513Z" fill="#222222"/>
<path fill-rule="evenodd" clip-rule="evenodd" d="M27.2992 34.0859H29.2205L29.6184 35.4513H30.3457L28.7538 30.0171H27.8687L26.167 35.4513H26.8875L27.2992 34.0859ZM29.0489 33.4752H27.4845C27.4845 33.4752 28.1637 31.2796 28.1774 31.2316C28.1843 31.1972 28.2942 30.7101 28.2942 30.7101L28.3701 31.0704L28.4039 31.2316C28.4108 31.2658 29.0489 33.4752 29.0489 33.4752Z" fill="#222222"/>
<path d="M35.5526 30.017H36.2113L34.9282 35.4512H34.1117C34.1117 35.4512 33.1991 31.2246 33.1991 31.0461C33.1922 31.2246 32.259 35.4512 32.259 35.4512H31.4426L30.1595 30.017H30.9005C30.9005 30.017 31.8954 34.3191 31.8954 34.4907C31.8954 34.3191 32.8081 30.017 32.8081 30.017H33.6245C33.6245 30.017 34.5371 34.3259 34.5371 34.4907C34.5371 34.3259 35.5526 30.017 35.5526 30.017Z" fill="#222222"/>
<path fill-rule="evenodd" clip-rule="evenodd" d="M39.0289 34.0857H37.1077L36.696 35.4512H35.9755L37.6772 30.017H38.5624L40.1543 35.4512H39.4269L39.0289 34.0857ZM37.293 33.4751H38.8574C38.8574 33.4751 38.2193 31.2657 38.2124 31.2315L38.1605 30.9842L38.1026 30.71C38.1026 30.71 37.9929 31.1971 37.986 31.2315C37.9722 31.2795 37.293 33.4751 37.293 33.4751Z" fill="#222222"/>
<path fill-rule="evenodd" clip-rule="evenodd" d="M42.7985 30.017C43.6356 30.017 44.0885 30.408 44.0885 31.547C44.0885 32.5146 43.7248 32.837 43.3474 32.9467L44.3905 35.4512H43.6356L42.6682 33.0841H41.3508V35.4512H40.6646V30.017H42.7985ZM42.6957 32.4665C43.2377 32.4665 43.368 32.1851 43.368 31.5676C43.368 30.8678 43.1622 30.6551 42.6613 30.6551H41.3576V32.4665H42.6957Z" fill="#222222"/>
<path fill-rule="evenodd" clip-rule="evenodd" d="M48.6568 32.6449C48.6568 33.928 48.5608 34.4494 48.2864 34.8406C48.0119 35.218 47.5796 35.4512 46.8797 35.4512H45.0134V30.017H46.8317C47.5179 30.017 48.053 30.2228 48.3001 30.5933C48.5746 30.9913 48.6568 31.4853 48.6568 32.6449ZM46.7357 34.8062C47.1542 34.8062 47.5042 34.6965 47.6825 34.4563C47.8747 34.1956 47.9296 33.6672 47.9296 32.6449C47.9296 31.7872 47.8815 31.3275 47.6825 31.0324C47.4973 30.7786 47.1405 30.6687 46.7219 30.6687H45.7064V34.8062H46.7357Z" fill="#222222"/>
<path d="M55.8962 30.0171H56.5549L55.2718 35.4513H54.4552C54.4552 35.4513 53.5427 31.2247 53.5427 31.0463C53.5358 31.2247 52.6026 35.4513 52.6026 35.4513H51.7862L50.5031 30.0171H51.244C51.244 30.0171 52.2389 34.3192 52.2389 34.4908C52.2389 34.3192 53.1515 30.0171 53.1515 30.0171H53.9681C53.9681 30.0171 54.8806 34.3261 54.8806 34.4908C54.8806 34.3261 55.8962 30.0171 55.8962 30.0171Z" fill="#222222"/>
<path d="M57.769 30.0171V35.4513H57.0554V30.0171H57.769Z" fill="#222222"/>
<path d="M62.2354 30.0171V35.4513H61.4463L59.4221 31.2383V35.4513H58.7565V30.0171H59.5868L61.5629 34.1682V30.0171H62.2354Z" fill="#222222"/>
<path d="M66.683 30.0171V35.4513H65.8938L63.8706 31.2383V35.4513H63.205V30.0171H64.0353L66.0111 34.1682V30.0171H66.683Z" fill="#222222"/>
<path d="M68.3692 30.0171V35.4513H67.6559V30.0171H68.3692Z" fill="#222222"/>
<path d="M72.8354 30.0171V35.4513H72.0463L70.0223 31.2383V35.4513H69.3563V30.0171H70.187L72.1636 34.1682V30.0171H72.8354Z" fill="#222222"/>
<path d="M35.024 46.1614L34.2378 43.7415L33.4515 46.1614H30.907L32.9655 47.6571L32.1792 50.0771L34.2378 48.5814L36.2964 50.0771L35.51 47.6571L37.5686 46.1614H35.024Z" fill="#222222"/>
<path d="M44.1158 46.1622L43.3135 43.7422L42.5111 46.1622H39.9147L42.0153 47.6577L41.2129 50.0777L43.3135 48.5822L45.4141 50.0777L44.6117 47.6577L46.7122 46.1622H44.1158Z" fill="#222222"/>
<path d="M53.1214 46.1624L52.319 43.7424L51.5166 46.1624H48.9202L51.0207 47.658L50.2184 50.078L52.319 48.5824L54.4195 50.078L53.6172 47.658L55.7178 46.1624H53.1214Z" fill="#222222"/>
<path d="M62.1269 46.1624L61.3246 43.7424L60.5222 46.1624H57.9258L60.0263 47.658L59.2239 50.078L61.3246 48.5824L63.4251 50.078L62.6227 47.658L64.7234 46.1624H62.1269Z" fill="#222222"/>
<path d="M71.1895 46.1624L70.4039 43.7424L69.6171 46.1624H67.0729L69.1312 47.658L68.3456 50.078L70.4039 48.5824L72.4622 50.078L71.6754 47.658L73.7349 46.1624H71.1895Z" fill="#222222"/>
<path d="M2.2418 16.5147C2.98171 17.6435 4.12664 19.0574 5.79605 19.0171C7.31414 19.093 8.62569 18.0569 9.65852 17.1922C10.7709 16.261 11.7749 14.8991 12.1988 13.4267C10.6461 12.975 9.15953 13.8118 8.05097 14.6011C6.89336 15.4255 6.00307 16.9343 5.81181 18.4834C5.79747 16.9314 5.3774 15.3285 4.70018 14.0372C4.08102 12.8567 3.21823 11.261 1.67893 10.942C1.07245 12.7789 1.26596 15.0263 2.2418 16.5147Z" fill="#222222"/>
<path d="M6.28977 25.0967C4.7404 25.3563 3.22907 24.407 2.24754 23.2904C0.983868 21.8528 0.23199 19.9242 0.385327 17.9935C1.977 18.0339 3.18249 19.4098 4.07349 20.4502C5.03309 21.5708 5.81933 23.045 6.19651 24.5658C6.03061 23.0502 6.53945 21.4136 7.48401 20.4024C8.39574 19.4262 9.67292 18.3623 11.262 18.5331C11.2277 20.0699 10.4574 21.534 9.66284 22.6306C8.92223 23.6526 7.78132 24.9166 6.28977 25.0967Z" fill="#222222"/>
<path d="M3.42829 30.203C4.85526 31.132 6.58593 32.0516 8.40477 31.3556C9.89691 30.8277 10.8456 29.3257 11.4291 27.9471C12.0472 26.4864 12.46 24.802 12.1742 23.2032C10.5346 23.3488 9.1749 24.5219 8.45276 25.954C7.69781 27.4511 7.553 29.2331 8.13293 30.8027C7.27607 29.1879 6.02294 27.8813 4.69552 26.6741C3.48885 25.5767 1.7507 24.4206 0 24.638C0.3331 26.8024 1.65389 29.0478 3.42829 30.203Z" fill="#222222"/>
<path d="M12.0816 37.2075C13.4858 36.3681 14.0509 34.6017 14.2819 33.0882C14.5309 31.4558 14.5202 29.6556 13.8423 28.1071C12.2131 28.5621 11.0949 30.0284 10.7256 31.6344C10.3355 33.3312 10.6647 35.1396 11.6136 36.5843C10.3522 35.1371 8.67488 33.9422 7.06744 33.1043C5.51475 32.2949 3.60988 31.3187 1.74518 31.9083C2.64435 34.1027 4.56783 36.1459 6.69962 36.991C8.35055 37.6454 10.359 38.2925 12.0816 37.2075Z" fill="#222222"/>
<path d="M18.7364 37.7752C18.9425 39.3508 18.9366 41.3491 17.7134 42.5619C16.1847 44.1265 13.819 43.8246 11.9944 43.4803C9.54477 43.0178 6.78731 41.3471 5.30939 39.1225C7.11436 38.1287 9.32188 38.7644 11.1088 39.2791L11.2109 39.3084C13.2056 39.8822 15.3312 40.8065 17.1089 42.0695C15.6902 40.7876 14.6566 38.906 14.606 37.0096C14.5605 35.3134 15.2967 33.4987 16.881 32.6902C17.9871 34.1419 18.5051 36.0058 18.7364 37.7752Z" fill="#222222"/>
<path d="M25.838 47.0237C26.7388 45.3089 25.8463 43.2963 25.1351 41.8088C24.2942 40.0503 23.1453 38.2581 21.5012 36.9709C19.9224 38.3316 20.0725 40.2784 20.5419 41.9703C21.1001 43.9821 23.035 45.697 25.0387 46.6742C22.7182 45.8088 20.1838 45.2894 17.7726 45.1361L17.5284 45.1204C15.5913 44.9942 13.0695 44.8299 11.5259 46.2475C13.8598 48.2315 17.1748 49.3762 20.0965 49.3168C22.0544 49.2769 24.7408 49.0453 25.838 47.0237Z" fill="#222222"/>
<path d="M97.1394 12.4065C96.5742 10.8858 95.337 9.55976 93.9909 8.94132C92.7407 8.36778 91.0805 7.76924 89.6218 8.50417C90.4158 9.8982 91.7228 11.0712 93.0583 11.809C94.2587 12.4723 95.779 13.276 97.284 12.9306C98.924 12.6794 99.7168 11.0467 100.158 9.81157C100.768 8.10484 100.351 5.82551 99.3091 4.151C97.8729 4.74954 97.4345 6.52536 97.1347 7.78181C96.7922 9.21197 96.7827 10.8814 97.1394 12.4065Z" fill="#222222"/>
<path d="M95.9593 14.6042C97.1158 15.429 98.0034 16.9369 98.1941 18.4849C98.2107 16.9338 98.6326 15.3324 99.3104 14.0424C99.9302 12.8623 100.795 11.2673 102.334 10.9493C102.939 12.7868 102.743 15.0341 101.766 16.5216C101.026 17.6484 99.8816 19.0594 98.2155 19.0216C96.6951 19.0992 95.3822 18.0607 94.3489 17.1942C93.2373 16.262 92.2348 14.8994 91.813 13.4268C93.3653 12.976 94.8513 13.8141 95.9593 14.6042Z" fill="#222222"/>
<path d="M97.803 24.5759C97.9724 23.059 97.4653 21.419 96.5196 20.4057C95.6096 19.4288 94.3333 18.364 92.7443 18.5336C92.7763 20.0704 93.5453 21.5352 94.3393 22.6324C95.0787 23.6545 96.2175 24.9185 97.7082 25.1006C99.2582 25.3631 100.771 24.4143 101.755 23.2978C103.019 21.8612 103.773 19.9333 103.622 18.0023C102.03 18.0417 100.824 19.4165 99.9312 20.4562C98.969 21.5774 98.181 23.0533 97.803 24.5759Z" fill="#222222"/>
<path d="M95.5468 25.9568C96.3004 27.4548 96.4438 29.2371 95.862 30.8063C96.7199 29.1917 97.9748 27.886 99.3032 26.6795C100.511 25.5829 102.25 24.4284 104.001 24.647C103.666 26.8113 102.343 29.0558 100.568 30.2095C99.1409 31.1362 97.412 32.0538 95.5954 31.3607C94.1011 30.8337 93.1519 29.3287 92.5689 27.9477C91.9515 26.4865 91.5403 24.8019 91.8283 23.2032C93.4671 23.3501 94.8263 24.5243 95.5468 25.9568Z" fill="#222222"/>
<path d="M92.3805 36.5816C93.3285 35.1383 93.6591 33.3316 93.2716 31.6357C92.9042 30.0293 91.7868 28.5622 90.1574 28.106C89.4784 29.6538 89.4666 31.4539 89.7131 33.0866C89.943 34.5972 90.5046 36.36 91.9006 37.2025C93.6247 38.296 95.638 37.6493 97.2911 36.9951C99.4241 36.1516 101.35 34.1098 102.25 31.9158C100.386 31.3251 98.4808 32.2999 96.9273 33.108C95.3204 33.9443 93.6425 35.1367 92.3805 36.5816Z" fill="#222222"/>
<path d="M85.2503 37.7707C85.0429 39.3459 85.0465 41.3442 86.2694 42.558C87.7957 44.1238 90.1621 43.8235 91.987 43.4805C94.4375 43.0199 97.1962 41.3509 98.6762 39.1277C96.8727 38.1326 94.6639 38.7665 92.8769 39.2797L92.7738 39.3091C90.7795 39.8812 88.6536 40.8036 86.8749 42.0647C88.2945 40.7838 89.329 38.9038 89.3812 37.0081C89.4286 35.312 88.6939 33.4967 87.1107 32.6869C86.0028 34.1378 85.4838 36.0014 85.2503 37.7707Z" fill="#222222"/>
<path d="M83.883 49.3104C81.9254 49.269 79.239 49.0355 78.144 47.0129L78.1286 46.9852C77.2541 45.2756 78.1429 43.2775 78.8515 41.7987C79.694 40.0408 80.8446 38.2495 82.4894 36.9637C84.0678 38.3254 83.9149 40.2721 83.4445 41.9636C82.884 43.975 80.9477 45.6887 78.9427 46.6643C81.2641 45.8007 83.7988 45.2832 86.2103 45.1315L86.4556 45.1159C88.393 44.9912 90.9147 44.8291 92.4563 46.2475C90.1207 48.2296 86.8051 49.372 83.883 49.3104Z" fill="#222222"/>
</svg>
