<svg width="107" height="51" viewBox="0 0 107 51" fill="none" xmlns="http://www.w3.org/2000/svg">
<path d="M5.48045 9.9976C4.78843 8.23884 5.08885 6.21657 5.72631 4.51576C6.39698 2.72605 7.56481 0.941255 9.31026 0C9.39686 1.886 8.82074 3.74933 8.19124 5.42956C7.62513 6.94084 6.93052 8.55092 5.78349 9.80077C5.60725 10.7478 5.47218 11.6922 5.37719 12.6323C5.75735 11.6392 6.37378 10.734 7.14293 10.0061C8.13318 9.06888 9.60622 8.3457 10.989 8.77335C10.584 10.3018 9.6608 11.767 8.56748 12.7949C7.70694 13.6039 6.57094 14.6406 5.23286 14.6813C5.17774 16.0647 5.20889 17.4355 5.32272 18.7876C5.5115 17.7981 5.91595 16.8663 6.50036 16.1725C7.30316 15.219 8.49351 14.0541 10.0137 14.249C9.93072 15.796 9.31364 17.381 8.4543 18.5721C7.77143 19.5185 6.86995 20.7248 5.59036 21.0365C5.79526 22.3651 6.08065 23.6717 6.44273 24.9502C6.44622 23.9712 6.66244 23.0104 7.0914 22.2397C7.69594 21.1529 8.63752 19.7976 10.1595 19.6916C10.3826 21.2093 10.0803 22.8684 9.4705 24.188C8.98315 25.2428 8.33339 26.5878 7.14903 27.1443C7.64637 28.5199 8.23492 29.857 8.90973 31.1476C8.67281 30.0352 8.68229 28.863 8.96267 27.8084C9.34904 26.3544 10.3082 24.8271 11.848 24.3838C12.3923 25.989 12.3172 27.7805 12.001 29.412C11.7408 30.7553 11.2295 32.333 10.0833 33.2057C10.8327 34.4149 11.6616 35.5754 12.5656 36.6796C12.0799 35.5967 11.8385 34.4123 11.968 33.3279C12.1567 31.7482 12.6006 30.0583 14.2141 29.216C15.1296 30.7955 15.3417 32.5675 15.4194 34.3176C15.4823 35.7325 15.2785 37.4776 14.2958 38.6287C15.3767 39.7525 16.543 40.8043 17.7887 41.7742C16.9845 40.7426 16.4214 39.5319 16.3021 38.3347C16.1337 36.6431 16.216 34.781 17.7172 33.5396C19.001 34.8806 19.7671 36.8553 20.1426 38.5705C20.4746 40.087 20.8212 41.882 20.0307 43.3744C21.6161 44.4092 23.3085 45.321 25.0979 46.0931C23.8388 45.1958 22.8081 43.9648 22.317 42.6938C21.6736 41.0277 21.2756 39.0425 22.529 37.3739C24.2084 38.4496 25.4426 40.2849 26.415 41.9587C27.2494 43.3949 28.1131 45.3772 27.6846 47.0877C28.6753 47.4238 29.6916 47.719 30.7322 47.9709L30.6703 48.2263C29.6258 47.9735 28.6056 47.6773 27.6109 47.3402C26.9139 49.3997 24.6309 50.0801 22.7846 50.3805C20.1538 50.8085 17.0213 49.9792 14.7754 48.3087C15.9608 46.6334 18.3794 46.4635 20.203 46.3353L20.2268 46.3337C22.2247 46.1933 24.3855 46.3808 26.3946 46.9028C24.0736 46.0193 21.9019 44.9085 19.8994 43.6025L19.8698 43.6491C18.7725 45.4285 16.5693 45.4979 14.8399 45.3853C12.4933 45.2326 9.78399 43.8058 8.21596 41.8334C9.69086 40.5393 11.8693 40.9015 13.5573 41.1821L13.5655 41.1834C15.4494 41.4966 17.508 42.1798 19.2361 43.2317C19.0715 43.1021 18.9104 42.9649 18.7539 42.8212C17.0737 41.6233 15.5239 40.2833 14.1175 38.8224C14.1012 38.8387 14.0846 38.8549 14.068 38.8711C12.7005 40.2467 10.7088 39.8865 9.1545 39.4388C7.07452 38.8397 4.9174 37.0322 3.88367 34.9573C5.48557 34.0597 7.40076 34.7993 8.89045 35.3844C10.5255 36.0265 12.2554 37.0537 13.5855 38.3631C13.4484 38.1902 13.3175 38.0094 13.1939 37.8224C11.9576 36.427 10.8454 34.9328 9.86765 33.3565L9.81863 33.3873C8.27163 34.3856 6.51887 33.6626 5.1297 32.9516C3.24621 31.9877 1.73265 29.8693 1.07864 27.7859C2.7495 27.2507 4.40031 28.3011 5.68361 29.133C7.08716 30.0428 8.50887 31.3404 9.48477 32.8285C9.41309 32.6818 9.34632 32.5319 9.28477 32.3792C8.34711 30.7433 7.55054 29.026 6.90568 27.2444L6.87246 27.2558L6.86973 27.2567C5.46313 27.7915 3.89674 26.9601 2.87553 26.0484C1.45618 24.7813 0.455781 22.8334 0.221257 20.9303C1.68777 20.7403 3.06942 21.8749 4.01405 22.8426C5.10138 23.9564 6.07728 25.2728 6.67726 26.735C6.63347 26.5762 6.59589 26.4148 6.5643 26.2519C6.01835 24.5777 5.60474 22.8512 5.33209 21.0861L5.31085 21.0887L5.30366 21.0899C3.81656 21.3382 2.44166 20.2076 1.62023 19.1104C0.467764 17.5707 -0.126335 15.4397 0.022571 13.5083C1.5039 13.6119 2.63185 15.0211 3.36331 16.161C4.20991 17.4807 4.91195 18.9742 5.21946 20.5367C5.21009 20.4124 5.20454 20.2874 5.20258 20.162C4.97677 18.3655 4.89627 16.5323 4.9699 14.6763L4.96566 14.6761C3.45372 14.6216 2.33633 13.2179 1.75944 11.9727C0.933979 10.1908 0.801086 7.93852 1.35205 6.04033C2.79307 6.44478 3.59642 8.09778 4.07059 9.37018C4.6173 10.8372 4.99888 12.4373 5.00193 14.0281C5.08058 12.6935 5.23896 11.3483 5.48045 9.9976Z" fill="#222222"/>
<path d="M35.2576 6.70496V13.0771C35.2576 15.8797 32.7194 17.2282 28.8723 17.2282C25.2765 17.2282 22.6985 15.893 22.6985 12.7466V6.70496H26.2812V12.7466C26.2812 13.8703 27.2462 14.571 29.0177 14.571C30.7099 14.571 31.7147 13.8439 31.7147 12.7598V6.70496H35.2576Z" fill="#222222"/>
<path d="M47.1909 14.3198V17.0828H37.289V6.70496H40.8717V14.3198H47.1909Z" fill="#222222"/>
<path d="M57.8375 9.30937V6.70496H45.4502V9.30937H49.8261V17.0828H53.4484V9.30937H57.8375Z" fill="#222222"/>
<path fill-rule="evenodd" clip-rule="evenodd" d="M70.545 7.76266C71.0211 8.25175 71.2466 8.92605 71.2466 9.86458C71.2466 10.6711 71.0483 11.3585 70.7172 11.8212C70.3468 12.3235 69.7782 12.7466 69.0778 12.8524L72.2117 17.0828H68.2717L65.6934 13.4208H62.4813V17.0828H58.9514V6.70496H67.214C68.8534 6.70496 69.9242 7.10157 70.545 7.76266ZM67.69 10.7372C67.7826 10.5785 67.8088 10.367 67.8088 10.1952C67.8088 9.99682 67.7826 9.78528 67.69 9.65315C67.5048 9.30937 67.1345 9.21689 66.5789 9.21689H62.4944V11.1074H66.6454C67.214 11.1074 67.5582 11.0016 67.69 10.7372Z" fill="#222222"/>
<path fill-rule="evenodd" clip-rule="evenodd" d="M76.9818 15.1659H82.5873L83.499 17.0828H87.3202L82.0851 6.70496H77.8151L72.2761 17.0828H76.0167L76.9818 15.1659ZM81.4631 12.8391H78.1452L79.4545 10.3406L79.851 9.38867L80.2213 10.3273L81.4631 12.8391Z" fill="#222222"/>
<path fill-rule="evenodd" clip-rule="evenodd" d="M70.1673 19.0371C67.9495 19.0371 66.7828 20.0883 66.7828 21.6329C66.7828 23.3763 68.0072 24.2607 70.1673 24.2607C72.5452 24.2607 73.5451 23.2352 73.5451 21.6329C73.5451 20.0049 72.4166 19.0371 70.1673 19.0371ZM70.1673 22.9725C68.9048 22.9725 68.5388 22.4533 68.5388 21.6522C68.5388 20.8638 68.9364 20.3447 70.1607 20.3447C71.5005 20.3447 71.8012 20.9279 71.8012 21.6522C71.8012 22.4213 71.4363 22.9725 70.1673 22.9725Z" fill="#222222"/>
<path d="M63.4967 24.184V21.2037H60.1511V22.2868H61.9392C61.9265 22.3702 61.8623 22.5304 61.779 22.6265C61.5932 22.8445 61.0996 23.0367 60.4587 23.0367C59.7921 23.0367 59.3627 22.8636 59.132 22.5945C58.9782 22.3958 58.8885 22.1138 58.8885 21.6908C58.8885 21.2485 58.9782 20.9474 59.1512 20.7487C59.4012 20.4666 59.8242 20.3449 60.4459 20.3449C61.0035 20.3449 61.388 20.473 61.5676 20.6332C61.6829 20.7294 61.7726 20.864 61.7918 20.9537H63.4518C63.4455 20.7934 63.3942 20.5371 63.3044 20.3513C62.9071 19.5437 61.9841 19.063 60.4139 19.063C59.0487 19.063 58.1322 19.4795 57.6259 20.1077C57.2925 20.5371 57.1387 21.0755 57.1387 21.6779C57.1387 22.3446 57.3181 22.9149 57.613 23.2931C58.1129 23.9405 59.0038 24.2609 60.0741 24.2609C61.0164 24.2609 61.6636 24.0366 62.0739 23.6969L62.1187 24.184H63.4967Z" fill="#222222"/>
<path d="M46.037 21.1396C47.338 21.2805 47.8956 21.7421 47.8956 22.6201C47.8956 23.684 46.8573 24.2608 44.8127 24.2608C42.9092 24.2608 42.0888 23.7225 41.7747 23.0175C41.7042 22.8508 41.6722 22.6457 41.6529 22.5175H43.4988C43.5117 22.5944 43.5565 22.7098 43.6206 22.7867C43.7744 22.9726 44.2038 23.0816 44.9345 23.0816C45.8767 23.0816 46.101 22.9469 46.101 22.697C46.101 22.4278 45.8703 22.3701 45.0178 22.2804C44.6782 22.2484 44.1397 22.1971 43.9155 22.1779C42.2875 22.0304 41.685 21.5241 41.685 20.6589C41.685 19.7615 42.7489 19.0758 44.6909 19.0758C46.415 19.0758 47.2162 19.5885 47.5495 20.2295C47.652 20.4217 47.7161 20.6396 47.7354 20.7934H45.8895C45.883 20.7229 45.8574 20.6524 45.787 20.5627C45.6459 20.3769 45.287 20.2551 44.646 20.2551C43.7424 20.2551 43.5052 20.364 43.5052 20.5947C43.5052 20.8511 43.8065 20.9089 44.8127 21.0178C45.2037 21.0498 45.8254 21.1139 46.037 21.1396Z" fill="#222222"/>
<path fill-rule="evenodd" clip-rule="evenodd" d="M27.6362 19.5821C27.9758 19.8513 28.1681 20.3064 28.1681 20.9665C28.1681 21.5049 28.0336 21.9086 27.7772 22.1906C27.4311 22.588 26.8606 22.7675 26.1172 22.7739C25.8864 22.7804 23.9124 22.7739 23.9124 22.7739V24.1839H22.1882V19.1527H26.0915C26.7837 19.1527 27.3093 19.2937 27.6362 19.5821ZM26.3608 21.3574C26.412 21.2678 26.4377 21.1523 26.4377 20.9921C26.4377 20.8255 26.4055 20.6845 26.3479 20.6076C26.239 20.4473 26.0339 20.3704 25.7005 20.3704H23.8995V21.601H25.6877C26.0466 21.601 26.2581 21.5177 26.3608 21.3574Z" fill="#222222"/>
<path fill-rule="evenodd" clip-rule="evenodd" d="M34.4745 19.6656C34.7053 19.9027 34.8142 20.2296 34.8142 20.6846C34.8142 21.0755 34.718 21.4089 34.5578 21.6331C34.3784 21.8767 34.1028 22.0818 33.7631 22.1331L35.2821 24.184H33.3721L32.1223 22.4087H30.5648V24.184H28.8535V19.1528H32.8594C33.6541 19.1528 34.1733 19.3451 34.4745 19.6656ZM33.0901 21.1077C33.135 21.0308 33.1477 20.9282 33.1477 20.8448C33.1477 20.7487 33.135 20.6461 33.0901 20.5821C33.0003 20.4154 32.8209 20.3705 32.5518 20.3705H30.5712V21.2871H32.5838C32.8594 21.2871 33.026 21.2358 33.0901 21.1077Z" fill="#222222"/>
<path d="M41.1342 24.184V22.9343H37.5258V22.2805H40.9868V21.0564H37.5258V20.409H41.0893V19.1528H35.8337V24.184H41.1342Z" fill="#222222"/>
<path d="M54.132 20.4154V19.1528H48.1265V20.4154H50.2479V24.184H52.0041V20.4154H54.132Z" fill="#222222"/>
<path d="M56.442 19.1528V24.184H54.6794V19.1528H56.442Z" fill="#222222"/>
<path d="M66.0863 19.1528V24.184H64.3234V19.1528H66.0863Z" fill="#222222"/>
<path d="M80.3458 19.1527V22.2419C80.3458 23.6007 79.1149 24.2545 77.2501 24.2545C75.5072 24.2545 74.2567 23.6071 74.2567 22.0817V19.1527H75.9941V22.0817C75.9941 22.6265 76.4614 22.9662 77.3209 22.9662C78.1411 22.9662 78.628 22.6137 78.628 22.0881V19.1527H80.3458Z" fill="#222222"/>
<path d="M87.2652 22.6201C87.2652 21.7421 86.7075 21.2805 85.4069 21.1396C85.1945 21.1139 84.5736 21.0498 84.1825 21.0178C83.176 20.9089 82.8743 20.8511 82.8743 20.5947C82.8743 20.364 83.1118 20.2551 84.0159 20.2551C84.6564 20.2551 85.0159 20.3769 85.1564 20.5627C85.2272 20.6524 85.2522 20.7229 85.2588 20.7934H87.1051C87.0855 20.6396 87.0212 20.4217 86.9188 20.2295C86.5855 19.5885 85.7849 19.0758 84.0605 19.0758C82.1183 19.0758 81.0541 19.7615 81.0541 20.6589C81.0541 21.5241 81.6576 22.0304 83.285 22.1779L83.3895 22.1871L83.5638 22.203L84.3873 22.2804C85.2402 22.3701 85.4701 22.4278 85.4701 22.697C85.4701 22.9469 85.2468 23.0816 84.3045 23.0816C83.5736 23.0816 83.1445 22.9726 82.9898 22.7867C82.9266 22.7098 82.8808 22.5944 82.8689 22.5175H81.0225C81.0421 22.6457 81.0737 22.8508 81.1445 23.0175C81.4582 23.7225 82.2785 24.2608 84.1825 24.2608C86.2271 24.2608 87.2652 23.684 87.2652 22.6201Z" fill="#222222"/>
<path fill-rule="evenodd" clip-rule="evenodd" d="M42.4459 26.1104C41.0047 26.1104 40.2465 26.7936 40.2465 27.7974C40.2465 28.9304 41.0421 29.5052 42.4459 29.5052C43.9914 29.5052 44.6412 28.8388 44.6412 27.7974C44.6412 26.7394 43.9081 26.1104 42.4459 26.1104ZM42.4459 28.668C41.6253 28.668 41.3879 28.3305 41.3879 27.8099C41.3879 27.2976 41.6461 26.9601 42.4418 26.9601C43.3123 26.9601 43.5082 27.3392 43.5082 27.8099C43.5082 28.3097 43.2707 28.668 42.4459 28.668Z" fill="#222222"/>
<path d="M34.4319 28.4389C34.4319 27.8682 34.0695 27.5682 33.2239 27.4766C33.0864 27.46 32.6824 27.4183 32.4283 27.3975C31.7743 27.3266 31.5785 27.2892 31.5785 27.1226C31.5785 26.9726 31.7327 26.9018 32.32 26.9018C32.7365 26.9018 32.9698 26.9809 33.0615 27.1017C33.1072 27.1601 33.1239 27.2058 33.1281 27.2517H34.3278C34.3152 27.1517 34.2736 27.0101 34.207 26.8851C33.9903 26.4686 33.4696 26.1354 32.3491 26.1354C31.087 26.1354 30.3955 26.581 30.3955 27.1642C30.3955 27.7266 30.787 28.0557 31.8451 28.1514C31.9909 28.164 32.3408 28.1973 32.5616 28.2181C33.1156 28.2764 33.2655 28.314 33.2655 28.4889C33.2655 28.6513 33.1198 28.7388 32.5075 28.7388C32.0325 28.7388 31.7535 28.668 31.6535 28.5472C31.6118 28.4972 31.5827 28.4222 31.5744 28.3722H30.3746C30.3872 28.4556 30.408 28.5888 30.4538 28.6972C30.658 29.1553 31.1912 29.5052 32.4283 29.5052C33.7571 29.5052 34.4319 29.1304 34.4319 28.4389Z" fill="#222222"/>
<path fill-rule="evenodd" clip-rule="evenodd" d="M26.1144 28.5305C26.1144 28.7555 26.0519 28.9763 25.9269 29.122C25.7353 29.3554 25.377 29.4552 24.9147 29.4552H22.0114V26.1853H24.8356C25.2854 26.1853 25.5729 26.2937 25.7312 26.4561C25.8728 26.5977 25.9353 26.7852 25.9353 26.9976C25.9353 27.2101 25.8853 27.385 25.777 27.5141C25.6894 27.6225 25.5396 27.7057 25.3813 27.7266C25.6145 27.7557 25.8353 27.8724 25.9602 28.0348C26.0644 28.1556 26.1144 28.3389 26.1144 28.5305ZM24.7106 27.385C24.7522 27.3392 24.7773 27.2725 24.7773 27.1934C24.7773 27.1142 24.7522 27.0476 24.6981 27.0018C24.6398 26.9476 24.5314 26.9268 24.3731 26.9268H23.1027V27.46H24.4023C24.5439 27.46 24.6523 27.4392 24.7106 27.385ZM24.5231 28.7139C24.7189 28.7139 24.8356 28.6888 24.9022 28.6264C24.9438 28.5847 24.9605 28.5223 24.9605 28.4431C24.9605 28.3597 24.9397 28.2973 24.8897 28.2473C24.8273 28.1932 24.7189 28.1681 24.5357 28.1681H23.1027V28.7139H24.5231Z" fill="#222222"/>
<path d="M30.0367 28.6431V29.4552H26.5919V26.1853H30.0075V27.0018H27.6915V27.4225H29.9409V28.2181H27.6915V28.6431H30.0367Z" fill="#222222"/>
<path d="M38.4837 26.1853V27.006H37.1008V29.4552H35.9595V27.006H34.5807V26.1853H38.4837Z" fill="#222222"/>
<path d="M48.453 26.1853V27.0143H46.2328V27.4767H48.3489V28.2973H46.2328V29.4552H45.1122V26.1853H48.453Z" fill="#222222"/>
<path d="M54.0976 27.006V26.1853H50.1946V27.006H51.5734V29.4552H52.7148V27.006H54.0976Z" fill="#222222"/>
<path d="M58.3547 26.1853V29.4552H57.2383V28.2681H55.5638V29.4552H54.4474V26.1853H55.5638V27.3767H57.2383V26.1853H58.3547Z" fill="#222222"/>
<path d="M62.4601 29.4552V28.6431H60.1148V28.2181H62.3642V27.4225H60.1148V27.0018H62.4309V26.1853H59.0152V29.4552H62.4601Z" fill="#222222"/>
<path d="M69.3664 26.1853H70.4448L69.2499 29.4552H68.0255C68.0255 29.4552 67.3709 27.5017 67.3665 27.4475C67.3632 27.5017 66.7042 29.4552 66.7042 29.4552H65.4842L64.2595 26.1853H65.4711C65.4711 26.1853 66.1803 28.2431 66.1803 28.2931C66.1803 28.2431 66.8338 26.1853 66.8338 26.1853H68.0048C68.0048 26.1853 68.6628 28.2431 68.6628 28.2931C68.6628 28.2431 69.3664 26.1853 69.3664 26.1853Z" fill="#222222"/>
<path fill-rule="evenodd" clip-rule="evenodd" d="M72.5839 26.1106C71.1428 26.1106 70.3846 26.7938 70.3846 27.7977C70.3846 28.9307 71.1798 29.5055 72.5839 29.5055C74.1296 29.5055 74.7788 28.839 74.7788 27.7977C74.7788 26.7397 74.0457 26.1106 72.5839 26.1106ZM72.5839 28.6682C71.7637 28.6682 71.5262 28.3308 71.5262 27.8101C71.5262 27.2978 71.7844 26.9603 72.5796 26.9603C73.451 26.9603 73.646 27.3394 73.646 27.8101C73.646 28.31 73.4085 28.6682 72.5839 28.6682Z" fill="#222222"/>
<path fill-rule="evenodd" clip-rule="evenodd" d="M78.9038 26.5186C79.053 26.6728 79.1238 26.8852 79.1238 27.1809C79.1238 27.435 79.0617 27.6516 78.9572 27.7975C78.8406 27.9557 78.662 28.0891 78.4408 28.1223L79.4277 29.4552H78.187L77.3744 28.3015H76.3625V29.4552H75.2503V26.1853H77.8537C78.37 26.1853 78.7077 26.3104 78.9038 26.5186ZM78.004 27.4558C78.0323 27.4059 78.0411 27.3392 78.0411 27.285C78.0411 27.2225 78.0323 27.156 78.004 27.1142C77.9452 27.006 77.8287 26.9768 77.6533 26.9768H76.3668V27.5725H77.674C77.8537 27.5725 77.9615 27.5392 78.004 27.4558Z" fill="#222222"/>
<path d="M82.9059 29.4552V28.5847H80.9147V26.1853H79.7862V29.4552H82.9059Z" fill="#222222"/>
<path fill-rule="evenodd" clip-rule="evenodd" d="M87.3235 27.7599C87.3235 28.2681 87.2734 28.5431 87.1242 28.8013C86.8987 29.2136 86.4532 29.4552 85.6656 29.4552H83.3498V26.1853H85.6406C86.4238 26.1853 86.8867 26.4061 87.1155 26.7852C87.2778 27.0393 87.3235 27.31 87.3235 27.7599ZM85.4532 28.6513C85.8072 28.6513 86.0077 28.568 86.1286 28.3848C86.2037 28.2723 86.2244 28.0099 86.2244 27.7808C86.2201 27.5725 86.195 27.3517 86.1286 27.2517C85.9989 27.056 85.804 26.9852 85.4619 26.9852H84.4663V28.6513H85.4532Z" fill="#222222"/>
<path d="M42.6396 45.3585H40.9135C40.9135 45.3585 39.7871 48.6509 39.7871 48.7309C39.7871 48.6509 38.7341 45.3585 38.7341 45.3585H36.8613C36.8613 45.3585 35.8149 48.6509 35.8149 48.7309C35.8149 48.6509 34.682 45.3585 34.682 45.3585H32.7425L34.7019 50.5903H36.6547C36.6547 50.5903 37.7077 47.4646 37.7143 47.378C37.7211 47.4646 38.7673 50.5903 38.7673 50.5903H40.7268L42.6396 45.3585Z" fill="#222222"/>
<path d="M45.0021 50.5903V45.3585H43.1693V50.5903H45.0021Z" fill="#222222"/>
<path d="M52.131 45.3585V50.5903H50.3448L47.7523 47.6778V50.5903H46.0328V45.3585H47.9122L50.4247 48.2044V45.3585H52.131Z" fill="#222222"/>
<path d="M59.2714 50.5903V45.3585H57.5652V48.2044L55.0527 45.3585H53.1732V50.5903H54.8927V47.6778L57.4853 50.5903H59.2714Z" fill="#222222"/>
<path d="M65.8253 49.2906V50.5903H60.313V45.3585H65.7785V46.6648H62.0726V47.338H65.6717V48.6109H62.0726V49.2906H65.8253Z" fill="#222222"/>
<path fill-rule="evenodd" clip-rule="evenodd" d="M72.8681 46.9514C72.8681 46.4782 72.7548 46.1383 72.5152 45.8917C72.2015 45.5585 71.6623 45.3585 70.8355 45.3585H66.67V50.5903H68.4499V48.7441H70.0697L71.3692 50.5903H73.355L71.7755 48.4577C72.1285 48.4043 72.415 48.191 72.6023 47.9377C72.7679 47.7045 72.8681 47.3579 72.8681 46.9514ZM71.135 47.1181C71.135 47.2047 71.122 47.3113 71.0751 47.3912C71.0087 47.5246 70.8355 47.5778 70.549 47.5778H68.4565V46.6248H70.5152C70.7952 46.6248 70.9825 46.6714 71.0751 46.8447C71.122 46.9114 71.135 47.0181 71.135 47.1181Z" fill="#222222"/>
<path d="M37.3186 36.1282L36.5959 33.9037L35.873 36.1282H33.534L35.4263 37.503L34.7036 39.7276L36.5959 38.3528L38.4881 39.7276L37.7653 37.503L39.6577 36.1282H37.3186Z" fill="#222222"/>
<path d="M44.9408 33.9023L45.6783 36.1269H48.0651L46.1342 37.5018L46.8717 39.7262L44.9408 38.3514L43.0099 39.7262L43.7475 37.5018L41.8165 36.1269H44.2032L44.9408 33.9023Z" fill="#222222"/>
<path d="M53.9564 36.1269L53.219 33.9023L52.4814 36.1269H50.0945L52.0255 37.5018L51.288 39.7262L53.219 38.3514L55.1498 39.7262L54.4123 37.5018L56.3432 36.1269H53.9564Z" fill="#222222"/>
<path d="M61.497 33.9023L62.2346 36.1269H64.6213L62.6905 37.5018L63.428 39.7262L61.497 38.3514L59.5662 39.7262L60.3037 37.5018L58.3727 36.1269H60.7596L61.497 33.9023Z" fill="#222222"/>
<path d="M70.5638 36.1269L69.8406 33.9023L69.1173 36.1269H66.7786L68.6707 37.5018L67.9485 39.7262L69.8406 38.3514L71.7326 39.7262L71.0104 37.5018L72.9025 36.1269H70.5638Z" fill="#222222"/>
<path d="M100.909 10.0455C101.6 8.2869 101.3 6.2644 100.662 4.56359C99.9915 2.77399 98.8237 0.988984 97.0787 0.0477295C96.9916 1.93383 97.5678 3.79706 98.1974 5.47729C98.7638 6.98846 99.4577 8.59843 100.605 9.84812C100.781 10.7949 100.916 11.7391 101.011 12.679C100.631 11.6863 100.015 10.7815 99.2464 10.0539C98.2562 9.11655 96.7824 8.39354 95.4001 8.82114C95.8053 10.3495 96.7279 11.8148 97.8216 12.8427C98.6821 13.6517 99.8183 14.6883 101.156 14.7291C101.211 16.1126 101.18 17.4835 101.065 18.8357C100.877 17.8462 100.473 16.9144 99.888 16.2206C99.0852 15.267 97.8946 14.1022 96.375 14.2971C96.4578 15.8441 97.0754 17.4291 97.9349 18.6202C98.6168 19.5666 99.5187 20.773 100.799 21.0847C100.594 22.4131 100.308 23.7195 99.9457 24.9978C99.9424 24.019 99.7268 23.0581 99.2976 22.2875C98.693 21.2008 97.7508 19.8454 96.2291 19.7394C96.0057 21.2571 96.3086 22.9162 96.9186 24.2358C97.4055 25.2905 98.0558 26.6356 99.2398 27.1921C98.742 28.5679 98.1538 29.9053 97.4785 31.196C97.7159 30.0834 97.7061 28.911 97.4262 27.856C97.0395 26.4021 96.0809 24.8746 94.5407 24.4315C93.996 26.0369 94.0712 27.8281 94.3882 29.4597C94.6485 30.8031 95.1594 32.3808 96.3053 33.2535C95.5559 34.4633 94.7269 35.6244 93.8217 36.7292C94.3086 35.6458 94.5494 34.4607 94.4197 33.3759C94.2313 31.796 93.788 30.1062 92.1747 29.2642C91.2586 30.8436 91.0462 32.6156 90.9689 34.3657C90.9057 35.7807 91.1094 37.526 92.093 38.6771C91.0114 39.8006 89.8458 40.8521 88.6008 41.8218C89.4047 40.7901 89.9678 39.5796 90.0866 38.3825C90.2554 36.6909 90.1737 34.8289 88.6716 33.5874C87.3884 34.9284 86.6215 36.9031 86.2468 38.6183C85.9146 40.1347 85.5682 41.9298 86.3579 43.4222C84.773 44.4572 83.0802 45.3691 81.2905 46.1414C82.5498 45.244 83.5802 44.0128 84.0715 42.7416C84.7153 41.0756 85.1129 39.0903 83.8602 37.4217C82.1805 38.4974 80.9463 40.3325 79.9736 42.0064C79.1392 43.4428 78.2754 45.4252 78.7046 47.1357C77.7133 47.4718 76.697 47.767 75.6567 48.0189L75.7188 48.2743C76.7624 48.0215 77.783 47.7253 78.7775 47.3882C79.4747 49.4476 81.7578 50.1282 83.6042 50.4285C86.2348 50.8565 89.3676 50.0273 91.6137 48.3567C90.4275 46.6815 88.0093 46.5115 86.1858 46.3833L86.1618 46.3817C84.1641 46.2413 82.0029 46.4289 79.9943 46.951C82.3145 46.0674 84.4865 44.9563 86.4897 43.6503L86.517 43.6939C87.6139 45.4762 89.8186 45.5459 91.5484 45.4332C93.8958 45.2805 96.6049 43.8537 98.1723 41.8813C96.6974 40.5874 94.52 40.9494 92.8316 41.2299L92.8228 41.2314C90.9395 41.5445 88.8818 42.2274 87.1542 43.279C87.3187 43.1494 87.4788 43.0125 87.6357 42.8688C89.3153 41.6712 90.8643 40.3314 92.2706 38.8707C92.2902 38.8902 92.3098 38.9094 92.3294 38.9284C93.6975 40.2934 95.6833 39.9333 97.2345 39.4866C99.315 38.8875 101.472 37.08 102.506 35.005C100.903 34.1075 98.9882 34.847 97.4992 35.4322C95.862 36.0748 94.1311 37.1032 92.8 38.4144C92.9372 38.2412 93.069 38.0602 93.1932 37.8728C94.4295 36.4767 95.5428 34.9816 96.521 33.4043L96.5635 33.4306L96.5744 33.4374C98.1201 34.4322 99.8716 33.7099 101.259 32.9994C103.143 32.0355 104.657 29.9171 105.31 27.8337C103.639 27.2985 101.989 28.3489 100.706 29.1808C99.3008 30.0911 97.8782 31.3896 96.9022 32.8787C96.9741 32.7318 97.0417 32.5815 97.1037 32.4284C98.0416 30.792 98.8379 29.0742 99.4828 27.2922L99.5165 27.3035L99.522 27.3057C100.928 27.8381 102.494 27.0073 103.514 26.0962C104.932 24.8291 105.933 22.8811 106.168 20.978C104.702 20.7881 103.319 21.9227 102.375 22.8903C101.288 24.0049 100.311 25.3221 99.7104 26.7855C99.7551 26.6258 99.7932 26.4636 99.8248 26.2997C100.371 24.6256 100.784 22.8992 101.057 21.1344L101.098 21.1398C102.58 21.3797 103.95 20.2524 104.769 19.1582C105.921 17.6185 106.515 15.4875 106.366 13.556C104.886 13.6597 103.757 15.0688 103.026 16.2088C102.179 17.5291 101.476 19.0235 101.169 20.587C101.179 20.4619 101.184 20.3362 101.186 20.2101C101.412 18.4135 101.492 16.5801 101.418 14.7242C102.931 14.6712 104.052 13.2664 104.63 12.0207C105.454 10.239 105.587 7.98658 105.037 6.08849C103.596 6.49295 102.792 8.14572 102.318 9.41807C101.771 10.8851 101.39 12.4854 101.387 14.0762C101.308 12.7416 101.149 11.3963 100.909 10.0455Z" fill="#222222"/>
</svg>
