<svg width="34" height="34" viewBox="0 0 34 34" fill="none" xmlns="http://www.w3.org/2000/svg">
<path d="M18.7213 27.2948C18.7519 24.1741 17.9607 21.6363 16.9543 21.6265C15.9478 21.6167 15.1072 24.1385 15.0768 27.2592C15.0462 30.3799 15.8374 32.9177 16.8438 32.9275C17.8503 32.9374 18.6909 30.4155 18.7213 27.2948Z" fill="#ECE5D6"/>
<path d="M12.8836 26.5861C14.5966 23.9773 15.3032 21.4147 14.4619 20.8623C13.6205 20.3098 11.5499 21.9768 9.83696 24.5855C8.12395 27.1943 7.41735 29.7568 8.25868 30.3093C9.10001 30.8618 11.1706 29.1948 12.8836 26.5861Z" fill="#ECE5D6"/>
<path d="M8.34953 22.8432C11.2011 21.5749 13.181 19.8012 12.7719 18.8815C12.3629 17.9619 9.71973 18.2447 6.86823 19.513C4.01675 20.7814 2.03677 22.5551 2.44583 23.4747C2.85488 24.3944 5.49807 24.1116 8.34953 22.8432Z" fill="#ECE5D6"/>
<path d="M12.4296 16.3026C12.5828 15.3078 10.2064 14.1165 7.1219 13.6417C4.03733 13.167 1.41271 13.5886 1.2596 14.5833C1.10649 15.5781 3.48287 16.7693 6.5674 17.2441C9.65188 17.7189 12.2766 17.2973 12.4296 16.3026Z" fill="#ECE5D6"/>
<path d="M13.5372 13.9329C14.2037 13.1788 12.8484 10.892 10.5099 8.82533C8.17145 6.7586 5.73543 5.69457 5.06891 6.44873C4.40238 7.20289 5.75775 9.48969 8.09622 11.5564C10.4347 13.6231 12.8707 14.6871 13.5372 13.9329Z" fill="#ECE5D6"/>
<path d="M15.7433 12.548C16.7117 12.2739 16.808 9.61736 15.9582 6.61444C15.1085 3.6115 13.6345 1.3993 12.6661 1.67335C11.6976 1.94739 11.6014 4.60389 12.4511 7.60686C13.3009 10.6097 14.7748 12.822 15.7433 12.548Z" fill="#ECE5D6"/>
<path d="M21.7318 7.70032C22.6406 4.71474 22.5968 2.05682 21.6339 1.76373C20.671 1.47064 19.1537 3.65334 18.2449 6.63897C17.3362 9.62451 17.3799 12.2825 18.3428 12.5755C19.3057 12.8686 20.823 10.6859 21.7318 7.70032Z" fill="#ECE5D6"/>
<path d="M26.0114 11.7345C28.3898 9.71388 29.7897 7.45407 29.1379 6.68703C28.4863 5.91999 26.03 6.93625 23.6516 8.95679C21.2731 10.9774 19.8734 13.2373 20.525 14.0043C21.1766 14.7713 23.633 13.7551 26.0114 11.7345Z" fill="#ECE5D6"/>
<path d="M27.4258 17.4433C30.5191 17.0294 32.9185 15.8853 32.785 14.8877C32.6516 13.8901 30.0357 13.4169 26.9424 13.8307C23.8492 14.2445 21.4497 15.3887 21.5832 16.3863C21.7167 17.3839 24.3324 17.8571 27.4258 17.4433Z" fill="#ECE5D6"/>
<path d="M31.4162 23.7599C31.8433 22.8485 29.8987 21.0361 27.0728 19.7118C24.2469 18.3874 21.6098 18.0526 21.1827 18.964C20.7556 19.8754 22.7002 21.6877 25.5261 23.0121C28.352 24.3364 30.9891 24.6712 31.4162 23.7599Z" fill="#ECE5D6"/>
<path d="M25.4717 30.4844C26.3237 29.9487 25.6678 27.3726 24.0066 24.7306C22.3454 22.0886 20.308 20.3812 19.456 20.9169C18.6039 21.4526 19.2599 24.0287 20.921 26.6707C22.5822 29.3127 24.6196 31.0202 25.4717 30.4844Z" fill="#ECE5D6"/>
</svg>
