<svg width="130" height="34" viewBox="0 0 130 34" fill="none" xmlns="http://www.w3.org/2000/svg">
<path d="M18.7213 27.2948C18.7519 24.1741 17.9607 21.6363 16.9543 21.6265C15.9478 21.6167 15.1072 24.1385 15.0768 27.2592C15.0462 30.3799 15.8374 32.9177 16.8438 32.9275C17.8503 32.9374 18.6909 30.4155 18.7213 27.2948Z" fill="#ECE5D6"/>
<path d="M12.8836 26.5861C14.5966 23.9773 15.3032 21.4147 14.4619 20.8623C13.6205 20.3098 11.5499 21.9768 9.83696 24.5855C8.12395 27.1943 7.41735 29.7568 8.25868 30.3093C9.10001 30.8618 11.1706 29.1948 12.8836 26.5861Z" fill="#ECE5D6"/>
<path d="M8.34953 22.8432C11.2011 21.5749 13.181 19.8012 12.7719 18.8815C12.3629 17.9619 9.71973 18.2447 6.86823 19.513C4.01675 20.7814 2.03677 22.5551 2.44583 23.4747C2.85488 24.3944 5.49807 24.1116 8.34953 22.8432Z" fill="#ECE5D6"/>
<path d="M12.4296 16.3026C12.5828 15.3078 10.2064 14.1165 7.1219 13.6417C4.03733 13.167 1.41271 13.5886 1.2596 14.5833C1.10649 15.5781 3.48287 16.7693 6.5674 17.2441C9.65188 17.7189 12.2766 17.2973 12.4296 16.3026Z" fill="#ECE5D6"/>
<path d="M13.5372 13.9329C14.2037 13.1788 12.8484 10.892 10.5099 8.82533C8.17145 6.7586 5.73543 5.69457 5.06891 6.44873C4.40238 7.20289 5.75775 9.48969 8.09622 11.5564C10.4347 13.6231 12.8707 14.6871 13.5372 13.9329Z" fill="#ECE5D6"/>
<path d="M15.7433 12.548C16.7117 12.2739 16.808 9.61736 15.9582 6.61444C15.1085 3.6115 13.6345 1.3993 12.6661 1.67335C11.6976 1.94739 11.6014 4.60389 12.4511 7.60686C13.3009 10.6097 14.7748 12.822 15.7433 12.548Z" fill="#ECE5D6"/>
<path d="M21.7318 7.70032C22.6406 4.71474 22.5968 2.05682 21.6339 1.76373C20.671 1.47064 19.1537 3.65334 18.2449 6.63897C17.3362 9.62451 17.3799 12.2825 18.3428 12.5755C19.3057 12.8686 20.823 10.6859 21.7318 7.70032Z" fill="#ECE5D6"/>
<path d="M26.0114 11.7345C28.3898 9.71388 29.7897 7.45407 29.1379 6.68703C28.4863 5.91999 26.03 6.93625 23.6516 8.95679C21.2731 10.9774 19.8734 13.2373 20.525 14.0043C21.1766 14.7713 23.633 13.7551 26.0114 11.7345Z" fill="#ECE5D6"/>
<path d="M27.4258 17.4433C30.5191 17.0294 32.9185 15.8853 32.785 14.8877C32.6516 13.8901 30.0357 13.4169 26.9424 13.8307C23.8492 14.2445 21.4497 15.3887 21.5832 16.3863C21.7167 17.3839 24.3324 17.8571 27.4258 17.4433Z" fill="#ECE5D6"/>
<path d="M31.4162 23.7599C31.8433 22.8485 29.8987 21.0361 27.0728 19.7118C24.2469 18.3874 21.6098 18.0526 21.1827 18.964C20.7556 19.8754 22.7002 21.6877 25.5261 23.0121C28.352 24.3364 30.9891 24.6712 31.4162 23.7599Z" fill="#ECE5D6"/>
<path d="M25.4717 30.4844C26.3237 29.9487 25.6678 27.3726 24.0066 24.7306C22.3454 22.0886 20.308 20.3812 19.456 20.9169C18.6039 21.4526 19.2599 24.0287 20.921 26.6707C22.5822 29.3127 24.6196 31.0202 25.4717 30.4844Z" fill="#ECE5D6"/>
<path d="M41.7959 13.7812C40.6449 11.0221 39.8493 9.16439 39.4092 8.20801C38.9691 7.25163 38.584 6.62109 38.2539 6.31641V6.16406H41.542V6.31641C41.2119 6.62956 41.1611 7.27279 41.3896 8.24609C41.6182 9.2194 42.2318 10.9587 43.2305 13.4639L48.1689 25.8926L53.3359 13.54C54.1061 11.7204 54.6605 10.3239 54.999 9.35059C55.3376 8.37728 55.5195 7.66634 55.5449 7.21777C55.5788 6.76074 55.4941 6.46029 55.291 6.31641V6.16406H58.2236V6.31641C58.1221 6.40951 58.0205 6.5153 57.9189 6.63379C57.8258 6.75228 57.7243 6.90039 57.6143 7.07812C57.5042 7.2474 57.4027 7.41667 57.3096 7.58594C57.2165 7.75521 57.098 7.98372 56.9541 8.27148C56.8187 8.55078 56.696 8.80469 56.5859 9.0332C56.4844 9.26172 56.3405 9.5791 56.1543 9.98535C55.9766 10.3916 55.8158 10.7513 55.6719 11.0645C55.5365 11.3776 55.3503 11.8092 55.1133 12.3594C54.8763 12.9095 54.6647 13.3919 54.4785 13.8066L48.0674 28.3428H47.8516L41.7959 13.7812ZM68.0371 28.3174C66.5645 28.3174 65.2272 27.9746 64.0254 27.2891C62.832 26.5951 61.8926 25.6302 61.207 24.3945C60.5215 23.1504 60.1787 21.7539 60.1787 20.2051C60.1787 19.0456 60.3734 17.9622 60.7627 16.9551C61.152 15.9395 61.681 15.0804 62.3496 14.3779C63.0182 13.667 63.8138 13.1084 64.7363 12.7021C65.6673 12.2959 66.6533 12.0928 67.6943 12.0928C71.2998 12.0928 73.3014 14.0479 73.6992 17.958L73.5215 18.1738H61.7656C61.6641 18.6647 61.6133 19.1598 61.6133 19.6592C61.6133 20.3278 61.6937 21.0091 61.8545 21.7031C62.0153 22.3971 62.2734 23.0827 62.6289 23.7598C62.9844 24.4368 63.4118 25.0378 63.9111 25.5625C64.4105 26.0872 65.0326 26.5146 65.7773 26.8447C66.5221 27.1663 67.3346 27.3271 68.2148 27.3271C69.1204 27.3271 69.9922 27.1579 70.8301 26.8193C71.668 26.4723 72.3916 25.9561 73.001 25.2705H73.1533V26.5908C71.7314 27.7419 70.026 28.3174 68.0371 28.3174ZM62.0322 17.1836H72.0361C71.8923 15.8971 71.4098 14.89 70.5889 14.1621C69.7679 13.4342 68.7861 13.0703 67.6436 13.0703C66.2979 13.0703 65.1341 13.4512 64.1523 14.2129C63.179 14.9746 62.4723 15.9648 62.0322 17.1836ZM78.9297 12.5244C78.9297 9.2321 78.5911 7.58594 77.9141 7.58594V7.35742L79.9707 5.84668H80.2373V22.0459C80.2373 23.2308 80.2585 24.1999 80.3008 24.9531C80.3516 25.7064 80.4277 26.2734 80.5293 26.6543C80.6393 27.0352 80.7409 27.3018 80.834 27.4541C80.9271 27.598 81.0625 27.7292 81.2402 27.8477V28H77.9141V27.8477C78.151 27.6868 78.3288 27.4922 78.4473 27.2637C78.5658 27.0352 78.6758 26.4977 78.7773 25.6514C78.8789 24.7965 78.9297 23.5947 78.9297 22.0459V12.5244ZM97.1221 27.2891C95.9287 27.9746 94.5957 28.3174 93.123 28.3174C91.6504 28.3174 90.3132 27.9746 89.1113 27.2891C87.918 26.5951 86.9785 25.6302 86.293 24.3945C85.6074 23.1504 85.2646 21.7539 85.2646 20.2051C85.2646 18.6562 85.6074 17.264 86.293 16.0283C86.9785 14.7842 87.918 13.8193 89.1113 13.1338C90.3132 12.4398 91.6504 12.0928 93.123 12.0928C94.5957 12.0928 95.9287 12.4398 97.1221 13.1338C98.3239 13.8193 99.2633 14.7842 99.9404 16.0283C100.626 17.264 100.969 18.6562 100.969 20.2051C100.969 21.7539 100.626 23.1504 99.9404 24.3945C99.2633 25.6302 98.3239 26.5951 97.1221 27.2891ZM86.6992 19.6592C86.6992 20.641 86.8558 21.5931 87.1689 22.5156C87.4821 23.4297 87.918 24.2464 88.4766 24.9658C89.0352 25.6768 89.7334 26.248 90.5713 26.6797C91.4092 27.1113 92.319 27.3271 93.3008 27.3271C95.0697 27.3271 96.5508 26.7093 97.7441 25.4736C98.9375 24.238 99.5342 22.6637 99.5342 20.751C99.5342 19.7692 99.3776 18.8171 99.0645 17.8945C98.7513 16.972 98.3154 16.1553 97.7568 15.4443C97.1982 14.7249 96.5 14.1494 95.6621 13.7178C94.8242 13.2861 93.9144 13.0703 92.9326 13.0703C91.1637 13.0703 89.6826 13.6924 88.4893 14.9365C87.2959 16.1722 86.6992 17.7464 86.6992 19.6592ZM105.628 18.7705C105.628 15.4782 105.294 13.832 104.625 13.832V13.5908L106.542 12.0928H106.809L106.91 15.6221H106.961C107.232 14.5641 107.748 13.7135 108.51 13.0703C109.271 12.4186 110.194 12.0928 111.277 12.0928C111.827 12.0928 112.373 12.1605 112.915 12.2959V14.5557L112.737 14.5811C112.28 13.8701 111.586 13.5146 110.655 13.5146C109.538 13.5146 108.637 13.9928 107.951 14.9492C107.274 15.8971 106.936 17.1963 106.936 18.8467V22.0459C106.936 23.5947 106.986 24.7965 107.088 25.6514C107.189 26.4977 107.299 27.0352 107.418 27.2637C107.536 27.4922 107.714 27.6868 107.951 27.8477V28H104.625V27.8477C104.803 27.7292 104.938 27.598 105.031 27.4541C105.124 27.3018 105.222 27.0352 105.323 26.6543C105.433 26.2734 105.509 25.7064 105.552 24.9531C105.603 24.1999 105.628 23.2308 105.628 22.0459V18.7705ZM119.834 28.3174C118.412 28.3174 117.286 27.9831 116.457 27.3145C115.636 26.6374 115.226 25.7148 115.226 24.5469C115.226 23.9883 115.323 23.4932 115.518 23.0615C115.721 22.6299 116.008 22.266 116.381 21.9697C116.753 21.6735 117.151 21.4323 117.574 21.2461C118.006 21.0599 118.497 20.8949 119.047 20.751L121.776 20.04C122.851 19.7523 123.533 19.5449 123.82 19.418C124.582 19.0794 125.001 18.5758 125.077 17.9072C125.086 17.8226 125.09 17.738 125.09 17.6533C125.09 16.2568 124.684 15.1439 123.871 14.3145C123.059 13.485 121.954 13.0703 120.558 13.0703C119.407 13.0703 118.412 13.3708 117.574 13.9717C116.736 14.5726 116.118 15.4274 115.721 16.5361H115.543V13.5908C115.856 13.4046 116.14 13.248 116.394 13.1211C116.656 12.9857 117.007 12.8291 117.447 12.6514C117.896 12.4736 118.387 12.3382 118.92 12.2451C119.462 12.1436 120.024 12.0928 120.608 12.0928C121.616 12.0928 122.5 12.2409 123.262 12.5371C124.023 12.8249 124.624 13.2311 125.064 13.7559C125.513 14.2721 125.843 14.8561 126.055 15.5078C126.275 16.1595 126.385 16.8747 126.385 17.6533V23.6328C126.385 24.86 126.474 25.7995 126.651 26.4512C126.829 27.1029 127.113 27.5768 127.502 27.873V28H125.445C125.166 27.1536 125.026 26.2438 125.026 25.2705H125.001C124.696 26.1423 124.108 26.8701 123.236 27.4541C122.373 28.0296 121.239 28.3174 119.834 28.3174ZM116.686 24.5469C116.686 25.3932 116.99 26.0703 117.6 26.5781C118.217 27.0775 119.047 27.3271 120.088 27.3271C121.51 27.3271 122.699 26.9209 123.655 26.1084C124.612 25.2959 125.09 24.1999 125.09 22.8203V19.1895H125.052C124.959 19.6211 124.684 19.9681 124.227 20.2305C123.77 20.4928 123.173 20.7171 122.437 20.9033L119.859 21.5508C119.326 21.6862 118.873 21.8301 118.501 21.9824C118.137 22.1348 117.811 22.3252 117.523 22.5537C117.236 22.7822 117.024 23.0615 116.889 23.3916C116.753 23.7132 116.686 24.0983 116.686 24.5469Z" fill="#ECE5D6"/>
</svg>
