<svg width="148" height="38" viewBox="0 0 148 38" fill="none" xmlns="http://www.w3.org/2000/svg">
<path d="M20.9237 30.506C20.9578 27.0181 20.0735 24.1818 18.9487 24.1708C17.8239 24.1598 16.8843 26.9783 16.8503 30.4662C16.8162 33.954 17.7004 36.7904 18.8252 36.8013C19.9501 36.8124 20.8896 33.9938 20.9237 30.506Z" fill="white"/>
<path d="M14.3992 29.7139C16.3137 26.7982 17.1034 23.9341 16.1632 23.3167C15.2228 22.6992 12.9086 24.5623 10.9941 27.4779C9.07958 30.3936 8.28984 33.2576 9.23015 33.8751C10.1705 34.4926 12.4847 32.6295 14.3992 29.7139Z" fill="white"/>
<path d="M9.33166 25.5306C12.5187 24.1131 14.7316 22.1307 14.2743 21.1029C13.8172 20.0751 10.8631 20.3911 7.67609 21.8087C4.48914 23.2263 2.27623 25.2086 2.7334 26.2364C3.19058 27.2643 6.14474 26.9483 9.33166 25.5306Z" fill="white"/>
<path d="M13.8919 18.2205C14.063 17.1087 11.4071 15.7773 7.95972 15.2466C4.51225 14.716 1.57885 15.1872 1.40773 16.299C1.2366 17.4108 3.89256 18.7422 7.33998 19.2728C10.7873 19.8035 13.7208 19.3323 13.8919 18.2205Z" fill="white"/>
<path d="M15.1296 15.5721C15.8746 14.7293 14.3598 12.1734 11.7462 9.86361C9.13263 7.55374 6.41003 6.36453 5.66508 7.20741C4.92014 8.0503 6.43496 10.6061 9.04856 12.916C11.6621 15.2258 14.3848 16.415 15.1296 15.5721Z" fill="white"/>
<path d="M17.5953 14.0242C18.6777 13.7179 18.7852 10.7488 17.8355 7.39262C16.8858 4.03639 15.2384 1.56393 14.156 1.87021C13.0736 2.1765 12.9661 5.14553 13.9158 8.50179C14.8655 11.8579 16.5128 14.3305 17.5953 14.0242Z" fill="white"/>
<path d="M24.2883 8.60624C25.3041 5.26941 25.2551 2.2988 24.1789 1.97123C23.1028 1.64366 21.407 4.08315 20.3912 7.42002C19.3756 10.7568 19.4245 13.7275 20.5007 14.055C21.5768 14.3826 23.2726 11.9431 24.2883 8.60624Z" fill="white"/>
<path d="M29.0715 13.115C31.7297 10.8567 33.2943 8.33103 32.5658 7.47375C31.8375 6.61647 29.0922 7.75229 26.434 10.0105C23.7758 12.2689 22.2113 14.7946 22.9396 15.6519C23.6679 16.5092 26.4133 15.3734 29.0715 13.115Z" fill="white"/>
<path d="M30.6523 19.4955C34.1095 19.0329 36.7912 17.7542 36.642 16.6392C36.4929 15.5242 33.5693 14.9954 30.1121 15.4578C26.6549 15.9203 23.9732 17.1991 24.1224 18.3141C24.2716 19.429 27.1951 19.958 30.6523 19.4955Z" fill="white"/>
<path d="M35.1121 26.5552C35.5895 25.5366 33.4161 23.511 30.2577 22.0308C27.0994 20.5506 24.152 20.1765 23.6746 21.195C23.1973 22.2137 25.3707 24.2392 28.5291 25.7194C31.6874 27.1995 34.6348 27.5738 35.1121 26.5552Z" fill="white"/>
<path d="M28.4683 34.0708C29.4206 33.4721 28.6874 30.5929 26.8309 27.6401C24.9742 24.6872 22.6971 22.779 21.7448 23.3777C20.7926 23.9764 21.5257 26.8556 23.3823 29.8084C25.2389 32.7613 27.516 34.6696 28.4683 34.0708Z" fill="white"/>
<path d="M46.3799 15.0938C45.0518 11.9102 44.1338 9.7666 43.626 8.66309C43.1182 7.55957 42.6738 6.83203 42.293 6.48047V6.30469H46.0869V6.48047C45.7061 6.8418 45.6475 7.58398 45.9111 8.70703C46.1748 9.83008 46.8828 11.8369 48.0352 14.7275L53.7334 29.0684L59.6953 14.8154C60.584 12.7158 61.2236 11.1045 61.6143 9.98145C62.0049 8.8584 62.2148 8.03809 62.2441 7.52051C62.2832 6.99316 62.1855 6.64648 61.9512 6.48047V6.30469H65.335V6.48047C65.2178 6.58789 65.1006 6.70996 64.9834 6.84668C64.876 6.9834 64.7588 7.1543 64.6318 7.35938C64.5049 7.55469 64.3877 7.75 64.2803 7.94531C64.1729 8.14062 64.0361 8.4043 63.8701 8.73633C63.7139 9.05859 63.5723 9.35156 63.4453 9.61523C63.3281 9.87891 63.1621 10.2451 62.9473 10.7139C62.7422 11.1826 62.5566 11.5977 62.3906 11.959C62.2344 12.3203 62.0195 12.8184 61.7461 13.4531C61.4727 14.0879 61.2285 14.6445 61.0137 15.123L53.6162 31.8955H53.3672L46.3799 15.0938ZM76.6582 31.8662C74.959 31.8662 73.416 31.4707 72.0293 30.6797C70.6523 29.8789 69.5684 28.7656 68.7773 27.3398C67.9863 25.9043 67.5908 24.293 67.5908 22.5059C67.5908 21.168 67.8154 19.918 68.2646 18.7559C68.7139 17.584 69.3242 16.5928 70.0957 15.7822C70.8672 14.9619 71.7852 14.3174 72.8496 13.8486C73.9238 13.3799 75.0615 13.1455 76.2627 13.1455C80.4229 13.1455 82.7324 15.4014 83.1914 19.9131L82.9863 20.1621H69.4219C69.3047 20.7285 69.2461 21.2998 69.2461 21.876C69.2461 22.6475 69.3389 23.4336 69.5244 24.2344C69.71 25.0352 70.0078 25.8262 70.418 26.6074C70.8281 27.3887 71.3213 28.082 71.8975 28.6875C72.4736 29.293 73.1914 29.7861 74.0508 30.167C74.9102 30.5381 75.8477 30.7236 76.8633 30.7236C77.9082 30.7236 78.9141 30.5283 79.8809 30.1377C80.8477 29.7373 81.6826 29.1416 82.3857 28.3506H82.5615V29.874C80.9209 31.2021 78.9531 31.8662 76.6582 31.8662ZM69.7295 19.0195H81.2725C81.1064 17.5352 80.5498 16.373 79.6025 15.5332C78.6553 14.6934 77.5225 14.2734 76.2041 14.2734C74.6514 14.2734 73.3086 14.7129 72.1758 15.5918C71.0527 16.4707 70.2373 17.6133 69.7295 19.0195ZM89.2266 13.6436C89.2266 9.84473 88.8359 7.94531 88.0547 7.94531V7.68164L90.4277 5.93848H90.7354V24.6299C90.7354 25.9971 90.7598 27.1152 90.8086 27.9844C90.8672 28.8535 90.9551 29.5078 91.0723 29.9473C91.1992 30.3867 91.3164 30.6943 91.4238 30.8701C91.5312 31.0361 91.6875 31.1875 91.8926 31.3242V31.5H88.0547V31.3242C88.3281 31.1387 88.5332 30.9141 88.6699 30.6504C88.8066 30.3867 88.9336 29.7666 89.0508 28.79C89.168 27.8037 89.2266 26.417 89.2266 24.6299V13.6436ZM110.218 30.6797C108.841 31.4707 107.303 31.8662 105.604 31.8662C103.904 31.8662 102.361 31.4707 100.975 30.6797C99.5977 29.8789 98.5137 28.7656 97.7227 27.3398C96.9316 25.9043 96.5361 24.293 96.5361 22.5059C96.5361 20.7188 96.9316 19.1123 97.7227 17.6865C98.5137 16.251 99.5977 15.1377 100.975 14.3467C102.361 13.5459 103.904 13.1455 105.604 13.1455C107.303 13.1455 108.841 13.5459 110.218 14.3467C111.604 15.1377 112.688 16.251 113.47 17.6865C114.261 19.1123 114.656 20.7188 114.656 22.5059C114.656 24.293 114.261 25.9043 113.47 27.3398C112.688 28.7656 111.604 29.8789 110.218 30.6797ZM98.1914 21.876C98.1914 23.0088 98.3721 24.1074 98.7334 25.1719C99.0947 26.2266 99.5977 27.1689 100.242 27.999C100.887 28.8193 101.692 29.4785 102.659 29.9766C103.626 30.4746 104.676 30.7236 105.809 30.7236C107.85 30.7236 109.559 30.0107 110.936 28.585C112.312 27.1592 113.001 25.3428 113.001 23.1357C113.001 22.0029 112.82 20.9043 112.459 19.8398C112.098 18.7754 111.595 17.833 110.95 17.0127C110.306 16.1826 109.5 15.5186 108.533 15.0205C107.566 14.5225 106.517 14.2734 105.384 14.2734C103.343 14.2734 101.634 14.9912 100.257 16.4268C98.8799 17.8525 98.1914 19.6689 98.1914 21.876ZM120.032 20.8506C120.032 17.0518 119.646 15.1523 118.875 15.1523V14.874L121.087 13.1455H121.395L121.512 17.2178H121.57C121.883 15.9971 122.479 15.0156 123.357 14.2734C124.236 13.5215 125.301 13.1455 126.551 13.1455C127.186 13.1455 127.815 13.2236 128.44 13.3799V15.9873L128.235 16.0166C127.708 15.1963 126.907 14.7861 125.833 14.7861C124.544 14.7861 123.504 15.3379 122.713 16.4414C121.932 17.5352 121.541 19.0342 121.541 20.9385V24.6299C121.541 26.417 121.6 27.8037 121.717 28.79C121.834 29.7666 121.961 30.3867 122.098 30.6504C122.234 30.9141 122.439 31.1387 122.713 31.3242V31.5H118.875V31.3242C119.08 31.1875 119.236 31.0361 119.344 30.8701C119.451 30.6943 119.563 30.3867 119.681 29.9473C119.808 29.5078 119.896 28.8535 119.944 27.9844C120.003 27.1152 120.032 25.9971 120.032 24.6299V20.8506ZM136.424 31.8662C134.783 31.8662 133.484 31.4805 132.527 30.709C131.58 29.9277 131.106 28.8633 131.106 27.5156C131.106 26.8711 131.219 26.2998 131.443 25.8018C131.678 25.3037 132.01 24.8838 132.439 24.542C132.869 24.2002 133.328 23.9219 133.816 23.707C134.314 23.4922 134.881 23.3018 135.516 23.1357L138.665 22.3154C139.905 21.9834 140.691 21.7441 141.023 21.5977C141.902 21.207 142.386 20.626 142.474 19.8545C142.483 19.7568 142.488 19.6592 142.488 19.5615C142.488 17.9502 142.02 16.666 141.082 15.709C140.145 14.752 138.87 14.2734 137.259 14.2734C135.931 14.2734 134.783 14.6201 133.816 15.3135C132.85 16.0068 132.137 16.9932 131.678 18.2725H131.473V14.874C131.834 14.6592 132.161 14.4785 132.454 14.332C132.757 14.1758 133.162 13.9951 133.67 13.79C134.188 13.585 134.754 13.4287 135.369 13.3213C135.994 13.2041 136.644 13.1455 137.317 13.1455C138.479 13.1455 139.5 13.3164 140.379 13.6582C141.258 13.9902 141.951 14.459 142.459 15.0645C142.977 15.6602 143.357 16.334 143.602 17.0859C143.855 17.8379 143.982 18.6631 143.982 19.5615V26.4609C143.982 27.877 144.085 28.9609 144.29 29.7129C144.495 30.4648 144.822 31.0117 145.271 31.3535V31.5H142.898C142.576 30.5234 142.415 29.4736 142.415 28.3506H142.386C142.034 29.3564 141.355 30.1963 140.35 30.8701C139.354 31.5342 138.045 31.8662 136.424 31.8662ZM132.791 27.5156C132.791 28.4922 133.143 29.2734 133.846 29.8594C134.559 30.4355 135.516 30.7236 136.717 30.7236C138.357 30.7236 139.729 30.2549 140.833 29.3174C141.937 28.3799 142.488 27.1152 142.488 25.5234V21.334H142.444C142.337 21.832 142.02 22.2324 141.492 22.5352C140.965 22.8379 140.276 23.0967 139.427 23.3115L136.453 24.0586C135.838 24.2148 135.315 24.3809 134.886 24.5566C134.466 24.7324 134.09 24.9521 133.758 25.2158C133.426 25.4795 133.182 25.8018 133.025 26.1826C132.869 26.5537 132.791 26.998 132.791 27.5156Z" fill="white"/>
</svg>
